<svg width="14" height="15" viewBox="0 0 14 15" fill="none" xmlns="http://www.w3.org/2000/svg">
<path d="M13 8.4C13.4971 8.4 13.9 7.99706 13.9 7.5C13.9 7.00294 13.4971 6.6 13 6.6L13 8.4ZM0.363604 6.8636C0.0121317 7.21507 0.0121317 7.78492 0.363604 8.1364L6.09117 13.864C6.44264 14.2154 7.01249 14.2154 7.36396 13.864C7.71543 13.5125 7.71543 12.9426 7.36396 12.5912L2.27279 7.5L7.36396 2.40883C7.71543 2.05736 7.71543 1.48751 7.36396 1.13604C7.01249 0.784567 6.44264 0.784567 6.09117 1.13604L0.363604 6.8636ZM13 6.6L1 6.6L1 8.4L13 8.4L13 6.6Z"/>
</svg>
