<svg width="19" height="19" viewBox="0 0 19 19" fill="none" xmlns="http://www.w3.org/2000/svg">
<path d="M12.1091 9.18396L18.5528 2.75426C18.835 2.47204 18.9935 2.08926 18.9935 1.69014C18.9935 1.29102 18.835 0.908239 18.5528 0.626016C18.2706 0.343793 17.8879 0.185242 17.4889 0.185242C17.0898 0.185242 16.7071 0.343793 16.4249 0.626016L9.99609 7.07071L3.56731 0.626016C3.28512 0.343793 2.9024 0.185242 2.50333 0.185242C2.10427 0.185242 1.72155 0.343793 1.43936 0.626016C1.15718 0.908239 0.998651 1.29102 0.998651 1.69014C0.998651 2.08926 1.15718 2.47204 1.43936 2.75426L7.88314 9.18396L1.43936 15.6137C1.29891 15.753 1.18742 15.9188 1.11134 16.1014C1.03526 16.284 0.996094 16.4799 0.996094 16.6778C0.996094 16.8756 1.03526 17.0715 1.11134 17.2542C1.18742 17.4368 1.29891 17.6026 1.43936 17.7419C1.57867 17.8824 1.74441 17.9939 1.92703 18.07C2.10964 18.1461 2.30551 18.1852 2.50333 18.1852C2.70116 18.1852 2.89703 18.1461 3.07964 18.07C3.26226 17.9939 3.428 17.8824 3.56731 17.7419L9.99609 11.2972L16.4249 17.7419C16.5642 17.8824 16.7299 17.9939 16.9125 18.07C17.0952 18.1461 17.291 18.1852 17.4889 18.1852C17.6867 18.1852 17.8825 18.1461 18.0652 18.07C18.2478 17.9939 18.4135 17.8824 18.5528 17.7419C18.6933 17.6026 18.8048 17.4368 18.8808 17.2542C18.9569 17.0715 18.9961 16.8756 18.9961 16.6778C18.9961 16.4799 18.9569 16.284 18.8808 16.1014C18.8048 15.9188 18.6933 15.753 18.5528 15.6137L12.1091 9.18396Z"/>
</svg>
