<svg width="42" height="47" viewBox="0 0 42 47" fill="none" xmlns="http://www.w3.org/2000/svg">
<rect x="23.6941" y="27.7267" width="2.25658" height="19.1809" fill="#4D301F"/>
<mask id="mask0" mask-type="alpha" maskUnits="userSpaceOnUse" x="7" y="6" width="35" height="35">
<path fill-rule="evenodd" clip-rule="evenodd" d="M19.2159 12.4462C19.1928 12.2497 19.1809 12.0498 19.1809 11.8471C19.1809 9.04293 21.4541 6.76974 24.2582 6.76974C24.4489 6.76974 24.6372 6.78026 24.8224 6.80073C25.0076 6.78026 25.1959 6.76974 25.3865 6.76974C28.1907 6.76974 30.4639 9.04293 30.4639 11.8471C30.4639 12.0498 30.452 12.2497 30.4289 12.4462C30.6254 12.4231 30.8253 12.4112 31.028 12.4112C33.8321 12.4112 36.1053 14.6844 36.1053 17.4885C36.1053 18.5353 35.7885 19.508 35.2457 20.3162C35.3436 20.3116 35.4421 20.3093 35.5411 20.3093C38.9684 20.3093 41.7467 23.0876 41.7467 26.5149C41.7467 29.4568 39.6995 31.9206 36.952 32.5594C37.135 33.1447 37.2336 33.7673 37.2336 34.4129C37.2336 37.8402 34.4552 40.6185 31.028 40.6185C29.843 40.6185 28.7356 40.2864 27.7938 39.7101C26.8766 40.2958 25.8734 40.6185 24.8224 40.6185C23.7713 40.6185 22.7682 40.2958 21.8509 39.7101C20.9091 40.2864 19.8017 40.6185 18.6168 40.6185C15.1895 40.6185 12.4112 37.8402 12.4112 34.4129C12.4112 33.7673 12.5098 33.1447 12.6927 32.5594C9.94519 31.9206 7.89801 29.4568 7.89801 26.5149C7.89801 23.0876 10.6764 20.3093 14.1036 20.3093C14.2027 20.3093 14.3012 20.3116 14.3991 20.3162C13.8562 19.508 13.5394 18.5353 13.5394 17.4885C13.5394 14.6844 15.8126 12.4112 18.6168 12.4112C18.8195 12.4112 19.0194 12.4231 19.2159 12.4462Z" fill="#C4C4C4"/>
</mask>
<g mask="url(#mask0)">
<rect x="3.38486" y="-4.51315" width="21.4375" height="49.6448" fill="#7CA20F"/>
<rect x="24.8224" y="-4.51315" width="21.4375" height="49.6448" fill="#AED024"/>
</g>
<rect x="10.1546" y="35.6247" width="2.25658" height="11.2829" fill="#4D301F"/>
<path d="M11.2829 0V40.6185C1.09863 32.2559 -7.95408 17.9199 11.2829 0Z" fill="#7CA20F"/>
<path d="M11.2829 -3.05176e-05V40.6184C21.4672 32.2558 30.5199 17.9199 11.2829 -3.05176e-05Z" fill="#AED024"/>
</svg>
