<svg width="42" height="42" fill="none">
  <g clip-path="url(#clip0)" stroke-width=".1">
    <path d="M28.4 19.4c.5 0 .9-.4.9-.9v-2.4c0-.5-.4-.9-1-.9h-9.8c-.4 0-.8.4-.8.9v19.7c0 .4.4.8.8.8h9.9a.9.9 0 000-1.7h-9v-3.2h4a.9.9 0 000-1.7h-4v-3.2h8.1v4a.9.9 0 001.8 0v-7.3a.9.9 0 00-1.8 0V25h-8v-8.2h3V21a.9.9 0 001.8 0v-4h3.2v1.5c0 .5.4 1 .9 1z" fill="url(#paint0_linear)" stroke="url(#paint1_linear)"/>
    <path d="M24.3 42a.9.9 0 100-1.7.9.9 0 000 1.8z" fill="url(#paint2_linear)" stroke="url(#paint3_linear)"/>
    <path d="M37.5 5.4c-2.5 0-4.6 2-4.6 4.5v.4H14V7A7 7 0 000 7v28a7 7 0 007 7h13.6a.9.9 0 000-1.7h-9A7 7 0 0014 35V12h19v25.5a.9.9 0 001.7 0 2.8 2.8 0 112.8 2.8H28a.9.9 0 000 1.8h9.5C40 42 42 40 42 37.4V9.9c0-2.5-2-4.5-4.5-4.5zM7 40.4a5.3 5.3 0 01-2.1-10.2v3.6c0 1.8 1.5 3.3 3.3 3.3h3.6A5.3 5.3 0 017 40.3zm5.3-5.4v.4H8.1c-.9 0-1.6-.7-1.6-1.6v-4H7c2.9 0 5.3 2.3 5.3 5.2zM7 28c-2 0-4 .9-5.3 2.4V7a5.3 5.3 0 0110.6 0v23.4A7 7 0 007 28zm33.3-18v24a4.5 4.5 0 00-5.6 0V10a2.8 2.8 0 015.6 0z" fill="url(#paint4_linear)" stroke="url(#paint5_linear)"/>
  </g>
  <defs>
    <linearGradient id="paint0_linear" x1="29.2" y1="36.6" x2="17.2" y2="36.3" gradientUnits="userSpaceOnUse">
      <stop offset="0" stop-color="#2CA824"/>
      <stop offset="1" stop-color="#45CF3C"/>
    </linearGradient>
    <linearGradient id="paint1_linear" x1="29.2" y1="36.6" x2="17.2" y2="36.3" gradientUnits="userSpaceOnUse">
      <stop offset="0" stop-color="#2CA824"/>
      <stop offset="1" stop-color="#45CF3C"/>
    </linearGradient>
    <linearGradient id="paint2_linear" x1="25.1" y1="42" x2="23.4" y2="41.9" gradientUnits="userSpaceOnUse">
      <stop offset="0"  stop-color="#2CA824"/>
      <stop offset="1" stop-color="#45CF3C"/>
    </linearGradient>
    <linearGradient id="paint3_linear" x1="25.1" y1="42" x2="23.4" y2="41.9" gradientUnits="userSpaceOnUse">
      <stop offset="0" stop-color="#2CA824"/>
      <stop offset="1" stop-color="#45CF3C"/>
    </linearGradient>
    <linearGradient id="paint4_linear" x1="42" y1="42" x2="-2" y2="39.8" gradientUnits="userSpaceOnUse">
      <stop offset="0" stop-color="#2CA824"/>
      <stop offset="1" stop-color="#45CF3C"/>
    </linearGradient>
    <linearGradient id="paint5_linear" x1="42" y1="42" x2="-2" y2="39.8" gradientUnits="userSpaceOnUse">
      <stop offset="0" stop-color="#2CA824"/>
      <stop offset="1" stop-color="#45CF3C"/>
    </linearGradient>
    <clipPath id="clip0">
      <path fill="#fff" d="M0 0h42v42H0z"/>
    </clipPath>
  </defs>
</svg>
