<svg width="42" height="42" viewBox="0 0 42 42" fill="none" xmlns="http://www.w3.org/2000/svg">
<g clip-path="url(#clip0)">
<path d="M30.4209 29.3027C29.9645 29.3027 29.5945 29.6751 29.5945 30.1315C29.5945 30.5879 29.9645 30.9579 30.4209 30.9579C30.8772 30.9579 31.2472 30.5878 31.2472 30.1315V30.1268C31.2472 29.6704 30.8773 29.3027 30.4209 29.3027Z" fill="url(#paint0_linear)"/>
<path d="M34.1111 29.3027C33.6547 29.3027 33.2847 29.6751 33.2847 30.1315C33.2847 30.5879 33.6547 30.9579 34.1111 30.9579C34.5674 30.9579 34.9375 30.5878 34.9375 30.1315V30.1268C34.9375 29.6704 34.5674 29.3027 34.1111 29.3027Z" fill="url(#paint1_linear)"/>
<path d="M37.8035 29.3027C37.3472 29.3027 36.9771 29.6751 36.9771 30.1315C36.9771 30.5879 37.3472 30.9579 37.8035 30.9579C38.2598 30.9579 38.6299 30.5878 38.6299 30.1315V30.1268C38.6299 29.6704 38.2599 29.3027 37.8035 29.3027Z" fill="url(#paint2_linear)"/>
<path d="M20.5391 15.983C20.5391 16.811 21.2127 17.4846 22.0407 17.4846H24.338C24.8406 17.4846 25.2851 17.2356 25.5579 16.8554C26.223 17.1235 27.0003 17.2613 27.6539 17.2613H30.5441C32.6517 17.2613 34.3663 15.5477 34.3663 13.4414V11.3417C34.3663 9.82644 33.1325 8.59375 31.616 8.59375H30.8505V6.83066C30.8505 5.69362 29.9255 4.76855 28.7886 4.76855C27.4563 4.76855 26.964 6.05341 26.7781 6.5383L26.0639 8.41107C25.9595 8.68579 25.8626 8.84305 25.7446 8.93402C25.5321 8.3616 24.9826 7.95194 24.338 7.95194H22.0407C21.2127 7.95194 20.5391 8.62657 20.5391 9.4559V15.983ZM25.8396 10.6438C26.4528 10.5253 27.1565 10.1544 27.5971 8.9948L28.3105 7.12425C28.5845 6.40926 28.7275 6.40926 28.7885 6.40926C29.0208 6.40926 29.2099 6.59834 29.2099 6.83074V9.41415C29.2099 9.86712 29.5772 10.2345 30.0302 10.2345H31.616C32.2279 10.2345 32.7257 10.7312 32.7257 11.3418V13.4415C32.7257 14.6431 31.747 15.6208 30.544 15.6208H27.6538C26.9211 15.6208 26.2038 15.3918 25.8396 15.1747V10.6438ZM22.1797 9.59257H24.199V15.8441H22.1797V9.59257Z" fill="url(#paint3_linear)"/>
<path d="M40.1124 25.4284H29.6055C29.5535 24.7592 29.4573 24.0942 29.3155 23.4389C29.439 23.4201 29.5623 23.3992 29.6855 23.3764C35.9134 22.2138 40.0369 16.2009 38.8773 9.97269C38.3153 6.95451 36.612 4.33615 34.081 2.59988C31.5497 0.863361 28.4938 0.217037 25.4761 0.780264C24.5481 0.953022 23.6493 1.23611 22.8046 1.62182C22.3925 1.80992 22.2109 2.29653 22.399 2.70865C22.5871 3.12086 23.074 3.30231 23.4859 3.11422C24.2091 2.78412 24.9798 2.54156 25.7768 2.39308C28.3638 1.91057 30.983 2.46428 33.1529 3.95282C35.3226 5.4412 36.7828 7.68582 37.2645 10.273C38.2586 15.6123 34.7237 20.7671 29.3853 21.7636C27.6005 22.0951 25.7642 21.9295 24.0747 21.2851C23.8588 21.2028 23.6181 21.2152 23.4119 21.3197C21.9448 22.0625 20.3442 22.3094 18.6419 22.058C19.3329 20.6242 19.5343 19.3959 19.3983 17.7497C19.3873 17.6166 19.344 17.4882 19.2721 17.3755C18.5907 16.3094 18.1273 15.1338 17.8945 13.8813C17.5055 11.7951 17.7889 9.6859 18.714 7.78171C18.9121 7.37418 18.7423 6.88339 18.3347 6.68545C17.9274 6.48726 17.4364 6.65723 17.2385 7.06476C16.5081 8.56782 16.1218 10.1802 16.0876 11.8194C15.6677 11.7838 15.2459 11.7652 14.8258 11.7652C10.866 11.7652 7.14287 13.3072 4.34216 16.107C1.54211 18.9069 0 22.6299 0 26.5905C0 30.551 1.54211 34.2741 4.34183 37.0739C7.14172 39.8755 10.8649 41.4184 14.8257 41.4184C18.7883 41.4184 22.5122 39.8755 25.311 37.074C26.0509 36.334 26.7081 35.5224 27.273 34.6523C27.5158 34.7666 27.7867 34.8309 28.0723 34.8309H40.1124C41.1532 34.8309 42 33.9841 42 32.9432V27.3161C42 26.2752 41.1533 25.4284 40.1124 25.4284ZM19.1188 23.7625C19.3978 24.3746 19.544 25.0445 19.544 25.7234C19.544 28.3252 17.4274 30.4418 14.8257 30.4418C12.2239 30.4418 10.1072 28.3252 10.1072 25.7234C10.1072 23.1216 12.224 21.005 14.8257 21.005C15.614 21.005 16.3732 21.1972 17.0546 21.5639C16.9462 21.7749 16.8261 21.993 16.6903 22.2235C16.5596 22.4453 16.5407 22.7156 16.6391 22.9534C16.7375 23.1913 16.9418 23.3692 17.1911 23.4338C17.8444 23.6033 18.4871 23.7119 19.1188 23.7625ZM5.50216 35.914C0.361101 30.7729 0.361101 22.408 5.50208 17.2671C7.9928 14.777 11.304 13.4057 14.8258 13.4057C15.2749 13.4057 15.7262 13.4293 16.1741 13.4749C16.2033 13.7106 16.2376 13.9462 16.2815 14.1815C16.54 15.5727 17.0431 16.8832 17.7777 18.0803C17.8251 18.807 17.7891 19.4194 17.6463 20.0229C16.7756 19.5904 15.8177 19.3644 14.8257 19.3644C11.3192 19.3644 8.46661 22.217 8.46661 25.7234C8.46661 27.2922 9.03886 28.7291 9.98402 29.8393C7.72513 31.228 6.16366 33.5152 5.69141 36.0988C5.62792 36.0377 5.56459 35.9764 5.50216 35.914ZM14.8257 39.7778C12.0513 39.7778 9.40825 38.9259 7.19398 37.3468C7.33745 34.673 8.89161 32.2525 11.2696 30.9927C12.2853 31.6804 13.5094 32.0824 14.8257 32.0824C16.1423 32.0824 17.3666 31.6801 18.3825 30.9921C20.7611 32.2519 22.3157 34.6727 22.4592 37.347C20.2451 38.9259 17.6015 39.7778 14.8257 39.7778ZM24.1506 35.9143C24.0882 35.9767 24.0251 36.0379 23.9617 36.0988C23.4895 33.5147 21.9275 31.2271 19.668 29.8385C20.6127 28.7285 21.1847 27.2919 21.1847 25.7235C21.1847 25.0501 21.0772 24.383 20.8705 23.7484C21.893 23.6459 22.8806 23.3769 23.8273 22.9407C25.063 23.3681 26.3595 23.5781 27.6616 23.5687C27.8052 24.1816 27.9064 24.8043 27.9611 25.432C26.9731 25.4898 26.187 26.3127 26.187 27.3161V27.8941L23.8453 29.4458C23.616 29.5978 23.4781 29.8545 23.4781 30.1297C23.4781 30.4048 23.616 30.6615 23.8453 30.8135L26.187 32.3652V32.9433C26.187 33.0464 26.1956 33.1473 26.2115 33.2459C25.644 34.2151 24.9528 35.1121 24.1506 35.9143ZM40.3594 32.9432C40.3594 33.0771 40.2463 33.1902 40.1124 33.1902H28.0723C27.9398 33.1902 27.8277 33.0771 27.8277 32.9432V31.9247C27.8277 31.6496 27.6898 31.3929 27.4605 31.2409L25.7835 30.1296L27.4605 29.0182C27.6898 28.8662 27.8277 28.6095 27.8277 28.3344V27.316C27.8277 27.182 27.9398 27.0689 28.0723 27.0689H40.1124C40.2463 27.0689 40.3594 27.182 40.3594 27.316V32.9432Z" fill="url(#paint4_linear)"/>
<path d="M20.1299 5.25342C20.3405 5.25342 20.5513 5.17311 20.7117 5.01258C21.0321 4.69225 21.0321 4.17282 20.7117 3.85249C20.3913 3.53224 19.8721 3.53224 19.5517 3.85249L19.5494 3.85479C19.229 4.17512 19.2302 4.6934 19.5506 5.01373C19.7104 5.17369 19.9201 5.25342 20.1299 5.25342Z" fill="url(#paint5_linear)"/>
</g>
<defs>
<linearGradient id="paint0_linear" x1="31.2472" y1="30.9579" x2="29.5174" y2="30.8729" gradientUnits="userSpaceOnUse">
<stop stop-color="#2CA824"/>
<stop offset="1" stop-color="#45CF3C"/>
</linearGradient>
<linearGradient id="paint1_linear" x1="34.9375" y1="30.9579" x2="33.2076" y2="30.8729" gradientUnits="userSpaceOnUse">
<stop stop-color="#2CA824"/>
<stop offset="1" stop-color="#45CF3C"/>
</linearGradient>
<linearGradient id="paint2_linear" x1="38.6299" y1="30.9579" x2="36.9" y2="30.8729" gradientUnits="userSpaceOnUse">
<stop stop-color="#2CA824"/>
<stop offset="1" stop-color="#45CF3C"/>
</linearGradient>
<linearGradient id="paint3_linear" x1="34.3663" y1="17.4846" x2="19.9003" y2="16.7109" gradientUnits="userSpaceOnUse">
<stop stop-color="#2CA824"/>
<stop offset="1" stop-color="#45CF3C"/>
</linearGradient>
<linearGradient id="paint4_linear" x1="42" y1="41.4184" x2="-1.95351" y2="39.1947" gradientUnits="userSpaceOnUse">
<stop stop-color="#2CA824"/>
<stop offset="1" stop-color="#45CF3C"/>
</linearGradient>
<linearGradient id="paint5_linear" x1="20.952" y1="5.25342" x2="19.2331" y2="5.16881" gradientUnits="userSpaceOnUse">
<stop stop-color="#2CA824"/>
<stop offset="1" stop-color="#45CF3C"/>
</linearGradient>
<clipPath id="clip0">
<rect width="42" height="42" fill="white"/>
</clipPath>
</defs>
</svg>
