<svg width="55" height="52" fill="none">
  <path d="M6 50l2.5-16" stroke="url(#paint0_linear)" stroke-width="1.9" stroke-linecap="round"/>
  <path d="M11 50l2.5-16" stroke="url(#paint1_linear)" stroke-width="1.9" stroke-linecap="round"/>
  <path d="M16 50l2.5-16" stroke="url(#paint2_linear)" stroke-width="1.9" stroke-linecap="round"/>
  <path d="M21 50l2.5-16" stroke="url(#paint3_linear)" stroke-width="1.9" stroke-linecap="round"/>
  <path d="M26 50l2.5-16" stroke="url(#paint4_linear)" stroke-width="1.9" stroke-linecap="round"/>
  <path d="M31 50l2.5-16" stroke="url(#paint5_linear)" stroke-width="1.9" stroke-linecap="round"/>
  <path d="M36 50l2.5-16" stroke="url(#paint6_linear)" stroke-width="1.9" stroke-linecap="round"/>
  <path d="M41 50l2.5-16" stroke="url(#paint7_linear)" stroke-width="1.9" stroke-linecap="round"/>
  <path d="M46 50l2.5-16" stroke="url(#paint8_linear)" stroke-width="1.9" stroke-linecap="round"/>
  <path d="M1 50.5h52" stroke="url(#paint9_linear)" stroke-width="1.9" stroke-linecap="round" stroke-linejoin="round"/>
  <path d="M4 0c1.1 0 2 .2 2.6.7.6.5 1 1.1 1 2A2.3 2.3 0 017 4.2a2.4 2.4 0 01-1 .6l.7.3.6.5.4.7.1 1c0 .4 0 .8-.2 1.2l-.8 1-1.2.5-1.5.1a6.7 6.7 0 01-2.3-.4 2 2 0 01-.6-.4.8.8 0 01-.2-.5l.1-.5.4-.3 1 .5c.4.2.9.3 1.5.3.7 0 1.2-.2 1.6-.4.4-.3.6-.7.6-1.2S6 6.2 5.6 6c-.3-.3-.8-.4-1.5-.4H2.7l-.2-.3a1.6 1.6 0 010-.8l.2-.3H4c.7 0 1.1-.1 1.4-.4.3-.2.5-.6.5-1s-.2-.8-.5-1c-.4-.3-.9-.4-1.5-.4a3.8 3.8 0 00-2.2.7l-.3-.3a.8.8 0 010-1L2 .4 3 0 4 0z" fill="url(#paint10_linear)"/>
  <path d="M27.5.2l.1.3v.4c0 .5-.1.7-.5.7h-3.8L23 4.1a4 4 0 011.7-.3c.5 0 1 0 1.4.2.4.1.8.3 1 .6.3.3.6.6.7 1 .2.4.3.8.3 1.3s0 .9-.2 1.3a3 3 0 01-2 1.7c-.4.2-1 .3-1.5.3a6 6 0 01-2.3-.5c-.3 0-.5-.2-.6-.4a.8.8 0 010-1c0-.2.2-.3.3-.4l1 .6c.4.2 1 .3 1.5.3.7 0 1.2-.2 1.5-.5.4-.4.6-.8.6-1.4 0-.6-.2-1-.6-1.3a2 2 0 00-1.4-.5c-.4 0-.7 0-1 .2l-.7.3c-.4 0-.7 0-.9-.3a1 1 0 01-.3-.7v-.2V4l.3-2.8c0-.3 0-.5.2-.7.2-.2.4-.3.7-.3h4.8z" fill="url(#paint11_linear)"/>
  <path d="M44.8 10h-.3a2 2 0 01-.5 0l-.7-.1-.2-.6V1.8l-2 .9a1 1 0 01-.3-.3.8.8 0 01-.1-.5l.1-.5c.1-.2.3-.3.6-.4l2.1-.9h.4c.3 0 .5.1.7.3l.2.6v9z" fill="url(#paint12_linear)"/>
  <path d="M53.2 5l-.1-1.6-.5-1.1-.7-.7-.9-.2c-.3 0-.6 0-.9.2a2 2 0 00-.7.7L49 3.5 48.8 5c0 1.2.2 2.1.6 2.7.4.7.9 1 1.6 1 .7 0 1.3-.3 1.7-1 .3-.6.5-1.5.5-2.7zM51 10.3c-.6 0-1.1-.1-1.6-.3-.5-.2-.9-.6-1.2-1-.4-.4-.6-1-.8-1.6-.2-.6-.3-1.4-.3-2.2 0-1 0-1.7.3-2.3.2-.7.5-1.2.9-1.6.3-.4.7-.7 1.2-.9a4 4 0 013 0c.5.2 1 .5 1.3 1 .3.3.6.9.8 1.5a7.8 7.8 0 010 4.5c-.1.7-.4 1.2-.7 1.6-.4.4-.8.8-1.3 1a4 4 0 01-1.6.3z" fill="url(#paint13_linear)"/>
  <path d="M11.1 5h6m0 0l-2-2m2 2l-2 2" stroke="url(#paint14_linear)" stroke-width="1.2" stroke-linecap="round" stroke-linejoin="round"/>
  <path d="M32.1 5h6m0 0l-2-2m2 2l-2 2" stroke="url(#paint15_linear)" stroke-width="1.2" stroke-linecap="round" stroke-linejoin="round"/>
  <path d="M16.1 26.6h-.6a.8.8 0 01-.4-.5v-.6c0-.2.2-.3.4-.4a3.3 3.3 0 01.4-.2h.2l.4-.8.2-1.7a36.5 36.5 0 000-3.6l.2-.5.5-.2a66.4 66.4 0 014.7 0c.3 0 .4 0 .6.2l.2.6a17.9 17.9 0 01-.2 2.5 80 80 0 00-.4 4.9l-.5.2c-.2 0-.4 0-.6-.2a84.4 84.4 0 010-6.3v-.4h-2.9a27 27 0 01-.3 4.9c-.2.7-.5 1.3-1 1.6a2.3 2.3 0 01-.8.4h-.1z" fill="url(#paint16_linear)"/>
  <path d="M31.4 25.2l-1.2 1-1.4.3h-1.3l-1.2-.5-1-.9c-.4-.3-.6-.7-.8-1a5 5 0 01-.2-1.5c0-.5 0-1 .3-1.5.4-1.1 1-2 1.8-2.5s1.7-.7 2.6-.6c1 .1 1.8.5 2.4 1.3.6.8 1 1.7 1 3 0 .2-.2.5-.5.6l-.5.2c-1.3-.2-3.1-.2-5.4 0 0 .4.3.8.6 1 .3.4.7.6 1 .8H29c.4-.1.9-.4 1.2-.8l.6-.2c.2 0 .4 0 .6.2l.2.6c0 .2 0 .4-.2.5zm-5.2-3.8h4.5c-.2-.6-.4-1-.7-1.3-.4-.3-.7-.5-1.2-.5s-1 0-1.5.3a3 3 0 00-1.1 1.5z" fill="url(#paint17_linear)"/>
  <path d="M37.2 25.7c0 .3 0 .4-.2.6l-.6.2c-.2 0-.4 0-.6-.2a109.7 109.7 0 00-.2-6.6 44.6 44.6 0 01-2.5-.3.8.8 0 01-.2-.6c0-.2 0-.4.2-.5l.6-.3a125.4 125.4 0 006 .3c.2.1.3.3.3.5 0 .3 0 .5-.2.6-.1.2-.3.3-.5.3h-2.1v6z" fill="url(#paint18_linear)"/>
  <defs>
    <linearGradient id="paint0_linear" x1="8.5" y1="50" x2="5.9" y2="49.9" gradientUnits="userSpaceOnUse">
      <stop offset="0" stop-color="#2CA824"/>
      <stop offset="1" stop-color="#45CF3C"/>
    </linearGradient>
    <linearGradient id="paint1_linear" x1="13.5" y1="50" x2="10.9" y2="49.9" gradientUnits="userSpaceOnUse">
      <stop offset="0" stop-color="#2CA824"/>
      <stop offset="1" stop-color="#45CF3C"/>
    </linearGradient>
    <linearGradient id="paint2_linear" x1="18.5" y1="50" x2="15.9" y2="49.9" gradientUnits="userSpaceOnUse">
      <stop offset="0" stop-color="#2CA824"/>
      <stop offset="1" stop-color="#45CF3C"/>
    </linearGradient>
    <linearGradient id="paint3_linear" x1="23.5" y1="50" x2="20.9" y2="49.9" gradientUnits="userSpaceOnUse">
      <stop offset="0" stop-color="#2CA824"/>
      <stop offset="1" stop-color="#45CF3C"/>
    </linearGradient>
    <linearGradient id="paint4_linear" x1="28.5" y1="50" x2="25.9" y2="49.9" gradientUnits="userSpaceOnUse">
      <stop offset="0" stop-color="#2CA824"/>
      <stop offset="1" stop-color="#45CF3C"/>
    </linearGradient>
    <linearGradient id="paint5_linear" x1="33.5" y1="50" x2="30.9" y2="49.9" gradientUnits="userSpaceOnUse">
      <stop offset="0" stop-color="#2CA824"/>
      <stop offset="1" stop-color="#45CF3C"/>
    </linearGradient>
    <linearGradient id="paint6_linear" x1="38.5" y1="50" x2="35.9" y2="49.9" gradientUnits="userSpaceOnUse">
      <stop offset="0" stop-color="#2CA824"/>
      <stop offset="1" stop-color="#45CF3C"/>
    </linearGradient>
    <linearGradient id="paint7_linear" x1="43.5" y1="50" x2="40.9" y2="49.9" gradientUnits="userSpaceOnUse">
      <stop offset="0" stop-color="#2CA824"/>
      <stop offset="1" stop-color="#45CF3C"/>
    </linearGradient>
    <linearGradient id="paint8_linear" x1="48.5" y1="50" x2="45.9" y2="49.9" gradientUnits="userSpaceOnUse">
      <stop offset="0" stop-color="#2CA824"/>
      <stop offset="1" stop-color="#45CF3C"/>
    </linearGradient>
    <linearGradient id="paint9_linear" x1="53" y1="51.5" x2="45.8" y2="33" gradientUnits="userSpaceOnUse">
      <stop offset="0" stop-color="#2CA824"/>
      <stop offset="1" stop-color="#45CF3C"/>
    </linearGradient>
    <linearGradient id="paint10_linear" x1="55" y1="10.2" x2="2" y2="-3.6" gradientUnits="userSpaceOnUse">
      <stop offset="0" stop-color="#2CA824"/>
      <stop offset="1" stop-color="#45CF3C"/>
    </linearGradient>
    <linearGradient id="paint11_linear" x1="55" y1="10.2" x2="2" y2="-3.6" gradientUnits="userSpaceOnUse">
      <stop offset="0" stop-color="#2CA824"/>
      <stop offset="1" stop-color="#45CF3C"/>
    </linearGradient>
    <linearGradient id="paint12_linear" x1="55" y1="10.2" x2="2" y2="-3.6" gradientUnits="userSpaceOnUse">
      <stop offset="0" stop-color="#2CA824"/>
      <stop offset="1" stop-color="#45CF3C"/>
    </linearGradient>
    <linearGradient id="paint13_linear" x1="55" y1="10.2" x2="2" y2="-3.6" gradientUnits="userSpaceOnUse">
      <stop offset="0" stop-color="#2CA824"/>
      <stop offset="1" stop-color="#45CF3C"/>
    </linearGradient>
    <linearGradient id="paint14_linear" x1="17.1" y1="7" x2="10.9" y2="6.5" gradientUnits="userSpaceOnUse">
      <stop offset="0" stop-color="#2CA824"/>
      <stop offset="1" stop-color="#45CF3C"/>
    </linearGradient>
    <linearGradient id="paint15_linear" x1="38.1" y1="7" x2="31.9" y2="6.5" gradientUnits="userSpaceOnUse">
      <stop offset="0" stop-color="#2CA824"/>
      <stop offset="1" stop-color="#45CF3C"/>
    </linearGradient>
    <linearGradient id="paint16_linear" x1="40" y1="26.6" x2="14.3" y2="23" gradientUnits="userSpaceOnUse">
      <stop offset="0" stop-color="#2CA824"/>
      <stop offset="1" stop-color="#45CF3C"/>
    </linearGradient>
    <linearGradient id="paint17_linear" x1="40" y1="26.6" x2="14.3" y2="23" gradientUnits="userSpaceOnUse">
      <stop offset="0" stop-color="#2CA824"/>
      <stop offset="1" stop-color="#45CF3C"/>
    </linearGradient>
    <linearGradient id="paint18_linear" x1="40" y1="26.6" x2="14.3" y2="23" gradientUnits="userSpaceOnUse">
      <stop offset="0" stop-color="#2CA824"/>
      <stop offset="1" stop-color="#45CF3C"/>
    </linearGradient>
  </defs>
</svg>
