<svg width="40" height="40" fill="none">
  <g clip-path="url(#clip0)">
    <path d="M37.3 20.5v-1l1.5-3c.9-1.8.2-3.8-1.5-4.7l-3-1.6c-.3-.1-.5-.5-.6-.8L33.1 6c-.3-1.8-2-3-3.9-2.8l-3.3.5c-.4 0-.8-.1-1-.4L22.4 1a3.5 3.5 0 00-4.8 0L15 3.3c-.2.3-.6.4-1 .4l-3.3-.5c-1.9-.3-3.6 1-4 2.8l-.5 3.4c0 .3-.3.7-.6.8l-3 1.6c-1.7 1-2.4 3-1.5 4.6l1.5 3v1.1l-1.5 3a3.5 3.5 0 001.5 4.7l3 1.6c.3.1.5.5.6.8l.6 3.4a3.5 3.5 0 003.9 2.8l3.3-.5c.4 0 .8.1 1 .4l2.5 2.3a3.5 3.5 0 004.8 0l2.5-2.3c.2-.3.6-.4 1-.4l3.3.5c1.9.3 3.6-1 4-2.8l.5-3.4c0-.3.3-.7.6-.8l3-1.6c1.7-.9 2.4-3 1.5-4.6l-1.5-3zm-1 5.6l-3 1.6c-1 .5-1.7 1.4-1.8 2.5l-.6 3.4c-.1.6-.7 1-1.4 1l-3.3-.6c-1.1-.1-2.2.2-3 1l-2.4 2.4c-.4.4-1.2.4-1.6 0L16.7 35a3.5 3.5 0 00-2.9-1l-3.3.5c-.7.1-1.3-.3-1.4-1l-.6-3.3c-.1-1-.8-2-1.8-2.5l-3-1.6c-.5-.3-.7-1-.5-1.5l1.5-3c.5-1 .5-2.2 0-3.1l-1.5-3c-.2-.7 0-1.3.5-1.6l3-1.6c1-.5 1.7-1.4 1.8-2.5l.6-3.4c.1-.6.7-1 1.4-1l3.3.6c1.1.1 2.2-.2 3-1l2.4-2.4c.4-.4 1.2-.4 1.6 0L23.3 5c.7.8 1.8 1.1 2.9 1l3.3-.5c.7-.1 1.3.3 1.4 1l.6 3.3c.1 1 .8 2 1.8 2.5l3 1.6c.5.3.7 1 .5 1.5l-1.5 3c-.5 1-.5 2.2 0 3.1l1.5 3c.2.7 0 1.3-.5 1.6z" fill="url(#paint0_linear)"/>
    <path d="M28.4 11.6c-.4-.5-1.2-.5-1.6 0L11.6 26.8a1.2 1.2 0 001.6 1.6l15.2-15.2c.5-.4.5-1.2 0-1.6z" fill="url(#paint1_linear)"/>
    <path d="M15.4 9.6a4.2 4.2 0 100 8.5 4.2 4.2 0 000-8.5zm0 6.2a2 2 0 110-3.9 2 2 0 010 3.9z" fill="url(#paint2_linear)"/>
    <path d="M24.6 22a4.2 4.2 0 100 8.4 4.2 4.2 0 000-8.5zm0 6a2 2 0 110-3.8 2 2 0 010 3.9z" fill="url(#paint3_linear)"/>
  </g>
  <defs>
    <linearGradient id="paint0_linear" x1="39.2" y1="40" x2="-1" y2="38.1" gradientUnits="userSpaceOnUse">
      <stop offset="0" stop-color="#2CA824"/>
      <stop offset="1" stop-color="#45CF3C"/>
    </linearGradient>
    <linearGradient id="paint1_linear" x1="28.8" y1="28.8" x2="10.4" y2="27.9" gradientUnits="userSpaceOnUse">
      <stop offset="0" stop-color="#2CA824"/>
      <stop offset="1" stop-color="#45CF3C"/>
    </linearGradient>
    <linearGradient id="paint2_linear" x1="19.6" y1="18.1" x2="10.8" y2="17.6" gradientUnits="userSpaceOnUse">
      <stop offset="0" stop-color="#2CA824"/>
      <stop offset="1" stop-color="#45CF3C"/>
    </linearGradient>
    <linearGradient id="paint3_linear" x1="28.8" y1="30.4" x2="20" y2="29.9" gradientUnits="userSpaceOnUse">
      <stop offset="0" stop-color="#2CA824"/>
      <stop offset="1" stop-color="#45CF3C"/>
    </linearGradient>
    <clipPath id="clip0">
      <path fill="#fff" d="M0 0h40v40H0z"/>
    </clipPath>
  </defs>
</svg>
