<svg width="19" height="44" fill="none">
  <path d="M13.9 27.4l-.2-.2c-.4-.4-1-.3-1.4.1-.4.4-.3 1 .1 1.4l.4.3a7 7 0 01.9 11.1 6.9 6.9 0 01-5.5 1.7 7.1 7.1 0 01-6.1-6c-.3-2.7.9-5.3 3.2-6.8a4 4 0 001.8-3.4V4c0-1.1.9-2 2-2a2 2 0 012 2v20c0 .6.4 1 1 1h4c.6 0 1-.4 1-1s-.4-1-1-1h-3v-2h1c.6 0 1-.4 1-1s-.4-1-1-1h-1v-2h3c.6 0 1-.4 1-1s-.4-1-1-1h-3v-2h1c.6 0 1-.4 1-1s-.4-1-1-1h-1V9h3c.6 0 1-.4 1-1s-.4-1-1-1h-3V4a4 4 0 00-4-4 4 4 0 00-4 4v21.8c0 .7-.3 1.3-.8 1.7a9 9 0 003.8 16.6l1 .1c2.2 0 4.4-.8 6-2.3 1.9-1.7 3-4.2 3-6.7a9.4 9.4 0 00-4.2-7.8z" fill="url(#paint0_linear)"/>
  <path d="M9 21c-.6 0-1 .4-1 1v8.1A5 5 0 004 35a5 5 0 005 5 5 5 0 005-5 5 5 0 00-4-4.9V22c0-.6-.4-1-1-1zm3 14a3 3 0 01-3 3 3 3 0 01-3-3 3 3 0 013-3 3 3 0 013 3z" fill="url(#paint1_linear)"/>
  <defs>
    <linearGradient id="paint0_linear" x1="18.1" y1="44.2" x2="-.7" y2="43.8" gradientUnits="userSpaceOnUse">
      <stop offset="0" stop-color="#2CA824"/>
      <stop offset="1" stop-color="#45CF3C"/>
    </linearGradient>
    <linearGradient id="paint1_linear" x1="14" y1="40" x2="3.5" y2="39.7" gradientUnits="userSpaceOnUse">
      <stop offset="0" stop-color="#2CA824"/>
      <stop offset="1" stop-color="#45CF3C"/>
    </linearGradient>
  </defs>
</svg>
