<svg width="55" height="55" fill="none">
  <path d="M42.1 25.3c0 .5.4.9.9.9m0 0c.4 0 1.3 0 2.3.2l2.5.6c.4.2.9 0 1.1-.4v0c0-.2.2-.5 0-.8a1 1 0 00-.4-.4v0a12 12 0 00-3.4-.8 22 22 0 00-2.1-.1c-.5 0-.9.4-.9.8" fill="url(#paint0_linear)" stroke="url(#paint1_linear)" stroke-width=".1"/>
  <mask id="a" maskUnits="userSpaceOnUse" x="-1" y="6.3" width="57" height="42" fill="#000">
    <path fill="#fff" d="M-1 6.3h57v42H-1z"/>
    <path d="M52.5 37l-3.3-1a.3.3 0 01-.2-.3v-1.1a6 6 0 002.6-5v-1.5l.3-.6a6 6 0 00.5-2.3V21c0-.4-.3-.8-.8-.8H44a5.1 5.1 0 00-5.2 5.1c0 .8.2 1.4.5 2l.4.8v1.3c0 2.1 1 4 2.6 5.1v1.2c0 .2 0 .2-.7.4l-1.6.5-4.7-1.7c0-.2 0-.5-.2-.6l-1.5-1.6V30l.5-.4c1.8-1.7 3-4.2 3-6.8v-2.2c.5-1.2.8-2.5.8-3.9V8.1c0-.4-.4-.8-.8-.8H25a7.7 7.7 0 00-7.8 7.7v1.7c0 1.4.3 2.7.9 4v1.8c0 3 1.3 5.7 3.4 7.5v2.7L20 34.3l-.2.6-5 1.8-1 .5-.7-.4c2.3-1 3-2.4 3-2.5.2-.2.2-.5 0-.7-.5-1.2-.6-3.3-.6-5l-.1-1.6c-.3-3.9-3.2-6.8-6.8-6.8-3.7 0-6.6 3-6.9 6.8v1.6c-.1 1.7-.2 3.8-.8 5v.7s.8 1.5 3.1 2.5L2 38a3.4 3.4 0 00-1.9 3v6a.8.8 0 001.6 0v-6c0-.6.4-1.3 1-1.6L5.3 38l1 .9a3.4 3.4 0 004.6 0l1-1 .8.5c-.4.7-.6 1.5-.6 2.3v6.2a.8.8 0 001.6 0v-6.2c0-1.1.7-2.1 1.7-2.5l5.2-1.9 2.2 3.3a1.7 1.7 0 002.6.2l1.3-1.3v8.4a.8.8 0 001.6 0v-8.4l1.3 1.3a1.7 1.7 0 002.6-.2l2.2-3.3 5.2 1.9c1 .4 1.7 1.4 1.7 2.5v6.2a.8.8 0 001.7 0v-6.2c0-1.1-.5-2.2-1.2-3h.2l.7-.3 2 2V47a.8.8 0 001.7 0v-7.4l2-2h.4l3.3 1c.8.2 1.3 1 1.3 1.7V47a.8.8 0 001.6 0v-6.7c0-1.5-1-2.8-2.5-3.2zM5.2 35.5A5.8 5.8 0 012.6 34l.4-2a6 6 0 002.2 2.7v1zm4.6 2.2c-.7.7-1.8.7-2.5 0l-.7-.7.2-.8v-.8a6 6 0 003.5 0v.8l.2.8-.7.7zM8.6 34c-2.4 0-4.4-2-4.4-4.3a.8.8 0 00-1-.8v-.2l.1-1.6A6 6 0 015 23.4a5 5 0 017.2 0 6 6 0 011.6 3.7v1.7a7.2 7.2 0 00-4-3c-1.5-.4-3-.4-3-.4l-.5.2-1.5 1.6a.8.8 0 101.2 1L7.2 27c1 0 4.4.5 5.7 3.3A4.4 4.4 0 018.6 34zm3.3 1.5v-1a6 6 0 002.2-2.6c0 .7.2 1.4.4 2-.3.4-1 1-2.6 1.6zm7.8-13v-2.4c-.6-1-.9-2.2-.9-3.4V15A6 6 0 0125 9h11.3v7.7a8 8 0 01-.8 3.4v2.7a7.7 7.7 0 01-3.2 6.2 7.7 7.7 0 01-5.2 1.6 8 8 0 01-7.3-8.1zm4.5 16.2l-2.6-3.8.9-.8 3.8 2.6-2 2zm3.3-3.1l-4.4-3V31a9 9 0 004.4 1c1.6 0 3-.3 4.4-1v1.5l-4.4 3zm3.4 3c-.1.1-.1 0-.1 0l-2-2 3.8-2.5.8.8-2.5 3.8zm14.7-.6l-1.8-1.8v-.9a5.6 5.6 0 003.6 0v.9L45.6 38zm3-5.2c-.8.8-2 1.3-3.2 1.2a4.5 4.5 0 01-4.2-4.6v-1.7l-.6-1-.2-1.2c0-2 1.5-3.6 3.5-3.6h6.9v3.4c0 .5-.1 1-.4 1.6l-.4.8v2.1c0 1.1-.5 2.3-1.4 3z"/>
  </mask>
  <path d="M52.5 37l-3.3-1a.3.3 0 01-.2-.3v-1.1a6 6 0 002.6-5v-1.5l.3-.6a6 6 0 00.5-2.3V21c0-.4-.3-.8-.8-.8H44a5.1 5.1 0 00-5.2 5.1c0 .8.2 1.4.5 2l.4.8v1.3c0 2.1 1 4 2.6 5.1v1.2c0 .2 0 .2-.7.4l-1.6.5-4.7-1.7c0-.2 0-.5-.2-.6l-1.5-1.6V30l.5-.4c1.8-1.7 3-4.2 3-6.8v-2.2c.5-1.2.8-2.5.8-3.9V8.1c0-.4-.4-.8-.8-.8H25a7.7 7.7 0 00-7.8 7.7v1.7c0 1.4.3 2.7.9 4v1.8c0 3 1.3 5.7 3.4 7.5v2.7L20 34.3l-.2.6-5 1.8-1 .5-.7-.4c2.3-1 3-2.4 3-2.5.2-.2.2-.5 0-.7-.5-1.2-.6-3.3-.6-5l-.1-1.6c-.3-3.9-3.2-6.8-6.8-6.8-3.7 0-6.6 3-6.9 6.8v1.6c-.1 1.7-.2 3.8-.8 5v.7s.8 1.5 3.1 2.5L2 38a3.4 3.4 0 00-1.9 3v6a.8.8 0 001.6 0v-6c0-.6.4-1.3 1-1.6L5.3 38l1 .9a3.4 3.4 0 004.6 0l1-1 .8.5c-.4.7-.6 1.5-.6 2.3v6.2a.8.8 0 001.6 0v-6.2c0-1.1.7-2.1 1.7-2.5l5.2-1.9 2.2 3.3a1.7 1.7 0 002.6.2l1.3-1.3v8.4a.8.8 0 001.6 0v-8.4l1.3 1.3a1.7 1.7 0 002.6-.2l2.2-3.3 5.2 1.9c1 .4 1.7 1.4 1.7 2.5v6.2a.8.8 0 001.7 0v-6.2c0-1.1-.5-2.2-1.2-3h.2l.7-.3 2 2V47a.8.8 0 001.7 0v-7.4l2-2h.4l3.3 1c.8.2 1.3 1 1.3 1.7V47a.8.8 0 001.6 0v-6.7c0-1.5-1-2.8-2.5-3.2zM5.2 35.5A5.8 5.8 0 012.6 34l.4-2a6 6 0 002.2 2.7v1zm4.6 2.2c-.7.7-1.8.7-2.5 0l-.7-.7.2-.8v-.8a6 6 0 003.5 0v.8l.2.8-.7.7zM8.6 34c-2.4 0-4.4-2-4.4-4.3a.8.8 0 00-1-.8v-.2l.1-1.6A6 6 0 015 23.4a5 5 0 017.2 0 6 6 0 011.6 3.7v1.7a7.2 7.2 0 00-4-3c-1.5-.4-3-.4-3-.4l-.5.2-1.5 1.6a.8.8 0 101.2 1L7.2 27c1 0 4.4.5 5.7 3.3A4.4 4.4 0 018.6 34zm3.3 1.5v-1a6 6 0 002.2-2.6c0 .7.2 1.4.4 2-.3.4-1 1-2.6 1.6zm7.8-13v-2.4c-.6-1-.9-2.2-.9-3.4V15A6 6 0 0125 9h11.3v7.7a8 8 0 01-.8 3.4v2.7a7.7 7.7 0 01-3.2 6.2 7.7 7.7 0 01-5.2 1.6 8 8 0 01-7.3-8.1zm4.5 16.2l-2.6-3.8.9-.8 3.8 2.6-2 2zm3.3-3.1l-4.4-3V31a9 9 0 004.4 1c1.6 0 3-.3 4.4-1v1.5l-4.4 3zm3.4 3c-.1.1-.1 0-.1 0l-2-2 3.8-2.5.8.8-2.5 3.8zm14.7-.6l-1.8-1.8v-.9a5.6 5.6 0 003.6 0v.9L45.6 38zm3-5.2c-.8.8-2 1.3-3.2 1.2a4.5 4.5 0 01-4.2-4.6v-1.7l-.6-1-.2-1.2c0-2 1.5-3.6 3.5-3.6h6.9v3.4c0 .5-.1 1-.4 1.6l-.4.8v2.1c0 1.1-.5 2.3-1.4 3z" fill="url(#paint2_linear)"/>
  <path d="M52.5 37l-3.3-1a.3.3 0 01-.2-.3v-1.1a6 6 0 002.6-5v-1.5l.3-.6a6 6 0 00.5-2.3V21c0-.4-.3-.8-.8-.8H44a5.1 5.1 0 00-5.2 5.1v0c0 .8.2 1.4.5 2l.4.8v1.3c0 2.1 1 4 2.6 5.1v1.2c0 .2 0 .2-.7.4l-1.6.5-4.7-1.7c0-.2 0-.5-.2-.6l-1.5-1.6V30l.5-.4c1.8-1.7 3-4.2 3-6.8v-2.2c.5-1.2.8-2.5.8-3.9V8.1c0-.4-.4-.8-.8-.8H25a7.7 7.7 0 00-7.8 7.7v1.7c0 1.4.3 2.7.9 4v1.8c0 3 1.3 5.7 3.4 7.5v2.7L20 34.3l-.2.6-5 1.8-1 .5-.7-.4c2.3-1 3-2.4 3-2.5.2-.2.2-.5 0-.7-.5-1.2-.6-3.3-.6-5l-.1-1.6c-.3-3.9-3.2-6.8-6.8-6.8-3.7 0-6.6 3-6.9 6.8v1.6c-.1 1.7-.2 3.8-.8 5v.7s.8 1.5 3.1 2.5L2 38a3.4 3.4 0 00-1.9 3v6a.8.8 0 001.6 0v-6c0-.6.4-1.3 1-1.6L5.3 38l1 .9a3.4 3.4 0 004.6 0l1-1 .8.5c-.4.7-.6 1.5-.6 2.3v6.2a.8.8 0 001.6 0v-6.2c0-1.1.7-2.1 1.7-2.5l5.2-1.9 2.2 3.3a1.7 1.7 0 002.6.2l1.3-1.3v8.4a.8.8 0 001.6 0v-8.4l1.3 1.3a1.7 1.7 0 002.6-.2l2.2-3.3 5.2 1.9c1 .4 1.7 1.4 1.7 2.5v6.2a.8.8 0 001.7 0v-6.2c0-1.1-.5-2.2-1.2-3h.2l.7-.3 2 2V47a.8.8 0 001.7 0v-7.4l2-2h.4l3.3 1c.8.2 1.3 1 1.3 1.7V47a.8.8 0 001.6 0v-6.7c0-1.5-1-2.8-2.5-3.2zM5.2 35.5A5.8 5.8 0 012.6 34l.4-2a6 6 0 002.2 2.7v1zm4.6 2.2c-.7.7-1.8.7-2.5 0l-.7-.7.2-.8v-.8a6 6 0 003.5 0v.8l.2.8-.7.7zM8.6 34c-2.4 0-4.4-2-4.4-4.3a.8.8 0 00-1-.8v-.2l.1-1.6A6 6 0 015 23.4a5 5 0 017.2 0 6 6 0 011.6 3.7v1.7a7.2 7.2 0 00-4-3c-1.5-.4-3-.4-3-.4l-.5.2-1.5 1.6a.8.8 0 101.2 1L7.2 27c1 0 4.4.5 5.7 3.3A4.4 4.4 0 018.6 34zm3.3 1.5v-1a6 6 0 002.2-2.6c0 .7.2 1.4.4 2-.3.4-1 1-2.6 1.6zm7.8-13v-2.4c-.6-1-.9-2.2-.9-3.4V15A6 6 0 0125 9h11.3v7.7a8 8 0 01-.8 3.4v2.7a7.7 7.7 0 01-3.2 6.2s0 0 0 0a7.7 7.7 0 01-5.2 1.6 8 8 0 01-7.3-8.1zm4.5 16.2s0 0 0 0 0 0 0 0l-2.6-3.8.9-.8 3.8 2.6-2 2zm3.3-3.1l-4.4-3V31a9 9 0 004.4 1c1.6 0 3-.3 4.4-1v1.5l-4.4 3zm3.4 3s0 0 0 0c-.1.1-.1 0-.1 0l-2-2 3.8-2.5.8.8-2.5 3.8zm14.7-.6l-1.8-1.8v-.9a5.6 5.6 0 003.6 0v.9L45.6 38zm3-5.2c-.8.8-2 1.3-3.2 1.2a4.5 4.5 0 01-4.2-4.6v-1.7l-.6-1-.2-1.2v0c0-2 1.5-3.6 3.5-3.6h6.9v3.4c0 .5-.1 1-.4 1.6l-.4.8v2.1c0 1.1-.5 2.3-1.4 3z" stroke="url(#paint3_linear)" stroke-width=".2" mask="url(#a)"/>
  <path d="M50.7 40.9c-.4 0-.8.3-.8.8V47a.9.9 0 001.7 0v-5.2c0-.5-.4-.8-.9-.8z" fill="url(#paint4_linear)" stroke="url(#paint5_linear)" stroke-width=".1"/>
  <path d="M4.3 42c-.5 0-.9.3-.9.8v4a.9.9 0 101.7 0v-4c0-.5-.4-.9-.8-.9z" fill="url(#paint6_linear)" stroke="url(#paint7_linear)" stroke-width=".1"/>
  <path d="M34.1 18.2c.4-.3.4-.9 0-1.2a10 10 0 00-6.2-2.4c-2.3-.1-4.5.1-5.8.3-.9.1-1.5.8-1.5 1.7v1.9c.3.8 1.4.8 1.7 0v-1.9c1.8-.3 5.3-.3 5.3-.3v0c3.3.2 5.5 2 5.5 2 .2.2.7.2 1-.1m0 0v0m0 0v0" fill="url(#paint8_linear)" stroke="url(#paint9_linear)" stroke-width=".1"/>
  <path d="M18 42.6c-.4 0-.8.4-.8.8V47a.9.9 0 001.7 0v-3.5c0-.4-.4-.8-.9-.8z" fill="url(#paint10_linear)" stroke="url(#paint11_linear)" stroke-width=".1"/>
  <path d="M37 42.6c-.5 0-.9.4-.9.8V47a.9.9 0 001.7 0v-3.5c0-.4-.3-.8-.8-.8z" fill="url(#paint12_linear)" stroke="url(#paint13_linear)" stroke-width=".1"/>
  <defs id="defs1585">
    <linearGradient id="paint0_linear" x1="49" y1="27" x2="42" y2="26.1" gradientUnits="userSpaceOnUse">
      <stop offset="0" stop-color="#2CA824" id="stop1515"/>
      <stop offset="1" stop-color="#45CF3C" id="stop1517"/>
    </linearGradient>
    <linearGradient id="paint1_linear" x1="49" y1="27" x2="42" y2="26.1" gradientUnits="userSpaceOnUse">
      <stop offset="0" stop-color="#2CA824" id="stop1520"/>
      <stop offset="1" stop-color="#45CF3C" id="stop1522"/>
    </linearGradient>
    <linearGradient id="paint2_linear" x1="55" y1="47.7" x2="-2.4" y2="43.8" gradientUnits="userSpaceOnUse">
      <stop offset="0" stop-color="#2CA824" id="stop1525"/>
      <stop offset="1" stop-color="#45CF3C" id="stop1527"/>
    </linearGradient>
    <linearGradient id="paint3_linear" x1="55" y1="47.7" x2="-2.4" y2="43.8" gradientUnits="userSpaceOnUse">
      <stop offset="0" stop-color="#2CA824" id="stop1530"/>
      <stop offset="1" stop-color="#45CF3C" id="stop1532"/>
    </linearGradient>
    <linearGradient id="paint4_linear" x1="51.6" y1="47.7" x2="49.9" y2="47.7" gradientUnits="userSpaceOnUse">
      <stop offset="0" stop-color="#2CA824" id="stop1535"/>
      <stop offset="1" stop-color="#45CF3C" id="stop1537"/>
    </linearGradient>
    <linearGradient id="paint5_linear" x1="51.6" y1="47.7" x2="49.9" y2="47.7" gradientUnits="userSpaceOnUse">
      <stop offset="0" stop-color="#2CA824" id="stop1540"/>
      <stop offset="1" stop-color="#45CF3C" id="stop1542"/>
    </linearGradient>
    <linearGradient id="paint6_linear" x1="5.1" y1="47.7" x2="3.4" y2="47.7" gradientUnits="userSpaceOnUse">
      <stop offset="0" stop-color="#2CA824" id="stop1545"/>
      <stop offset="1" stop-color="#45CF3C" id="stop1547"/>
    </linearGradient>
    <linearGradient id="paint7_linear" x1="5.1" y1="47.7" x2="3.4" y2="47.7" gradientUnits="userSpaceOnUse">
      <stop offset="0" stop-color="#2CA824" id="stop1550"/>
      <stop offset="1" stop-color="#45CF3C" id="stop1552"/>
    </linearGradient>
    <linearGradient id="paint8_linear" x1="34.3" y1="19.3" x2="20.3" y2="17.2" gradientUnits="userSpaceOnUse">
      <stop offset="0" stop-color="#2CA824" id="stop1555"/>
      <stop offset="1" stop-color="#45CF3C" id="stop1557"/>
    </linearGradient>
    <linearGradient id="paint9_linear" x1="34.3" y1="19.3" x2="20.3" y2="17.2" gradientUnits="userSpaceOnUse">
      <stop offset="0" stop-color="#2CA824" id="stop1560"/>
      <stop offset="1" stop-color="#45CF3C" id="stop1562"/>
    </linearGradient>
    <linearGradient id="paint10_linear" x1="18.8" y1="47.7" x2="17.1" y2="47.7" gradientUnits="userSpaceOnUse">
      <stop offset="0" stop-color="#2CA824" id="stop1565"/>
      <stop offset="1" stop-color="#45CF3C" id="stop1567"/>
    </linearGradient>
    <linearGradient id="paint11_linear" x1="18.8" y1="47.7" x2="17.1" y2="47.7" gradientUnits="userSpaceOnUse">
      <stop offset="0" stop-color="#2CA824" id="stop1570"/>
      <stop offset="1" stop-color="#45CF3C" id="stop1572"/>
    </linearGradient>
    <linearGradient id="paint12_linear" x1="37.8" y1="47.7" x2="36.1" y2="47.7" gradientUnits="userSpaceOnUse">
      <stop offset="0" stop-color="#2CA824" id="stop1575"/>
      <stop offset="1" stop-color="#45CF3C" id="stop1577"/>
    </linearGradient>
    <linearGradient id="paint13_linear" x1="37.8" y1="47.7" x2="36.1" y2="47.7" gradientUnits="userSpaceOnUse">
      <stop offset="0" stop-color="#2CA824" id="stop1580"/>
      <stop offset="1" stop-color="#45CF3C" id="stop1582"/>
    </linearGradient>
  </defs>
</svg>
