<svg width="46" height="46" fill="none">
  <g clip-path="url(#clip0)" stroke-width=".1">
    <path d="M39.6 10.8h0-.2 0a6.2 6.2 0 00-5.8 4c-.6-.3-1.2-.5-1.9-.6h0a1 1 0 10-.4 1.8A12.4 12.4 0 0140 24c.1.3.4.5.8.6l2.6.3c.4 0 .7.4.7.8V30c0 .4-.3.7-.7.8l-2.4.3a1 1 0 00-.8.6c-.8 2.3-2.1 4.4-4 5.9a1 1 0 00-.3.7v5c0 .4-.4.8-.8.8H30a.8.8 0 01-.8-.8v-1.9c0-.5-.4-1-.9-1h-7.5a1 1 0 00-1 1v1.9c0 .4-.3.8-.8.8h-5.2a.8.8 0 01-.7-.8v-3.5a1 1 0 00-.5-.8 12.4 12.4 0 015.9-23.4h1.1a1 1 0 100-2h-1.1c-6.7 0-12.3 4.7-13.9 10.9H4a2.2 2.2 0 010-4.3 1 1 0 000-2 4 4 0 000 8.2h.3a14.4 14.4 0 006.9 14v2.9c0 1.5 1.2 2.6 2.6 2.6H19c1.5 0 2.7-1.1 2.7-2.6v-1h5.7v1c0 1.5 1.1 2.6 2.6 2.6h5.2c1.5 0 2.7-1.1 2.7-2.6v-4.5c1.8-1.6 3.2-3.7 4-6l1.8-.1A2.7 2.7 0 0046 30v-4.5c0-1.4-1-2.5-2.3-2.7l-2-.2c-.7-1.6-1.6-3-2.7-4.2l1.5-6.5a1 1 0 00-.9-1.2zm-1.2 2l-1 4.2-2-1.4a4.3 4.3 0 013-2.7z" fill="url(#paint0_linear)" stroke="url(#paint1_linear)"/>
    <path d="M35.8 22.8a1 1 0 00-.7-.3m.7.3h0s0 0 0 0zm0 0a1 1 0 010 1.3l-.7-1.6m0 0a1 1 0 00-1 1 1 1 0 001 .9c.3 0 .5-.1.7-.3l-.7-1.6z" fill="url(#paint2_linear)" stroke="url(#paint3_linear)"/>
    <path d="M26.3 5.2a1 1 0 00-.9 1v3.5a1 1 0 001.9 0V6.1c0-.5-.4-1-1-1z" fill="url(#paint4_linear)" stroke="url(#paint5_linear)"/>
    <path d="M27 2.2h0c.2.2.3.4.3.7 0 .2-.1.5-.3.7 0 0 0 0 0 0h0a.9.9 0 01-1.3 0L27 2.1zm0 0a1 1 0 00-1.3 0 1 1 0 000 1.4L27 2.2z" fill="url(#paint6_linear)" stroke="url(#paint7_linear)"/>
    <path d="M19 0a1 1 0 00-.9.9v1.5a1 1 0 001.9 0V1c0-.5-.4-1-1-1z" fill="url(#paint8_linear)" stroke="url(#paint9_linear)"/>
    <path d="M8.4 28.1h0a1 1 0 011.9 0h0-2zm0 0h0m0 0h0m0 0c0 .6.4 1 1 1h0m-1-1l1 1m0 0c.5 0 .9-.4.9-1m-1 1l1-1m0 0h0c0 .6-.5 1-1 1l1-1zm0 0h0z" fill="url(#paint10_linear)" stroke="url(#paint11_linear)"/>
    <path d="M9.6 30.5a1 1 0 00-.5 1.2h0c.8 2.1 2.2 3.9 4.2 5h0a1 1 0 001.3-.3h0c.2-.4 0-1-.4-1.3h0a8.3 8.3 0 01-3.4-4h0a1 1 0 00-1.2-.6zm0 0h0s0 0 0 0z" fill="url(#paint12_linear)" stroke="url(#paint13_linear)"/>
    <path d="M19 4.3a3.8 3.8 0 100 7.6 3.8 3.8 0 000-7.6zm0 5.7a2 2 0 110-3.8 2 2 0 010 3.8z" fill="url(#paint14_linear)" stroke="url(#paint15_linear)"/>
    <path d="M30.4 19h-.8c.4-.6.6-1.2.6-2a3.8 3.8 0 10-7.2 2h-4.3a1 1 0 000 1.9h11.7a1 1 0 000-1.9zm-4 0a2 2 0 110-3.9 2 2 0 010 3.9z" fill="url(#paint16_linear)" stroke="url(#paint17_linear)"/>
  </g>
  <defs>
    <linearGradient id="paint0_linear" x1="46" y1="46" x2="-2.1" y2="42.9" gradientUnits="userSpaceOnUse">
      <stop offset="0" stop-color="#2CA824"/>
      <stop offset="1" stop-color="#45CF3C"/>
    </linearGradient>
    <linearGradient id="paint1_linear" x1="46" y1="46" x2="-2.1" y2="42.9" gradientUnits="userSpaceOnUse">
      <stop offset="0" stop-color="#2CA824"/>
      <stop offset="1" stop-color="#45CF3C"/>
    </linearGradient>
    <linearGradient id="paint2_linear" x1="36" y1="24.3" x2="34.1" y2="24.3" gradientUnits="userSpaceOnUse">
      <stop offset="0" stop-color="#2CA824"/>
      <stop offset="1" stop-color="#45CF3C"/>
    </linearGradient>
    <linearGradient id="paint3_linear" x1="36" y1="24.3" x2="34.1" y2="24.3" gradientUnits="userSpaceOnUse">
      <stop offset="0" stop-color="#2CA824"/>
      <stop offset="1" stop-color="#45CF3C"/>
    </linearGradient>
    <linearGradient id="paint4_linear" x1="27.2" y1="10.6" x2="25.4" y2="10.6" gradientUnits="userSpaceOnUse">
      <stop offset="0" stop-color="#2CA824"/>
      <stop offset="1" stop-color="#45CF3C"/>
    </linearGradient>
    <linearGradient id="paint5_linear" x1="27.2" y1="10.6" x2="25.4" y2="10.6" gradientUnits="userSpaceOnUse">
      <stop offset="0" stop-color="#2CA824"/>
      <stop offset="1" stop-color="#45CF3C"/>
    </linearGradient>
    <linearGradient id="paint6_linear" x1="27.2" y1="3.8" x2="25.4" y2="3.7" gradientUnits="userSpaceOnUse">
      <stop offset="0" stop-color="#2CA824"/>
      <stop offset="1" stop-color="#45CF3C"/>
    </linearGradient>
    <linearGradient id="paint7_linear" x1="27.2" y1="3.8" x2="25.4" y2="3.7" gradientUnits="userSpaceOnUse">
      <stop offset="0" stop-color="#2CA824"/>
      <stop offset="1" stop-color="#45CF3C"/>
    </linearGradient>
    <linearGradient id="paint8_linear" x1="19.9" y1="3.3" x2="18.1" y2="3.3" gradientUnits="userSpaceOnUse">
      <stop offset="0" stop-color="#2CA824"/>
      <stop offset="1" stop-color="#45CF3C"/>
    </linearGradient>
    <linearGradient id="paint9_linear" x1="19.9" y1="3.3" x2="18.1" y2="3.3" gradientUnits="userSpaceOnUse">
      <stop offset="0" stop-color="#2CA824"/>
      <stop offset="1" stop-color="#45CF3C"/>
    </linearGradient>
    <linearGradient id="paint10_linear" x1="10.2" y1="29.1" x2="8.4" y2="29" gradientUnits="userSpaceOnUse">
      <stop offset="0" stop-color="#2CA824"/>
      <stop offset="1" stop-color="#45CF3C"/>
    </linearGradient>
    <linearGradient id="paint11_linear" x1="10.2" y1="29.1" x2="8.4" y2="29" gradientUnits="userSpaceOnUse">
      <stop offset="0" stop-color="#2CA824"/>
      <stop offset="1" stop-color="#45CF3C"/>
    </linearGradient>
    <linearGradient id="paint12_linear" x1="14.6" y1="36.9" x2="8.8" y2="36.6" gradientUnits="userSpaceOnUse">
      <stop offset="0" stop-color="#2CA824"/>
      <stop offset="1" stop-color="#45CF3C"/>
    </linearGradient>
    <linearGradient id="paint13_linear" x1="14.6" y1="36.9" x2="8.8" y2="36.6" gradientUnits="userSpaceOnUse">
      <stop offset="0" stop-color="#2CA824"/>
      <stop offset="1" stop-color="#45CF3C"/>
    </linearGradient>
    <linearGradient id="paint14_linear" x1="22.8" y1="11.9" x2="14.9" y2="11.5" gradientUnits="userSpaceOnUse">
      <stop offset="0" stop-color="#2CA824"/>
      <stop offset="1" stop-color="#45CF3C"/>
    </linearGradient>
    <linearGradient id="paint15_linear" x1="22.8" y1="11.9" x2="14.9" y2="11.5" gradientUnits="userSpaceOnUse">
      <stop offset="0" stop-color="#2CA824"/>
      <stop offset="1" stop-color="#45CF3C"/>
    </linearGradient>
    <linearGradient id="paint16_linear" x1="31.3" y1="20.8" x2="17.2" y2="19.6" gradientUnits="userSpaceOnUse">
      <stop offset="0" stop-color="#2CA824"/>
      <stop offset="1" stop-color="#45CF3C"/>
    </linearGradient>
    <linearGradient id="paint17_linear" x1="31.3" y1="20.8" x2="17.2" y2="19.6" gradientUnits="userSpaceOnUse">
      <stop offset="0" stop-color="#2CA824"/>
      <stop offset="1" stop-color="#45CF3C"/>
    </linearGradient>
    <clipPath id="clip0">
      <path fill="#fff" d="M0 0h46v46H0z"/>
    </clipPath>
  </defs>
</svg>
