<svg width="42" height="42" viewBox="0 0 42 42" fill="none" xmlns="http://www.w3.org/2000/svg">
<g clip-path="url(#clip0)">
<path d="M33.9619 12.3021C34.4701 12.3021 34.8823 11.8901 34.8823 11.3818V2.46094C34.8823 1.04875 33.7335 -0.1 32.3213 -0.1H2.46194C1.04976 -0.1 -0.0989929 1.04875 -0.0989929 2.46094V39.5391C-0.0989929 40.9513 1.04976 42.1 2.46194 42.1H32.3213C33.7335 42.1 34.8823 40.9513 34.8823 39.5391V33.4957C34.8823 32.9874 34.4701 32.5753 33.9619 32.5753C33.4537 32.5753 33.0416 32.9874 33.0416 33.4957V39.5391C33.0416 39.9362 32.7184 40.2594 32.3213 40.2594H2.46194C2.06485 40.2594 1.74163 39.9362 1.74163 39.5391V2.46094C1.74163 2.06385 2.06485 1.74063 2.46194 1.74063H32.3213C32.7184 1.74063 33.0416 2.06385 33.0416 2.46094V11.3818C33.0416 11.8901 33.4537 12.3021 33.9619 12.3021Z" fill="url(#paint0_linear)" stroke="url(#paint1_linear)" stroke-width="0.2"/>
<path d="M17.3912 4.32969C13.1746 4.32969 9.74433 7.75997 9.74433 11.9766C9.74433 14.163 10.667 16.1378 12.1427 17.5325C12.1713 17.5629 12.2023 17.5925 12.2367 17.62C13.597 18.8636 15.407 19.6234 17.3911 19.6234C19.3753 19.6234 21.1853 18.8635 22.5456 17.62C22.58 17.5924 22.6111 17.5627 22.6395 17.5326C24.1154 16.1378 25.0381 14.1631 25.0381 11.9766C25.0381 7.75997 21.6078 4.32969 17.3912 4.32969ZM17.3912 17.7828C16.106 17.7828 14.9176 17.3625 13.9546 16.6528C14.6678 15.4499 15.9562 14.7016 17.3912 14.7016C18.8262 14.7016 20.1146 15.4499 20.8278 16.6528C19.8647 17.3625 18.6764 17.7828 17.3912 17.7828ZM16.1787 11.6484V11.1152C16.1787 10.4468 16.7228 9.90273 17.3912 9.90273C18.0597 9.90273 18.6037 10.4468 18.6037 11.1152V11.6484C18.6037 12.3169 18.0597 12.8609 17.3912 12.8609C16.7228 12.8609 16.1787 12.3169 16.1787 11.6484ZM23.1974 11.9766C23.1974 13.2139 22.808 14.3614 22.1457 15.3046C21.5617 14.4825 20.781 13.8339 19.8812 13.4122C20.2353 12.9138 20.4443 12.3052 20.4443 11.6484V11.1152C20.4443 9.4316 19.0748 8.06211 17.3912 8.06211C15.7076 8.06211 14.3381 9.4316 14.3381 11.1152V11.6484C14.3381 12.3052 14.5471 12.9138 14.9012 13.4122C14.0014 13.8339 13.2207 14.4825 12.6367 15.3046C11.9744 14.3614 11.585 13.2139 11.585 11.9766C11.585 8.77507 14.1897 6.17031 17.3912 6.17031C20.5927 6.17031 23.1974 8.77507 23.1974 11.9766Z" fill="url(#paint2_linear)" stroke="url(#paint3_linear)" stroke-width="0.2"/>
<path d="M21.8209 35.8297H17.3912C16.883 35.8297 16.4709 36.2417 16.4709 36.75C16.4709 37.2583 16.883 37.6703 17.3912 37.6703H21.8209C22.3291 37.6703 22.7412 37.2583 22.7412 36.75C22.7412 36.2417 22.3291 35.8297 21.8209 35.8297Z" fill="url(#paint4_linear)" stroke="url(#paint5_linear)" stroke-width="0.2"/>
<path d="M21.8209 31.2359H10.1725C9.66426 31.2359 9.25214 31.648 9.25214 32.1562C9.25214 32.6645 9.66426 33.0766 10.1725 33.0766H21.8209C22.3291 33.0766 22.7412 32.6645 22.7412 32.1562C22.7412 31.648 22.3291 31.2359 21.8209 31.2359Z" fill="url(#paint6_linear)" stroke="url(#paint7_linear)" stroke-width="0.2"/>
<path d="M21.8209 26.6422H10.1725C9.66426 26.6422 9.25214 27.0542 9.25214 27.5625C9.25214 28.0708 9.66426 28.4828 10.1725 28.4828H21.8209C22.3291 28.4828 22.7412 28.0708 22.7412 27.5625C22.7412 27.0542 22.3291 26.6422 21.8209 26.6422Z" fill="url(#paint8_linear)" stroke="url(#paint9_linear)" stroke-width="0.2"/>
<path d="M6.01761 23.6196L6.01744 23.6194C5.84602 23.4481 5.74778 23.211 5.74778 22.9688C5.74778 22.7265 5.84611 22.4894 6.0174 22.3181L6.01761 23.6196ZM6.01761 23.6196C6.18954 23.7906 6.42555 23.8891 6.66809 23.8891C6.91131 23.8891 7.14743 23.7907 7.31933 23.6196L7.3195 23.6194M6.01761 23.6196L7.3195 23.6194M7.3195 23.6194C7.49079 23.4481 7.58922 23.2111 7.58922 22.9688C7.58922 22.7265 7.4909 22.4894 7.31952 22.3181M7.3195 23.6194L7.31952 22.3181M6.66809 22.0484C6.91114 22.0484 7.14821 22.1467 7.31948 22.3181C7.31949 22.3181 7.31951 22.3181 7.31952 22.3181M6.66809 22.0484L7.48922 22.9688C7.48922 22.753 7.40145 22.5414 7.24879 22.3888L7.31952 22.3181M6.66809 22.0484C6.42573 22.0484 6.18866 22.1468 6.01742 22.3181L6.66809 22.0484Z" fill="url(#paint10_linear)" stroke="url(#paint11_linear)" stroke-width="0.2"/>
<path d="M7.31948 26.9118L7.31933 26.9117C7.14743 26.7406 6.91131 26.6422 6.66809 26.6422C6.42555 26.6422 6.18954 26.7406 6.01761 26.9116L6.01761 26.9116L6.01742 26.9118C5.84611 27.0831 5.74778 27.3202 5.74778 27.5625C5.74778 27.8048 5.84602 28.0419 6.01744 28.2132L6.01761 28.2134C6.18954 28.3844 6.42555 28.4828 6.66809 28.4828C6.91131 28.4828 7.14743 28.3844 7.31933 28.2133L7.3195 28.2132C7.49079 28.0419 7.58922 27.8048 7.58922 27.5625C7.58922 27.3202 7.49089 27.0831 7.31948 26.9118Z" fill="url(#paint12_linear)" stroke="url(#paint13_linear)" stroke-width="0.2"/>
<path d="M7.31933 31.5054L7.31948 31.5056C7.49089 31.6769 7.58922 31.9139 7.58922 32.1562C7.58922 32.3986 7.4908 32.6356 7.31952 32.8069L7.31933 31.5054ZM7.31933 31.5054C7.14743 31.3343 6.91131 31.2359 6.66809 31.2359C6.42555 31.2359 6.18954 31.3344 6.01761 31.5054L6.01761 31.5054M7.31933 31.5054L6.01761 31.5054M6.01761 31.5054L6.01742 31.5056M6.01761 31.5054L6.01742 31.5056M6.01742 31.5056C5.84611 31.6769 5.74778 31.914 5.74778 32.1562M6.01742 31.5056L5.74778 32.1562M5.74778 32.1562C5.74778 32.3985 5.846 32.6356 6.0174 32.8069M5.74778 32.1562L6.0174 32.8069M6.0174 32.8069C6.01741 32.8069 6.01743 32.8069 6.01744 32.8069C6.18867 32.9782 6.42574 33.0766 6.66809 33.0766C6.91114 33.0766 7.14823 32.9783 7.3195 32.8069L6.0174 32.8069Z" fill="url(#paint14_linear)" stroke="url(#paint15_linear)" stroke-width="0.2"/>
<path d="M21.8209 22.0484H10.1725C9.66426 22.0484 9.25214 22.4605 9.25214 22.9688C9.25214 23.477 9.66426 23.8891 10.1725 23.8891H21.8209C22.3291 23.8891 22.7412 23.477 22.7412 22.9688C22.7412 22.4605 22.3291 22.0484 21.8209 22.0484Z" fill="url(#paint16_linear)" stroke="url(#paint17_linear)" stroke-width="0.2"/>
<path d="M37.6372 10.2488L37.6372 10.2488C36.7227 10.4939 35.9578 11.0808 35.4845 11.9007C35.4845 11.9007 35.4845 11.9007 35.4845 11.9007L25.1616 29.7805L25.1615 29.7805C25.0982 29.8904 25.058 30.0123 25.0439 30.1385L24.3173 36.6472L24.3173 36.6473C24.2768 37.0106 24.4552 37.3635 24.7717 37.5464L24.7718 37.5464C24.9146 37.6288 25.0734 37.6697 25.2318 37.6697C25.4243 37.6697 25.6161 37.6094 25.7777 37.4904L31.051 33.6067C31.1532 33.5315 31.2388 33.4358 31.3022 33.3258L41.6251 15.4461C42.6026 13.753 42.0206 11.5806 40.3275 10.603L40.2777 10.6893L40.3275 10.603C39.5076 10.1296 38.5519 10.0038 37.6372 10.2488ZM38.1136 12.0268L38.1136 12.0268C38.5537 11.9088 39.0127 11.9693 39.4071 12.1971L39.4071 12.1971C39.8016 12.4248 40.0834 12.7921 40.2013 13.2321C40.3193 13.6721 40.2589 14.1312 40.0311 14.5257L39.2725 15.8396L36.3199 14.1349L37.0785 12.821C37.3063 12.4265 37.6736 12.1447 38.1136 12.0268ZM28.8264 32.9591L26.3799 34.7609L26.7171 31.7413L28.8264 32.9591ZM30.1684 31.6085L27.2158 29.9038L35.3997 15.7289L38.3523 17.4336L30.1684 31.6085Z" fill="url(#paint18_linear)" stroke="url(#paint19_linear)" stroke-width="0.2"/>
</g>
<defs>
<linearGradient id="paint0_linear" x1="34.7823" y1="42" x2="-1.64945" y2="40.5159" gradientUnits="userSpaceOnUse">
<stop stop-color="#2CA824"/>
<stop offset="1" stop-color="#45CF3C"/>
</linearGradient>
<linearGradient id="paint1_linear" x1="34.7823" y1="42" x2="-1.64945" y2="40.5159" gradientUnits="userSpaceOnUse">
<stop stop-color="#2CA824"/>
<stop offset="1" stop-color="#45CF3C"/>
</linearGradient>
<linearGradient id="paint2_linear" x1="24.9381" y1="19.5234" x2="9.14008" y2="18.7462" gradientUnits="userSpaceOnUse">
<stop stop-color="#2CA824"/>
<stop offset="1" stop-color="#45CF3C"/>
</linearGradient>
<linearGradient id="paint3_linear" x1="24.9381" y1="19.5234" x2="9.14008" y2="18.7462" gradientUnits="userSpaceOnUse">
<stop stop-color="#2CA824"/>
<stop offset="1" stop-color="#45CF3C"/>
</linearGradient>
<linearGradient id="paint4_linear" x1="22.6412" y1="37.5703" x2="16.4765" y2="36.4483" gradientUnits="userSpaceOnUse">
<stop stop-color="#2CA824"/>
<stop offset="1" stop-color="#45CF3C"/>
</linearGradient>
<linearGradient id="paint5_linear" x1="22.6412" y1="37.5703" x2="16.4765" y2="36.4483" gradientUnits="userSpaceOnUse">
<stop stop-color="#2CA824"/>
<stop offset="1" stop-color="#45CF3C"/>
</linearGradient>
<linearGradient id="paint6_linear" x1="22.6412" y1="32.9766" x2="10.6087" y2="28.1823" gradientUnits="userSpaceOnUse">
<stop stop-color="#2CA824"/>
<stop offset="1" stop-color="#45CF3C"/>
</linearGradient>
<linearGradient id="paint7_linear" x1="22.6412" y1="32.9766" x2="10.6087" y2="28.1823" gradientUnits="userSpaceOnUse">
<stop stop-color="#2CA824"/>
<stop offset="1" stop-color="#45CF3C"/>
</linearGradient>
<linearGradient id="paint8_linear" x1="22.6412" y1="28.3828" x2="10.6087" y2="23.5885" gradientUnits="userSpaceOnUse">
<stop stop-color="#2CA824"/>
<stop offset="1" stop-color="#45CF3C"/>
</linearGradient>
<linearGradient id="paint9_linear" x1="22.6412" y1="28.3828" x2="10.6087" y2="23.5885" gradientUnits="userSpaceOnUse">
<stop stop-color="#2CA824"/>
<stop offset="1" stop-color="#45CF3C"/>
</linearGradient>
<linearGradient id="paint10_linear" x1="7.48922" y1="23.7891" x2="5.7712" y2="23.7045" gradientUnits="userSpaceOnUse">
<stop stop-color="#2CA824"/>
<stop offset="1" stop-color="#45CF3C"/>
</linearGradient>
<linearGradient id="paint11_linear" x1="7.48922" y1="23.7891" x2="5.7712" y2="23.7045" gradientUnits="userSpaceOnUse">
<stop stop-color="#2CA824"/>
<stop offset="1" stop-color="#45CF3C"/>
</linearGradient>
<linearGradient id="paint12_linear" x1="7.48922" y1="28.3828" x2="5.7712" y2="28.2983" gradientUnits="userSpaceOnUse">
<stop stop-color="#2CA824"/>
<stop offset="1" stop-color="#45CF3C"/>
</linearGradient>
<linearGradient id="paint13_linear" x1="7.48922" y1="28.3828" x2="5.7712" y2="28.2983" gradientUnits="userSpaceOnUse">
<stop stop-color="#2CA824"/>
<stop offset="1" stop-color="#45CF3C"/>
</linearGradient>
<linearGradient id="paint14_linear" x1="7.48922" y1="32.9766" x2="5.7712" y2="32.892" gradientUnits="userSpaceOnUse">
<stop stop-color="#2CA824"/>
<stop offset="1" stop-color="#45CF3C"/>
</linearGradient>
<linearGradient id="paint15_linear" x1="7.48922" y1="32.9766" x2="5.7712" y2="32.892" gradientUnits="userSpaceOnUse">
<stop stop-color="#2CA824"/>
<stop offset="1" stop-color="#45CF3C"/>
</linearGradient>
<linearGradient id="paint16_linear" x1="22.6412" y1="23.7891" x2="10.6087" y2="18.9948" gradientUnits="userSpaceOnUse">
<stop stop-color="#2CA824"/>
<stop offset="1" stop-color="#45CF3C"/>
</linearGradient>
<linearGradient id="paint17_linear" x1="22.6412" y1="23.7891" x2="10.6087" y2="18.9948" gradientUnits="userSpaceOnUse">
<stop stop-color="#2CA824"/>
<stop offset="1" stop-color="#45CF3C"/>
</linearGradient>
<linearGradient id="paint18_linear" x1="41.9994" y1="37.5697" x2="23.5649" y2="36.9864" gradientUnits="userSpaceOnUse">
<stop stop-color="#2CA824"/>
<stop offset="1" stop-color="#45CF3C"/>
</linearGradient>
<linearGradient id="paint19_linear" x1="41.9994" y1="37.5697" x2="23.5649" y2="36.9864" gradientUnits="userSpaceOnUse">
<stop stop-color="#2CA824"/>
<stop offset="1" stop-color="#45CF3C"/>
</linearGradient>
<clipPath id="clip0">
<rect width="42" height="42" fill="white"/>
</clipPath>
</defs>
</svg>
