<svg width="44" height="44" fill="none">
  <path d="M17.8 30.9a1 1 0 00-1.1 1.5l1-1.5zm3.3 2.3L17.8 31l-1.1 1.5 3.2 2.4 1.2-1.6z" fill="url(#paint0_linear)"/>
  <path d="M23.4 19.6a1 1 0 10-1.5-1.2l1.5 1.2zm-3.7 8.7l-.7.6.4.4.5-.1-.2-1zm8.7-9.4h1-1zm-1.8-7.8l1 .2c0-.5-.2-1-.7-1l-.3.8zm-6.1 3.4l.6.7-.6-.7zm.3 24.3a1 1 0 101.8-.6l-1.8.6zm-.9-9.6a17 17 0 006.1-3.5c2-1.8 3.6-4.1 3.3-6.9l-1.9.2c.2 1.8-1 3.7-2.7 5.2a15.2 15.2 0 01-5.3 3.1l.5 1.9zm9.4-10.4a5 5 0 00-.5-1.8l-.8-1.5c-.5-1-.8-2.2-.5-4.2l-1.8-.4c-.5 2.5 0 4.1.6 5.4l.8 1.6.3 1.1 2-.2zm-2.7-7.7a28.1 28.1 0 00.3-.9 1.3 1.3 0 00-.2 0h-.4c-.4 0-.8 0-1.4.2-1 .4-2.7 1.4-5 3.4l1.2 1.4a16 16 0 014.5-3l.7-.2h0l.3-.9zM20 13.8c-1 .8-3 2.9-3.8 5.6-.4 1.4-.5 3-.1 4.6.4 1.6 1.3 3.3 3 5l1.3-1.4a8.5 8.5 0 01-2.5-4c-.3-1.3-.2-2.5.2-3.6.7-2.3 2.3-4 3.1-4.8L20 13.8zm2 4.6a14.1 14.1 0 00-3 7c-.4 3.3 0 7.6 1.9 13.4l1.8-.6a27.5 27.5 0 01-1.8-12.5c.4-2.8 1.5-4.7 2.6-6L22 18.3z" fill="url(#paint1_linear)"/>
  <path d="M11 40.8c2.5-5.5 14-12 22 0" fill="transparent" stroke="url(#paint2_linear)" stroke-width="1.9" stroke-linejoin="round"/>
  <circle cx="22" cy="22" r="21.1" stroke="url(#paint3_linear)" stroke-width="1.9" fill="transparent"/>
  <path d="M5.5 8L38 35.5" stroke="url(#paint4_linear)" stroke-width="1.9"/>
  <defs>
    <linearGradient id="paint0_linear" x1="20.5" y1="34" x2="16.9" y2="32.2" gradientUnits="userSpaceOnUse">
      <stop offset="0" stop-color="#2CA824"/>
      <stop offset="1" stop-color="#45CF3C"/>
    </linearGradient>
    <linearGradient id="paint1_linear" x1="33.6" y1="35" x2="20.6" y2="38.5" gradientUnits="userSpaceOnUse">
      <stop offset="0" stop-color="#2CA824"/>
      <stop offset="1" stop-color="#45CF3C"/>
    </linearGradient>
    <linearGradient id="paint2_linear" x1="33" y1="40.8" x2="10.5" y2="37.2" gradientUnits="userSpaceOnUse">
      <stop offset="0" stop-color="#2CA824"/>
      <stop offset="1" stop-color="#45CF3C"/>
    </linearGradient>
    <linearGradient id="paint3_linear" x1="44" y1="44" x2="-2.1" y2="41.7" gradientUnits="userSpaceOnUse">
      <stop offset="0" stop-color="#2CA824"/>
      <stop offset="1" stop-color="#45CF3C"/>
    </linearGradient>
    <linearGradient id="paint4_linear" x1="38" y1="35.5" x2="4" y2="33.5" gradientUnits="userSpaceOnUse">
      <stop offset="0" stop-color="#2CA824"/>
      <stop offset="1" stop-color="#45CF3C"/>
    </linearGradient>
  </defs>
</svg>
