<svg width="42" height="42" viewBox="0 0 42 42" fill="none" xmlns="http://www.w3.org/2000/svg">
<path d="M28.3828 19.4094C28.8634 19.4094 29.2531 19.0197 29.2531 18.5391V16.0781C29.2531 15.5975 28.8634 15.2078 28.3828 15.2078H18.5391C18.0585 15.2078 17.6687 15.5975 17.6687 16.0781V35.7656C17.6687 36.2462 18.0585 36.6359 18.5391 36.6359H28.3828C28.8634 36.6359 29.2531 36.2462 29.2531 35.7656C29.2531 35.285 28.8634 34.8953 28.3828 34.8953H19.4094V31.7141H23.4609C23.9415 31.7141 24.3313 31.3243 24.3313 30.8438C24.3313 30.3632 23.9415 29.9734 23.4609 29.9734H19.4094V26.7922H27.5125V30.8438C27.5125 31.3243 27.9022 31.7141 28.3828 31.7141C28.8634 31.7141 29.2531 31.3243 29.2531 30.8438V23.4609C29.2531 22.9803 28.8634 22.5906 28.3828 22.5906C27.9022 22.5906 27.5125 22.9803 27.5125 23.4609V25.0516H19.4094V16.9484H22.5906V21C22.5906 21.4806 22.9803 21.8703 23.4609 21.8703C23.9415 21.8703 24.3313 21.4806 24.3313 21V16.9484H27.5125V18.5391C27.5125 19.0197 27.9022 19.4094 28.3828 19.4094Z" fill="url(#paint0_linear)" stroke="url(#paint1_linear)" stroke-width="0.1"/>
<path d="M24.2812 42.05C24.7619 42.05 25.1516 41.6603 25.1516 41.1797C25.1516 40.699 24.7619 40.3094 24.2812 40.3094C23.8006 40.3094 23.4109 40.699 23.4109 41.1797C23.4109 41.6603 23.8006 42.05 24.2812 42.05Z" fill="url(#paint2_linear)" stroke="url(#paint3_linear)" stroke-width="0.1"/>
<path d="M37.4883 5.36406C34.9729 5.36406 32.9266 7.41041 32.9266 9.92578V10.2859H13.9953V6.97266C13.9953 3.10032 10.845 -0.05 6.97266 -0.05C3.10032 -0.05 -0.05 3.10032 -0.05 6.97266V35.0273C-0.05 38.8997 3.10032 42.05 6.97266 42.05H20.5898C21.0704 42.05 21.4601 41.6603 21.4601 41.1797C21.4601 40.6991 21.0704 40.3094 20.5898 40.3094H11.5916C13.1009 38.9921 13.9953 37.092 13.9953 35.0273V12.0266H32.9266V37.4883C32.9266 37.9689 33.3163 38.3586 33.7969 38.3586C34.2775 38.3586 34.6672 37.9689 34.6672 37.4883C34.6672 35.9328 35.9328 34.6672 37.4883 34.6672C39.0438 34.6672 40.3094 35.9328 40.3094 37.4883C40.3094 39.0438 39.0438 40.3094 37.4883 40.3094H27.9727C27.4921 40.3094 27.1024 40.6991 27.1024 41.1797C27.1024 41.6603 27.4921 42.05 27.9727 42.05H37.4883C40.0037 42.05 42.05 40.0037 42.05 37.4883V9.92578C42.05 7.41041 40.0037 5.36406 37.4883 5.36406ZM6.97266 40.3094C4.06019 40.3094 1.69062 37.9398 1.69062 35.0273C1.69062 32.8972 2.97884 31.0036 4.87187 30.1807V33.7969C4.87187 35.6338 6.36623 37.1281 8.20315 37.1273H11.8192C10.9963 39.0212 9.10276 40.3094 6.97266 40.3094ZM12.2547 35.0273C12.2547 35.1472 12.2493 35.2673 12.2409 35.3875H8.20312C7.3261 35.3875 6.6125 34.6739 6.6125 33.7969V29.7591C6.73267 29.7507 6.85275 29.7453 6.97266 29.7453C9.88512 29.7453 12.2547 32.1149 12.2547 35.0273ZM6.97266 28.0047C4.90851 28.0047 3.00825 28.8987 1.69062 30.4084V6.97266C1.69062 4.06019 4.06019 1.69062 6.97266 1.69062C9.88512 1.69062 12.2547 4.06019 12.2547 6.97266V30.4061C10.9666 28.9356 9.07676 28.0047 6.97266 28.0047ZM40.3094 9.92578V33.9058C39.5325 33.2928 38.5524 32.9266 37.4883 32.9266C36.4241 32.9266 35.444 33.2927 34.6672 33.9058V9.92578C34.6672 8.37027 35.9328 7.10469 37.4883 7.10469C39.0438 7.10469 40.3094 8.37027 40.3094 9.92578Z" fill="url(#paint4_linear)" stroke="url(#paint5_linear)" stroke-width="0.1"/>
<defs>
<linearGradient id="paint0_linear" x1="29.2031" y1="36.5859" x2="17.1623" y2="36.267" gradientUnits="userSpaceOnUse">
<stop stop-color="#2CA824"/>
<stop offset="1" stop-color="#45CF3C"/>
</linearGradient>
<linearGradient id="paint1_linear" x1="29.2031" y1="36.5859" x2="17.1623" y2="36.267" gradientUnits="userSpaceOnUse">
<stop stop-color="#2CA824"/>
<stop offset="1" stop-color="#45CF3C"/>
</linearGradient>
<linearGradient id="paint2_linear" x1="25.1016" y1="42" x2="23.3844" y2="41.9155" gradientUnits="userSpaceOnUse">
<stop stop-color="#2CA824"/>
<stop offset="1" stop-color="#45CF3C"/>
</linearGradient>
<linearGradient id="paint3_linear" x1="25.1016" y1="42" x2="23.3844" y2="41.9155" gradientUnits="userSpaceOnUse">
<stop stop-color="#2CA824"/>
<stop offset="1" stop-color="#45CF3C"/>
</linearGradient>
<linearGradient id="paint4_linear" x1="42" y1="42" x2="-1.95964" y2="39.8376" gradientUnits="userSpaceOnUse">
<stop stop-color="#2CA824"/>
<stop offset="1" stop-color="#45CF3C"/>
</linearGradient>
<linearGradient id="paint5_linear" x1="42" y1="42" x2="-1.95964" y2="39.8376" gradientUnits="userSpaceOnUse">
<stop stop-color="#2CA824"/>
<stop offset="1" stop-color="#45CF3C"/>
</linearGradient>
</defs>
</svg>
