<svg width="44" height="44" viewBox="0 0 44 44" fill="none" xmlns="http://www.w3.org/2000/svg">
<path d="M17.7772 30.8617C17.3518 30.5545 16.758 30.6503 16.4508 31.0756C16.1436 31.501 16.2394 32.0948 16.6647 32.402L17.7772 30.8617ZM21.0562 33.2299L17.7772 30.8617L16.6647 32.402L19.9438 34.7701L21.0562 33.2299Z" fill="url(#paint0_linear)"/>
<path d="M23.4325 19.6163C23.7562 19.2034 23.6839 18.6062 23.2709 18.2825C22.858 17.9589 22.2609 18.0312 21.9372 18.4441L23.4325 19.6163ZM19.6625 28.256L19.0007 28.9376L19.3984 29.3238L19.9302 29.1675L19.6625 28.256ZM28.3847 18.9194L29.331 18.8356L28.3847 18.9194ZM26.6098 11.1028L27.5448 11.2709C27.6268 10.8145 27.3674 10.3656 26.9311 10.2088L26.6098 11.1028ZM20.5 14.499L21.1209 15.218L20.5 14.499ZM20.772 38.8001C20.9383 39.2977 21.4765 39.5663 21.9741 39.4C22.4717 39.2337 22.7403 38.6955 22.574 38.1978L20.772 38.8001ZM19.9302 29.1675C21.67 28.6565 24.0762 27.3933 26.0096 25.6563C27.9221 23.938 29.5728 21.5676 29.331 18.8356L27.4384 19.0032C27.6012 20.8424 26.4899 22.6706 24.7398 24.243C23.0104 25.7967 20.8531 26.9162 19.3947 27.3446L19.9302 29.1675ZM29.331 18.8356C29.2706 18.1539 29.0274 17.5618 28.7736 17.0427C28.4848 16.4518 28.2636 16.0944 27.9985 15.5082C27.5444 14.5044 27.1882 13.2533 27.5448 11.2709L25.6748 10.9346C25.2397 13.3538 25.681 14.9951 26.2673 16.2913C26.5224 16.8551 26.8821 17.4996 27.0666 17.8771C27.2862 18.3263 27.4088 18.6691 27.4384 19.0032L29.331 18.8356ZM26.6098 11.1028C26.9311 10.2088 26.9297 10.2082 26.9282 10.2077C26.9278 10.2076 26.9263 10.2071 26.9254 10.2067C26.9234 10.206 26.9215 10.2054 26.9195 10.2047C26.9155 10.2033 26.9115 10.2019 26.9073 10.2006C26.899 10.1978 26.8902 10.195 26.881 10.1922C26.8627 10.1867 26.8427 10.1811 26.821 10.1757C26.7776 10.1649 26.7277 10.1548 26.6712 10.1466C26.5579 10.1301 26.4196 10.1215 26.2545 10.1291C25.9247 10.1443 25.4923 10.2237 24.9384 10.4297C23.8385 10.8387 22.2136 11.7639 19.8791 13.78L21.1209 15.218C23.3588 13.2854 24.7888 12.5124 25.6007 12.2105C26.0027 12.061 26.2404 12.0318 26.3417 12.0271C26.3922 12.0248 26.4097 12.0285 26.3983 12.0269C26.3928 12.0261 26.3804 12.024 26.3617 12.0194C26.3524 12.017 26.3416 12.0141 26.3294 12.0104C26.3232 12.0085 26.3168 12.0065 26.3099 12.0042C26.3065 12.0031 26.303 12.0019 26.2994 12.0006C26.2976 12 26.2958 11.9994 26.294 11.9987C26.2931 11.9984 26.2917 11.9979 26.2912 11.9978C26.2898 11.9973 26.2884 11.9968 26.6098 11.1028ZM19.8791 13.78C18.8887 14.6354 16.9781 16.7007 16.1453 19.4177C15.7237 20.7932 15.574 22.352 15.9791 23.9978C16.3848 25.6457 17.331 27.3165 19.0007 28.9376L20.3242 27.5745C18.8715 26.164 18.1326 24.7968 17.824 23.5436C17.515 22.2882 17.6221 21.0828 17.9619 19.9745C18.6518 17.7236 20.2825 15.9421 21.1209 15.218L19.8791 13.78ZM21.9372 18.4441C20.7035 20.0179 19.4 22.1676 18.9282 25.4381C18.4594 28.6881 18.8227 32.9677 20.772 38.8001L22.574 38.1978C20.6879 32.5543 20.3942 28.583 20.8088 25.7094C21.2204 22.8561 22.3405 21.0094 23.4325 19.6163L21.9372 18.4441Z" fill="url(#paint1_linear)"/>
<path d="M11 40.7753C13.5 35.2751 25 28.7751 33 40.7753" fill="transparent" stroke="url(#paint2_linear)" stroke-width="1.9" stroke-linejoin="round"/>
<circle cx="22" cy="22" r="21.05" stroke="url(#paint3_linear)" stroke-width="1.9" fill="transparent"/>
<path d="M5.5 8L38 35.5" stroke="url(#paint4_linear)" stroke-width="1.9"/>
<defs>
<linearGradient id="paint0_linear" x1="20.5" y1="34" x2="16.9438" y2="32.1706" gradientUnits="userSpaceOnUse">
<stop stop-color="#2CA824"/>
<stop offset="1" stop-color="#45CF3C"/>
</linearGradient>
<linearGradient id="paint1_linear" x1="33.6258" y1="34.988" x2="20.5597" y2="38.4697" gradientUnits="userSpaceOnUse">
<stop stop-color="#2CA824"/>
<stop offset="1" stop-color="#45CF3C"/>
</linearGradient>
<linearGradient id="paint2_linear" x1="33" y1="40.7753" x2="10.492" y2="37.1801" gradientUnits="userSpaceOnUse">
<stop stop-color="#2CA824"/>
<stop offset="1" stop-color="#45CF3C"/>
</linearGradient>
<linearGradient id="paint3_linear" x1="44" y1="44" x2="-2.05296" y2="41.7346" gradientUnits="userSpaceOnUse">
<stop stop-color="#2CA824"/>
<stop offset="1" stop-color="#45CF3C"/>
</linearGradient>
<linearGradient id="paint4_linear" x1="38" y1="35.5" x2="4.01615" y2="33.5244" gradientUnits="userSpaceOnUse">
<stop stop-color="#2CA824"/>
<stop offset="1" stop-color="#45CF3C"/>
</linearGradient>
</defs>
</svg>
