<svg width="42" height="42" viewBox="0 0 42 42" fill="none" xmlns="http://www.w3.org/2000/svg">
<g clip-path="url(#clip0)">
<mask id="path-1-outside-1" maskUnits="userSpaceOnUse" x="-0.0976562" y="-1" width="42" height="44" fill="black">
<rect fill="white" x="-0.0976562" y="-1" width="42" height="44"/>
<path d="M41.0237 9.50357C40.9461 9.35993 40.8147 9.25296 40.6582 9.20628L38.6115 8.59581L38.9793 7.36567C39.0835 7.0222 39.0466 6.65823 38.8756 6.34077C38.8083 6.21592 38.7232 6.10501 38.6243 6.00945L39.3063 3.7298C39.6645 2.52517 38.9771 1.25385 37.775 0.896273C37.1923 0.721875 36.5754 0.785531 36.0381 1.07576C35.5016 1.36566 35.1109 1.84562 34.9382 2.42632L34.2561 4.70605C33.8117 4.78948 33.4246 5.0934 33.2523 5.53284L27.9752 0.506625L27.8828 0.418277C27.7724 0.312129 27.6686 0.213691 27.5487 0.138551C27.5434 0.134859 27.538 0.13125 27.5325 0.127723C27.5303 0.12641 27.5281 0.125016 27.526 0.123785C27.4787 0.0937617 27.4271 0.0698906 27.3722 0.0536484C27.2797 0.0205898 27.1765 0 27.0531 0H2.06735C1.42496 0 0.902344 0.522375 0.902344 1.16443V18.7694C0.902344 19.1093 1.1778 19.3846 1.51758 19.3846C1.85735 19.3846 2.13281 19.1093 2.13281 18.7694V1.23047H26.5817L26.5776 4.78324C26.5776 6.34282 27.8463 7.6116 29.4058 7.6116H32.6249L30.0953 16.0706C29.9979 16.3961 30.1829 16.7389 30.5085 16.8363C30.8342 16.934 31.1768 16.7486 31.2742 16.4231L34.0332 7.19701C34.0384 7.18192 34.0429 7.16666 34.047 7.15107L34.3937 5.99181C34.4106 5.93463 34.4779 5.9001 34.5364 5.91732L37.7264 6.86946C37.7622 6.88004 37.782 6.90514 37.7923 6.92426C37.8025 6.94329 37.8125 6.97339 37.8011 7.01096L37.2573 8.82952C37.2569 8.83091 37.2562 8.83222 37.2558 8.83362C37.2554 8.83501 37.2552 8.83641 37.2548 8.83772L30.5461 31.2736L29.4329 30.9415L27.1386 30.2571L30.461 19.1482C30.5584 18.8226 30.3734 18.4798 30.0478 18.3825C29.7224 18.285 29.3795 18.4701 29.2821 18.7956L25.7832 30.4942C25.7822 30.4978 25.7816 30.5015 25.7805 30.5052C25.7785 30.5125 25.7769 30.5199 25.7751 30.5273C25.7714 30.5428 25.7682 30.5584 25.7658 30.5739C25.7645 30.5817 25.7634 30.5895 25.7624 30.5973C25.7604 30.6144 25.7591 30.6315 25.7586 30.6486C25.7583 30.6548 25.7578 30.6607 25.7577 30.6669C25.7576 30.6903 25.7586 30.7136 25.7612 30.7369C25.7613 30.7376 25.7612 30.7383 25.7613 30.7391L26.1014 33.7744L26.3447 35.9231C26.1116 35.7703 25.9365 35.5042 25.7262 35.1611C25.468 34.7398 25.1142 34.163 24.4368 34.2902C23.8677 34.4 23.6001 34.8755 23.3413 35.3353C23.2071 35.5738 23.0682 35.8206 22.8747 36.0662C22.7316 36.2481 22.635 36.2998 22.604 36.3016C22.5793 36.3037 22.4362 36.29 22.0329 35.8888C20.9778 34.8418 20.157 35.556 19.7626 35.8991C19.6154 36.0273 19.4485 36.1724 19.3388 36.1922C19.235 36.2097 19.046 36.1041 18.8311 35.9069C18.5806 35.6772 18.1915 35.694 17.9618 35.9446C17.7322 36.1951 17.749 36.5842 17.9995 36.8139C19.2587 37.9687 20.1446 37.1979 20.5703 36.8274C20.6743 36.7369 20.8484 36.5854 20.908 36.5743C20.9089 36.5744 20.9923 36.5895 21.1657 36.7616C21.5511 37.1451 22.0206 37.5322 22.5996 37.5322C22.6258 37.5322 22.6522 37.5314 22.6788 37.5299C23.1041 37.5041 23.4955 37.2675 23.8416 36.8274C24.0939 36.5074 24.2713 36.1921 24.4139 35.9388C24.465 35.8481 24.5259 35.7396 24.5819 35.6505C24.6148 35.7022 24.6481 35.7565 24.6775 35.8043C25.023 36.3677 25.6612 37.4068 27.0799 37.2883C27.0824 37.2883 27.085 37.2889 27.0875 37.2889C27.1788 37.2889 27.2601 37.2677 27.3313 37.236C27.3418 37.2315 27.3518 37.2264 27.362 37.2214C27.3641 37.2204 27.3662 37.2194 27.3682 37.2183C27.3982 37.2031 27.4267 37.1858 27.4533 37.1662C27.5405 37.1051 27.6056 37.0346 27.648 36.9887C27.655 36.9811 27.6618 36.9733 27.6685 36.9652L31.4328 32.432C31.4384 32.4253 31.4429 32.4178 31.4482 32.411C31.455 32.4021 31.4615 32.3933 31.4678 32.3841C31.4808 32.365 31.4925 32.3453 31.5031 32.3251C31.5063 32.3189 31.5101 32.3133 31.5131 32.307C31.5264 32.2796 31.5372 32.2513 31.5462 32.2225C31.547 32.2199 31.5482 32.2178 31.549 32.2152L33.2794 26.428V40.7695H2.13281V21.6133C2.13281 21.2734 1.85735 20.998 1.51758 20.998C1.1778 20.998 0.902344 21.2734 0.902344 21.6133V40.8333C0.902344 41.4766 1.42496 42 2.06735 42H33.3427C33.9864 42 34.51 41.4766 34.51 40.8332V22.3127L38.259 9.77468L39.7167 10.2094L37.2165 18.5699C37.1191 18.8954 37.3041 19.2382 37.6297 19.3356C37.6885 19.3531 37.7478 19.3615 37.8062 19.3615C38.0711 19.3615 38.3156 19.1891 38.3955 18.9223L41.072 9.97205C41.1187 9.8157 41.1013 9.6472 41.0237 9.50357ZM36.1174 2.77799C36.1965 2.5118 36.3761 2.29171 36.6231 2.15832C36.8708 2.02437 37.1546 1.99492 37.4231 2.07523C37.9761 2.23978 38.2919 2.82466 38.1273 3.37805L37.4883 5.51414L35.4784 4.91425L36.1174 2.77799ZM27.8081 4.7839L27.8111 2.04914L32.3589 6.38105H29.4057C28.5248 6.38105 27.8081 5.66426 27.8081 4.7839ZM27.5055 35.2354L27.0879 31.5259L29.8912 32.3622L27.5055 35.2354Z"/>
</mask>
<path d="M41.0237 9.50357C40.9461 9.35993 40.8147 9.25296 40.6582 9.20628L38.6115 8.59581L38.9793 7.36567C39.0835 7.0222 39.0466 6.65823 38.8756 6.34077C38.8083 6.21592 38.7232 6.10501 38.6243 6.00945L39.3063 3.7298C39.6645 2.52517 38.9771 1.25385 37.775 0.896273C37.1923 0.721875 36.5754 0.785531 36.0381 1.07576C35.5016 1.36566 35.1109 1.84562 34.9382 2.42632L34.2561 4.70605C33.8117 4.78948 33.4246 5.0934 33.2523 5.53284L27.9752 0.506625L27.8828 0.418277C27.7724 0.312129 27.6686 0.213691 27.5487 0.138551C27.5434 0.134859 27.538 0.13125 27.5325 0.127723C27.5303 0.12641 27.5281 0.125016 27.526 0.123785C27.4787 0.0937617 27.4271 0.0698906 27.3722 0.0536484C27.2797 0.0205898 27.1765 0 27.0531 0H2.06735C1.42496 0 0.902344 0.522375 0.902344 1.16443V18.7694C0.902344 19.1093 1.1778 19.3846 1.51758 19.3846C1.85735 19.3846 2.13281 19.1093 2.13281 18.7694V1.23047H26.5817L26.5776 4.78324C26.5776 6.34282 27.8463 7.6116 29.4058 7.6116H32.6249L30.0953 16.0706C29.9979 16.3961 30.1829 16.7389 30.5085 16.8363C30.8342 16.934 31.1768 16.7486 31.2742 16.4231L34.0332 7.19701C34.0384 7.18192 34.0429 7.16666 34.047 7.15107L34.3937 5.99181C34.4106 5.93463 34.4779 5.9001 34.5364 5.91732L37.7264 6.86946C37.7622 6.88004 37.782 6.90514 37.7923 6.92426C37.8025 6.94329 37.8125 6.97339 37.8011 7.01096L37.2573 8.82952C37.2569 8.83091 37.2562 8.83222 37.2558 8.83362C37.2554 8.83501 37.2552 8.83641 37.2548 8.83772L30.5461 31.2736L29.4329 30.9415L27.1386 30.2571L30.461 19.1482C30.5584 18.8226 30.3734 18.4798 30.0478 18.3825C29.7224 18.285 29.3795 18.4701 29.2821 18.7956L25.7832 30.4942C25.7822 30.4978 25.7816 30.5015 25.7805 30.5052C25.7785 30.5125 25.7769 30.5199 25.7751 30.5273C25.7714 30.5428 25.7682 30.5584 25.7658 30.5739C25.7645 30.5817 25.7634 30.5895 25.7624 30.5973C25.7604 30.6144 25.7591 30.6315 25.7586 30.6486C25.7583 30.6548 25.7578 30.6607 25.7577 30.6669C25.7576 30.6903 25.7586 30.7136 25.7612 30.7369C25.7613 30.7376 25.7612 30.7383 25.7613 30.7391L26.1014 33.7744L26.3447 35.9231C26.1116 35.7703 25.9365 35.5042 25.7262 35.1611C25.468 34.7398 25.1142 34.163 24.4368 34.2902C23.8677 34.4 23.6001 34.8755 23.3413 35.3353C23.2071 35.5738 23.0682 35.8206 22.8747 36.0662C22.7316 36.2481 22.635 36.2998 22.604 36.3016C22.5793 36.3037 22.4362 36.29 22.0329 35.8888C20.9778 34.8418 20.157 35.556 19.7626 35.8991C19.6154 36.0273 19.4485 36.1724 19.3388 36.1922C19.235 36.2097 19.046 36.1041 18.8311 35.9069C18.5806 35.6772 18.1915 35.694 17.9618 35.9446C17.7322 36.1951 17.749 36.5842 17.9995 36.8139C19.2587 37.9687 20.1446 37.1979 20.5703 36.8274C20.6743 36.7369 20.8484 36.5854 20.908 36.5743C20.9089 36.5744 20.9923 36.5895 21.1657 36.7616C21.5511 37.1451 22.0206 37.5322 22.5996 37.5322C22.6258 37.5322 22.6522 37.5314 22.6788 37.5299C23.1041 37.5041 23.4955 37.2675 23.8416 36.8274C24.0939 36.5074 24.2713 36.1921 24.4139 35.9388C24.465 35.8481 24.5259 35.7396 24.5819 35.6505C24.6148 35.7022 24.6481 35.7565 24.6775 35.8043C25.023 36.3677 25.6612 37.4068 27.0799 37.2883C27.0824 37.2883 27.085 37.2889 27.0875 37.2889C27.1788 37.2889 27.2601 37.2677 27.3313 37.236C27.3418 37.2315 27.3518 37.2264 27.362 37.2214C27.3641 37.2204 27.3662 37.2194 27.3682 37.2183C27.3982 37.2031 27.4267 37.1858 27.4533 37.1662C27.5405 37.1051 27.6056 37.0346 27.648 36.9887C27.655 36.9811 27.6618 36.9733 27.6685 36.9652L31.4328 32.432C31.4384 32.4253 31.4429 32.4178 31.4482 32.411C31.455 32.4021 31.4615 32.3933 31.4678 32.3841C31.4808 32.365 31.4925 32.3453 31.5031 32.3251C31.5063 32.3189 31.5101 32.3133 31.5131 32.307C31.5264 32.2796 31.5372 32.2513 31.5462 32.2225C31.547 32.2199 31.5482 32.2178 31.549 32.2152L33.2794 26.428V40.7695H2.13281V21.6133C2.13281 21.2734 1.85735 20.998 1.51758 20.998C1.1778 20.998 0.902344 21.2734 0.902344 21.6133V40.8333C0.902344 41.4766 1.42496 42 2.06735 42H33.3427C33.9864 42 34.51 41.4766 34.51 40.8332V22.3127L38.259 9.77468L39.7167 10.2094L37.2165 18.5699C37.1191 18.8954 37.3041 19.2382 37.6297 19.3356C37.6885 19.3531 37.7478 19.3615 37.8062 19.3615C38.0711 19.3615 38.3156 19.1891 38.3955 18.9223L41.072 9.97205C41.1187 9.8157 41.1013 9.6472 41.0237 9.50357ZM36.1174 2.77799C36.1965 2.5118 36.3761 2.29171 36.6231 2.15832C36.8708 2.02437 37.1546 1.99492 37.4231 2.07523C37.9761 2.23978 38.2919 2.82466 38.1273 3.37805L37.4883 5.51414L35.4784 4.91425L36.1174 2.77799ZM27.8081 4.7839L27.8111 2.04914L32.3589 6.38105H29.4057C28.5248 6.38105 27.8081 5.66426 27.8081 4.7839ZM27.5055 35.2354L27.0879 31.5259L29.8912 32.3622L27.5055 35.2354Z" fill="url(#paint0_linear)"/>
<path d="M41.0237 9.50357C40.9461 9.35993 40.8147 9.25296 40.6582 9.20628L38.6115 8.59581L38.9793 7.36567C39.0835 7.0222 39.0466 6.65823 38.8756 6.34077C38.8083 6.21592 38.7232 6.10501 38.6243 6.00945L39.3063 3.7298C39.6645 2.52517 38.9771 1.25385 37.775 0.896273C37.1923 0.721875 36.5754 0.785531 36.0381 1.07576C35.5016 1.36566 35.1109 1.84562 34.9382 2.42632L34.2561 4.70605C33.8117 4.78948 33.4246 5.0934 33.2523 5.53284L27.9752 0.506625L27.8828 0.418277C27.7724 0.312129 27.6686 0.213691 27.5487 0.138551C27.5434 0.134859 27.538 0.13125 27.5325 0.127723C27.5303 0.12641 27.5281 0.125016 27.526 0.123785C27.4787 0.0937617 27.4271 0.0698906 27.3722 0.0536484C27.2797 0.0205898 27.1765 0 27.0531 0H2.06735C1.42496 0 0.902344 0.522375 0.902344 1.16443V18.7694C0.902344 19.1093 1.1778 19.3846 1.51758 19.3846C1.85735 19.3846 2.13281 19.1093 2.13281 18.7694V1.23047H26.5817L26.5776 4.78324C26.5776 6.34282 27.8463 7.6116 29.4058 7.6116H32.6249L30.0953 16.0706C29.9979 16.3961 30.1829 16.7389 30.5085 16.8363C30.8342 16.934 31.1768 16.7486 31.2742 16.4231L34.0332 7.19701C34.0384 7.18192 34.0429 7.16666 34.047 7.15107L34.3937 5.99181C34.4106 5.93463 34.4779 5.9001 34.5364 5.91732L37.7264 6.86946C37.7622 6.88004 37.782 6.90514 37.7923 6.92426C37.8025 6.94329 37.8125 6.97339 37.8011 7.01096L37.2573 8.82952C37.2569 8.83091 37.2562 8.83222 37.2558 8.83362C37.2554 8.83501 37.2552 8.83641 37.2548 8.83772L30.5461 31.2736L29.4329 30.9415L27.1386 30.2571L30.461 19.1482C30.5584 18.8226 30.3734 18.4798 30.0478 18.3825C29.7224 18.285 29.3795 18.4701 29.2821 18.7956L25.7832 30.4942C25.7822 30.4978 25.7816 30.5015 25.7805 30.5052C25.7785 30.5125 25.7769 30.5199 25.7751 30.5273C25.7714 30.5428 25.7682 30.5584 25.7658 30.5739C25.7645 30.5817 25.7634 30.5895 25.7624 30.5973C25.7604 30.6144 25.7591 30.6315 25.7586 30.6486C25.7583 30.6548 25.7578 30.6607 25.7577 30.6669C25.7576 30.6903 25.7586 30.7136 25.7612 30.7369C25.7613 30.7376 25.7612 30.7383 25.7613 30.7391L26.1014 33.7744L26.3447 35.9231C26.1116 35.7703 25.9365 35.5042 25.7262 35.1611C25.468 34.7398 25.1142 34.163 24.4368 34.2902C23.8677 34.4 23.6001 34.8755 23.3413 35.3353C23.2071 35.5738 23.0682 35.8206 22.8747 36.0662C22.7316 36.2481 22.635 36.2998 22.604 36.3016C22.5793 36.3037 22.4362 36.29 22.0329 35.8888C20.9778 34.8418 20.157 35.556 19.7626 35.8991C19.6154 36.0273 19.4485 36.1724 19.3388 36.1922C19.235 36.2097 19.046 36.1041 18.8311 35.9069C18.5806 35.6772 18.1915 35.694 17.9618 35.9446C17.7322 36.1951 17.749 36.5842 17.9995 36.8139C19.2587 37.9687 20.1446 37.1979 20.5703 36.8274C20.6743 36.7369 20.8484 36.5854 20.908 36.5743C20.9089 36.5744 20.9923 36.5895 21.1657 36.7616C21.5511 37.1451 22.0206 37.5322 22.5996 37.5322C22.6258 37.5322 22.6522 37.5314 22.6788 37.5299C23.1041 37.5041 23.4955 37.2675 23.8416 36.8274C24.0939 36.5074 24.2713 36.1921 24.4139 35.9388C24.465 35.8481 24.5259 35.7396 24.5819 35.6505C24.6148 35.7022 24.6481 35.7565 24.6775 35.8043C25.023 36.3677 25.6612 37.4068 27.0799 37.2883C27.0824 37.2883 27.085 37.2889 27.0875 37.2889C27.1788 37.2889 27.2601 37.2677 27.3313 37.236C27.3418 37.2315 27.3518 37.2264 27.362 37.2214C27.3641 37.2204 27.3662 37.2194 27.3682 37.2183C27.3982 37.2031 27.4267 37.1858 27.4533 37.1662C27.5405 37.1051 27.6056 37.0346 27.648 36.9887C27.655 36.9811 27.6618 36.9733 27.6685 36.9652L31.4328 32.432C31.4384 32.4253 31.4429 32.4178 31.4482 32.411C31.455 32.4021 31.4615 32.3933 31.4678 32.3841C31.4808 32.365 31.4925 32.3453 31.5031 32.3251C31.5063 32.3189 31.5101 32.3133 31.5131 32.307C31.5264 32.2796 31.5372 32.2513 31.5462 32.2225C31.547 32.2199 31.5482 32.2178 31.549 32.2152L33.2794 26.428V40.7695H2.13281V21.6133C2.13281 21.2734 1.85735 20.998 1.51758 20.998C1.1778 20.998 0.902344 21.2734 0.902344 21.6133V40.8333C0.902344 41.4766 1.42496 42 2.06735 42H33.3427C33.9864 42 34.51 41.4766 34.51 40.8332V22.3127L38.259 9.77468L39.7167 10.2094L37.2165 18.5699C37.1191 18.8954 37.3041 19.2382 37.6297 19.3356C37.6885 19.3531 37.7478 19.3615 37.8062 19.3615C38.0711 19.3615 38.3156 19.1891 38.3955 18.9223L41.072 9.97205C41.1187 9.8157 41.1013 9.6472 41.0237 9.50357ZM36.1174 2.77799C36.1965 2.5118 36.3761 2.29171 36.6231 2.15832C36.8708 2.02437 37.1546 1.99492 37.4231 2.07523C37.9761 2.23978 38.2919 2.82466 38.1273 3.37805L37.4883 5.51414L35.4784 4.91425L36.1174 2.77799ZM27.8081 4.7839L27.8111 2.04914L32.3589 6.38105H29.4057C28.5248 6.38105 27.8081 5.66426 27.8081 4.7839ZM27.5055 35.2354L27.0879 31.5259L29.8912 32.3622L27.5055 35.2354Z" stroke="url(#paint1_linear)" stroke-width="0.4" mask="url(#path-1-outside-1)"/>
<path d="M8.58974 16.6074C8.58974 17.0025 8.90998 17.3227 9.30497 17.3227H26.0096C26.4046 17.3227 26.7248 17.0025 26.7248 16.6074C26.7248 16.2123 26.4046 15.8922 26.0096 15.8922H9.30497C8.90997 15.8922 8.58974 16.2124 8.58974 16.6074Z" fill="url(#paint2_linear)" stroke="url(#paint3_linear)" stroke-width="0.2"/>
<path d="M9.30497 22.1039H24.9916C25.3865 22.1039 25.7068 21.7838 25.7068 21.3887C25.7068 20.9936 25.3865 20.6734 24.9916 20.6734H9.30497C8.90998 20.6734 8.58974 20.9936 8.58974 21.3887C8.58974 21.7838 8.90998 22.1039 9.30497 22.1039Z" fill="url(#paint4_linear)" stroke="url(#paint5_linear)" stroke-width="0.2"/>
<path d="M9.30497 26.8871H23.7779C24.1729 26.8871 24.4931 26.567 24.4931 26.1719C24.4931 25.7768 24.1729 25.4566 23.7779 25.4566H9.30497C8.90998 25.4566 8.58974 25.7768 8.58974 26.1719C8.58974 26.567 8.90998 26.8871 9.30497 26.8871Z" fill="url(#paint6_linear)" stroke="url(#paint7_linear)" stroke-width="0.2"/>
<path d="M9.30497 31.6703H19.2168C19.6118 31.6703 19.932 31.3502 19.932 30.9551C19.932 30.56 19.6118 30.2398 19.2168 30.2398H9.30497C8.90998 30.2398 8.58974 30.56 8.58974 30.9551C8.58974 31.3502 8.90998 31.6703 9.30497 31.6703Z" fill="url(#paint8_linear)" stroke="url(#paint9_linear)" stroke-width="0.2"/>
<path d="M23.9527 12.5941V12.5942H24.0527C24.6783 12.5942 25.1873 12.0856 25.1873 11.4601V8.9794C25.1873 8.35392 24.6783 7.84531 24.0527 7.84531H10.5139C9.8883 7.84531 9.37945 8.35394 9.37945 8.9794V11.46C9.37945 12.0855 9.8883 12.5941 10.5139 12.5941H23.9527ZM10.8099 9.2757H23.7569V11.1637H10.8099V9.2757Z" fill="url(#paint10_linear)" stroke="url(#paint11_linear)" stroke-width="0.2"/>
</g>
<defs>
<linearGradient id="paint0_linear" x1="41.0977" y1="42" x2="-0.981638" y2="40.019" gradientUnits="userSpaceOnUse">
<stop stop-color="#2CA824"/>
<stop offset="1" stop-color="#45CF3C"/>
</linearGradient>
<linearGradient id="paint1_linear" x1="41.0977" y1="42" x2="-0.981638" y2="40.019" gradientUnits="userSpaceOnUse">
<stop stop-color="#2CA824"/>
<stop offset="1" stop-color="#45CF3C"/>
</linearGradient>
<linearGradient id="paint2_linear" x1="26.6248" y1="17.2227" x2="14.1966" y2="8.31171" gradientUnits="userSpaceOnUse">
<stop stop-color="#2CA824"/>
<stop offset="1" stop-color="#45CF3C"/>
</linearGradient>
<linearGradient id="paint3_linear" x1="26.6248" y1="17.2227" x2="14.1966" y2="8.31171" gradientUnits="userSpaceOnUse">
<stop stop-color="#2CA824"/>
<stop offset="1" stop-color="#45CF3C"/>
</linearGradient>
<linearGradient id="paint4_linear" x1="25.6068" y1="22.0039" x2="13.4278" y2="13.7674" gradientUnits="userSpaceOnUse">
<stop stop-color="#2CA824"/>
<stop offset="1" stop-color="#45CF3C"/>
</linearGradient>
<linearGradient id="paint5_linear" x1="25.6068" y1="22.0039" x2="13.4278" y2="13.7674" gradientUnits="userSpaceOnUse">
<stop stop-color="#2CA824"/>
<stop offset="1" stop-color="#45CF3C"/>
</linearGradient>
<linearGradient id="paint6_linear" x1="24.3931" y1="26.7871" x2="12.5749" y2="19.3679" gradientUnits="userSpaceOnUse">
<stop stop-color="#2CA824"/>
<stop offset="1" stop-color="#45CF3C"/>
</linearGradient>
<linearGradient id="paint7_linear" x1="24.3931" y1="26.7871" x2="12.5749" y2="19.3679" gradientUnits="userSpaceOnUse">
<stop stop-color="#2CA824"/>
<stop offset="1" stop-color="#45CF3C"/>
</linearGradient>
<linearGradient id="paint8_linear" x1="19.832" y1="31.5703" x2="10.0772" y2="27.2251" gradientUnits="userSpaceOnUse">
<stop stop-color="#2CA824"/>
<stop offset="1" stop-color="#45CF3C"/>
</linearGradient>
<linearGradient id="paint9_linear" x1="19.832" y1="31.5703" x2="10.0772" y2="27.2251" gradientUnits="userSpaceOnUse">
<stop stop-color="#2CA824"/>
<stop offset="1" stop-color="#45CF3C"/>
</linearGradient>
<linearGradient id="paint10_linear" x1="25.0873" y1="12.4942" x2="9.16525" y2="9.80687" gradientUnits="userSpaceOnUse">
<stop stop-color="#2CA824"/>
<stop offset="1" stop-color="#45CF3C"/>
</linearGradient>
<linearGradient id="paint11_linear" x1="25.0873" y1="12.4942" x2="9.16525" y2="9.80687" gradientUnits="userSpaceOnUse">
<stop stop-color="#2CA824"/>
<stop offset="1" stop-color="#45CF3C"/>
</linearGradient>
<clipPath id="clip0">
<rect width="42" height="42" fill="white"/>
</clipPath>
</defs>
</svg>
