<svg width="44" height="40" viewBox="0 0 44 40" fill="none" xmlns="http://www.w3.org/2000/svg">
<path d="M11.7773 25.4999H14.7107C15.4929 25.5009 16.1382 24.8879 16.1773 24.1066C16.7409 15.8461 23.3168 9.27018 31.5773 8.70661V9.36661C31.5817 9.91625 31.8931 10.4173 32.384 10.6646C32.9078 10.936 33.5396 10.8907 34.0193 10.5473L39.0353 6.88061C39.4104 6.60416 39.6319 6.16591 39.6319 5.69994C39.6319 5.23397 39.4104 4.79573 39.0353 4.51928L34.012 0.85261C33.5351 0.508866 32.9052 0.463465 32.384 0.735276C31.876 0.970197 31.546 1.47374 31.5333 2.03328V2.76661C20.0721 3.35228 10.9082 12.5067 10.3107 23.9673C10.2927 24.363 10.4355 24.7492 10.7067 25.0379C10.9844 25.3333 11.3719 25.5005 11.7773 25.4999ZM32.2667 4.23328C32.6717 4.23328 33 3.90495 33 3.49994V2.03328C33.0239 2.02592 33.0494 2.02592 33.0733 2.03328C33.0872 2.02667 33.1034 2.02667 33.1173 2.03328L38.1333 5.69994L33.1247 9.36661C33.1056 9.37278 33.0851 9.37278 33.066 9.36661H33V7.89994C33 7.49493 32.6717 7.16661 32.2667 7.16661C22.9284 7.39383 15.3081 14.7119 14.7033 24.0333H11.77C12.3597 13.0827 21.3022 4.44412 32.2667 4.23328Z" fill="url(#paint0_linear)"/>
<path d="M44 25.1333C44 18.8556 38.911 13.7666 32.6333 13.7666C26.3557 13.7666 21.2667 18.8556 21.2667 25.1333C21.2537 27.6577 22.0935 30.1125 23.65 32.0999H21.2667V31.3666C21.2667 30.9616 20.9383 30.6333 20.5333 30.6333C20.1283 30.6333 19.8 30.9616 19.8 31.3666V32.0999H18.3333V30.6333C18.3333 30.2283 18.005 29.8999 17.6 29.8999C17.195 29.8999 16.8667 30.2283 16.8667 30.6333V32.0999H15.4V31.3666C15.4 30.9616 15.0717 30.6333 14.6667 30.6333C14.2617 30.6333 13.9333 30.9616 13.9333 31.3666V32.0999H12.4667V30.6333C12.4667 30.2283 12.1383 29.8999 11.7333 29.8999C11.3283 29.8999 11 30.2283 11 30.6333V32.0999H9.53333V31.3666C9.53333 30.9616 9.20501 30.6333 8.8 30.6333C8.39499 30.6333 8.06667 30.9616 8.06667 31.3666V32.0999H6.6V30.6333C6.6 30.2283 6.27167 29.8999 5.86667 29.8999C5.46166 29.8999 5.13333 30.2283 5.13333 30.6333V32.0999H3.66667V31.3666C3.66667 30.9616 3.33834 30.6333 2.93333 30.6333C2.52832 30.6333 2.2 30.9616 2.2 31.3666V32.0999H1.46667C0.656649 32.0999 0 32.7566 0 33.5666V37.9666C0 38.7766 0.656649 39.4333 1.46667 39.4333H42.5333C43.3433 39.4333 44 38.7766 44 37.9666V36.4999C44 35.6899 43.3433 35.0333 42.5333 35.0333H38.192C39.0142 34.5722 39.7775 34.0132 40.4653 33.3686C42.7348 31.2326 44.015 28.2498 44 25.1333ZM42.5333 36.4999V37.9666H1.46667V36.4999H42.5333ZM32.6333 35.0333H1.46667V33.5666H32.6333C36.8121 33.5619 40.3595 30.5027 40.9785 26.37C41.5975 22.2374 39.1021 18.2731 35.1082 17.0442C31.1142 15.8153 26.8219 17.691 25.0106 21.4568C23.1993 25.2226 24.4134 29.7469 27.8667 32.0999H25.6227C23.7636 30.2596 22.7225 27.7491 22.7333 25.1333C22.7333 19.6656 27.1657 15.2333 32.6333 15.2333C38.1009 15.2333 42.5333 19.6656 42.5333 25.1333C42.5293 30.5992 38.0993 35.0292 32.6333 35.0333ZM32.6333 32.0999C28.7857 32.0999 25.6667 28.9809 25.6667 25.1333C25.6667 21.2857 28.7857 18.1666 32.6333 18.1666C36.4809 18.1666 39.6 21.2857 39.6 25.1333C39.596 28.9792 36.4792 32.0959 32.6333 32.0999Z" fill="url(#paint1_linear)"/>
<path d="M32.6333 19.6333C29.5958 19.6333 27.1333 22.0957 27.1333 25.1333C27.1333 28.1709 29.5958 30.6333 32.6333 30.6333C35.6709 30.6333 38.1333 28.1709 38.1333 25.1333C38.1333 22.0957 35.6709 19.6333 32.6333 19.6333ZM32.6333 29.1666C30.4058 29.1666 28.6 27.3609 28.6 25.1333C28.6 22.9058 30.4058 21.1 32.6333 21.1C34.8609 21.1 36.6667 22.9058 36.6667 25.1333C36.6626 27.3592 34.8592 29.1626 32.6333 29.1666Z" fill="url(#paint2_linear)"/>
<path d="M32.6333 22.5667C31.2158 22.5667 30.0667 23.7158 30.0667 25.1333C30.0667 26.5508 31.2158 27.7 32.6333 27.7C34.0508 27.7 35.2 26.5508 35.2 25.1333C35.2 23.7158 34.0508 22.5667 32.6333 22.5667ZM32.6333 26.2333C32.0258 26.2333 31.5333 25.7408 31.5333 25.1333C31.5333 24.5258 32.0258 24.0333 32.6333 24.0333C33.2408 24.0333 33.7333 24.5258 33.7333 25.1333C33.7333 25.7408 33.2408 26.2333 32.6333 26.2333Z" fill="url(#paint3_linear)"/>
<defs>
<linearGradient id="paint0_linear" x1="39.6319" y1="25.4999" x2="8.96929" y2="23.7266" gradientUnits="userSpaceOnUse">
<stop stop-color="#2CA824"/>
<stop offset="1" stop-color="#45CF3C"/>
</linearGradient>
<linearGradient id="paint1_linear" x1="44.0001" y1="39.4333" x2="-1.83844" y2="35.5678" gradientUnits="userSpaceOnUse">
<stop stop-color="#2CA824"/>
<stop offset="1" stop-color="#45CF3C"/>
</linearGradient>
<linearGradient id="paint2_linear" x1="38.1333" y1="30.6333" x2="26.6201" y2="30.067" gradientUnits="userSpaceOnUse">
<stop stop-color="#2CA824"/>
<stop offset="1" stop-color="#45CF3C"/>
</linearGradient>
<linearGradient id="paint3_linear" x1="35.2" y1="27.7" x2="29.8271" y2="27.4357" gradientUnits="userSpaceOnUse">
<stop stop-color="#2CA824"/>
<stop offset="1" stop-color="#45CF3C"/>
</linearGradient>
</defs>
</svg>
<svg width="44" height="40" fill="none">
  <path d="M11.8 25.5h3c.7 0 1.3-.6 1.4-1.4.5-8.3 7.1-14.8 15.4-15.4v.7c0 .5.3 1 .8 1.3.5.2 1.1.2 1.6-.2L39 7a1.5 1.5 0 000-2.4L34 1c-.5-.4-1-.4-1.6-.2-.5.3-.9.8-.9 1.3v.8A22.4 22.4 0 0010.3 24a1.5 1.5 0 001.5 1.5zM32.3 4.2c.4 0 .7-.3.7-.7V2h.1l5 3.7-5 3.7H33V7.9c0-.4-.3-.7-.7-.7A18 18 0 0014.7 24h-3A21 21 0 0132.4 4.2z" fill="url(#paint0_linear)"/>
  <path d="M44 25.1a11.4 11.4 0 10-20.4 7h-2.3v-.7a.7.7 0 00-1.5 0v.7h-1.5v-1.5a.7.7 0 10-1.4 0v1.5h-1.5v-.7a.7.7 0 10-1.5 0v.7h-1.4v-1.5a.7.7 0 00-1.5 0v1.5H9.5v-.7a.7.7 0 00-1.4 0v.7H6.6v-1.5a.7.7 0 10-1.5 0v1.5H3.7v-.7a.7.7 0 00-1.5 0v.7h-.7c-.8 0-1.5.7-1.5 1.5V38c0 .8.7 1.4 1.5 1.4h41c.8 0 1.5-.6 1.5-1.4v-1.5c0-.8-.7-1.5-1.5-1.5h-4.3c.8-.4 1.6-1 2.3-1.6 2.2-2.2 3.5-5.2 3.5-8.3zm-1.5 11.4V38h-41v-1.5h41zM32.6 35H1.5v-1.4h31.1A8.4 8.4 0 1028 32h-2.3a9.9 9.9 0 117 3zm0-2.9a7 7 0 110-14 7 7 0 010 14z" fill="url(#paint1_linear)"/>
  <path d="M32.6 19.6a5.5 5.5 0 100 11 5.5 5.5 0 000-11zm0 9.6a4 4 0 110-8.1 4 4 0 010 8z" fill="url(#paint2_linear)"/>
  <path d="M32.6 22.6a2.6 2.6 0 100 5.1 2.6 2.6 0 000-5.1zm0 3.6a1.1 1.1 0 110-2.2 1.1 1.1 0 010 2.2z" fill="url(#paint3_linear)"/>
  <defs>
    <linearGradient id="paint0_linear" x1="39.6" y1="25.5" x2="9" y2="23.7" gradientUnits="userSpaceOnUse">
      <stop offset="0" stop-color="#2CA824"/>
      <stop offset="1" stop-color="#45CF3C"/>
    </linearGradient>
    <linearGradient id="paint1_linear" x1="44" y1="39.4" x2="-1.8" y2="35.6" gradientUnits="userSpaceOnUse">
      <stop offset="0" stop-color="#2CA824"/>
      <stop offset="1" stop-color="#45CF3C"/>
    </linearGradient>
    <linearGradient id="paint2_linear" x1="38.1" y1="30.6" x2="26.6" y2="30.1" gradientUnits="userSpaceOnUse">
      <stop offset="0" stop-color="#2CA824"/>
      <stop offset="1" stop-color="#45CF3C"/>
    </linearGradient>
    <linearGradient id="paint3_linear" x1="35.2" y1="27.7" x2="29.8" y2="27.4" gradientUnits="userSpaceOnUse">
      <stop offset="0" stop-color="#2CA824"/>
      <stop offset="1" stop-color="#45CF3C"/>
    </linearGradient>
  </defs>
</svg>
