<svg width="44" height="44" viewBox="0 0 44 44" fill="none" xmlns="http://www.w3.org/2000/svg">
<g clip-path="url(#clip0)">
<path d="M35.4342 29.9262C35.2088 29.4754 34.6679 29.2951 34.2261 29.5205L32.8016 30.2328V28.5017C32.8016 28.0058 32.3958 27.6001 31.9 27.6001C31.4041 27.6001 30.9984 28.0058 30.9984 28.5017V30.2328L29.5738 29.5205C29.1321 29.2951 28.5911 29.4844 28.3657 29.9262C28.1403 30.368 28.3296 30.909 28.7714 31.1344L29.8804 31.6843L28.7714 32.2343C28.3206 32.4597 28.1403 33.0007 28.3477 33.4424C28.51 33.758 28.8255 33.9383 29.1591 33.9383C29.2944 33.9383 29.4386 33.9022 29.5648 33.8391L30.9894 33.1269V34.8579C30.9894 35.3538 31.3951 35.7595 31.891 35.7595C32.3868 35.7595 32.7925 35.3538 32.7925 34.8579V33.1269L34.2171 33.8391C34.3523 33.9113 34.4875 33.9383 34.6228 33.9383C34.9564 33.9383 35.281 33.758 35.4342 33.4424C35.6596 33.0007 35.4703 32.4597 35.0285 32.2343L33.9195 31.6843L35.0285 31.1344C35.4793 30.909 35.6596 30.368 35.4342 29.9262Z" fill="url(#paint0_linear)"/>
<path d="M30.8631 38.1486C30.6377 37.6978 30.1058 37.5175 29.655 37.7339L28.1944 38.4551V36.7151C28.1944 36.2192 27.7887 35.8135 27.2928 35.8135C26.7969 35.8135 26.3912 36.2192 26.3912 36.7151V38.4551L24.9306 37.7339C24.4798 37.5175 23.9389 37.6978 23.7225 38.1486C23.5061 38.5994 23.6864 39.1404 24.1372 39.3567L25.2552 39.9067L24.1372 40.4567C23.6864 40.6731 23.5061 41.214 23.7225 41.6648C23.8848 41.9804 24.2003 42.1697 24.5339 42.1697C24.6692 42.1697 24.8044 42.1427 24.9306 42.0796L26.3912 41.3583V43.0984C26.3912 43.5942 26.7969 44 27.2928 44C27.7887 44 28.1944 43.5942 28.1944 43.0984V41.3583L29.655 42.0796C29.7812 42.1427 29.9165 42.1697 30.0517 42.1697C30.3853 42.1697 30.7099 41.9804 30.8631 41.6648C31.0795 41.214 30.8992 40.6731 30.4484 40.4567L29.3304 39.9067L30.4484 39.3567C30.8992 39.1313 31.0795 38.5994 30.8631 38.1486Z" fill="url(#paint1_linear)"/>
<path d="M7.70115 33.9383C8.03474 33.9383 8.3503 33.758 8.51258 33.4424C8.71995 33.0007 8.53963 32.4597 8.08883 32.2343L6.97987 31.6843L8.08883 31.1344C8.53062 30.909 8.71995 30.368 8.49455 29.9262C8.26915 29.4844 7.7282 29.2951 7.28641 29.5205L5.86189 30.2328V28.5017C5.86189 28.0058 5.45618 27.6001 4.9603 27.6001C4.46442 27.6001 4.0587 28.0058 4.0587 28.5017V30.2328L2.63418 29.5205C2.1924 29.2951 1.65145 29.4754 1.42605 29.9262C1.20065 30.368 1.38097 30.909 1.83176 31.1344L2.94073 31.6843L1.83176 32.2343C1.38998 32.4597 1.20065 33.0007 1.42605 33.4424C1.57932 33.758 1.90389 33.9383 2.23748 33.9383C2.37272 33.9383 2.50796 33.9113 2.6432 33.8391L4.06772 33.1269V34.8579C4.06772 35.3538 4.47344 35.7595 4.96932 35.7595C5.46519 35.7595 5.87091 35.3538 5.87091 34.8579V33.1269L7.29543 33.8391C7.42165 33.9022 7.56591 33.9383 7.70115 33.9383Z" fill="url(#paint2_linear)"/>
<path d="M13.1378 38.1486C12.9214 37.6978 12.3804 37.5175 11.9296 37.7339L10.469 38.4551V36.7151C10.469 36.2192 10.0633 35.8135 9.56745 35.8135C9.07157 35.8135 8.66585 36.2192 8.66585 36.7151V38.4551L7.20527 37.7339C6.75447 37.5175 6.22253 37.6978 5.99713 38.1486C5.78075 38.5994 5.96107 39.1313 6.41187 39.3567L7.52984 39.9067L6.41187 40.4567C5.96107 40.6731 5.78075 41.214 5.99713 41.6648C6.1504 41.9804 6.47498 42.1697 6.80857 42.1697C6.94381 42.1697 7.07905 42.1427 7.20527 42.0796L8.66585 41.3583V43.0984C8.66585 43.5942 9.07157 44 9.56745 44C10.0633 44 10.469 43.5942 10.469 43.0984V41.3583L11.9296 42.0796C12.0559 42.1427 12.1911 42.1697 12.3263 42.1697C12.6599 42.1697 12.9755 41.9804 13.1378 41.6648C13.3541 41.214 13.1738 40.6731 12.723 40.4567L11.6051 39.9067L12.723 39.3567C13.1738 39.1404 13.3541 38.5994 13.1378 38.1486Z" fill="url(#paint3_linear)"/>
<path d="M42.5027 11.3082C42.2954 11.0197 41.9437 10.8844 41.5921 10.9566C41.3126 11.0107 41.0872 11.0107 40.7356 11.0107C37.1743 11.0107 34.2712 8.12556 34.2712 4.57327C34.2712 3.39218 34.5416 2.36437 35.1097 1.34557C35.281 1.04804 35.2629 0.669372 35.0646 0.389877C34.8662 0.101367 34.5236 -0.0428896 34.181 0.0112061C32.1975 0.326764 30.3853 1.32754 29.087 2.82418C28.0321 4.03232 27.3469 5.52897 27.1125 7.11577C25.9404 6.69202 24.6782 6.45761 23.3529 6.45761C19.2596 6.45761 15.527 8.70258 13.6246 12.2549C12.9484 12.0565 12.1821 11.9664 11.3526 11.9664C6.79956 11.9664 3.08498 15.6629 3.08498 20.2069C3.08498 24.751 6.79054 28.4475 11.3526 28.4475H18.7727L15.3016 32.4596C15.0582 32.7481 15.0131 33.1538 15.1934 33.4874C15.3737 33.821 15.7524 34.0013 16.1221 33.9382L19.2596 33.4423L16.2483 37.0217C15.9237 37.4003 15.9778 37.9684 16.3565 38.2929C16.5278 38.4372 16.7351 38.5003 16.9335 38.5003C17.195 38.5003 17.4474 38.3921 17.6277 38.1757L22.1898 32.7481C22.4332 32.4596 22.4693 32.0539 22.28 31.7203C22.0906 31.3867 21.721 31.2154 21.3513 31.2695L18.2679 31.7654L21.1349 28.4385H23.3258C29.3845 28.4385 34.3163 23.4887 34.3163 17.412C34.3163 17.0784 34.2982 16.7538 34.2712 16.4292C34.6138 16.4653 34.9654 16.4833 35.326 16.4833C38.3464 16.4833 41.0331 14.9146 42.5208 12.2819C42.7372 11.9754 42.7101 11.5967 42.5027 11.3082ZM23.3709 26.6443H11.3706C7.80934 26.6443 4.90621 23.7592 4.90621 20.2069C4.90621 16.6546 7.80033 13.7695 11.3706 13.7695C12.2813 13.7695 13.0927 13.9228 13.7238 14.2023C13.9402 14.3015 14.1926 14.3105 14.418 14.2203C14.6434 14.1302 14.8238 13.9589 14.9229 13.7425C16.3925 10.4156 19.7104 8.2608 23.3709 8.2608C28.4379 8.2608 32.5581 12.3631 32.5581 17.412C32.5581 22.506 28.4379 26.6443 23.3709 26.6443ZM35.3711 14.6802C34.8843 14.6802 34.4335 14.6441 33.9827 14.572C33.2163 11.741 31.341 9.36074 28.8526 7.92721C29.0239 5.43881 30.5656 3.30202 32.7835 2.30125C32.5852 3.02253 32.486 3.77085 32.486 4.57327C32.486 8.84684 35.7678 12.3811 39.9602 12.7778C38.7611 13.9859 37.1382 14.6802 35.3711 14.6802Z" fill="url(#paint4_linear)"/>
</g>
<defs>
<linearGradient id="paint0_linear" x1="35.5313" y1="35.7595" x2="27.9191" y2="35.4259" gradientUnits="userSpaceOnUse">
<stop stop-color="#2CA824"/>
<stop offset="1" stop-color="#45CF3C"/>
</linearGradient>
<linearGradient id="paint1_linear" x1="30.9544" y1="44" x2="23.2858" y2="43.6625" gradientUnits="userSpaceOnUse">
<stop stop-color="#2CA824"/>
<stop offset="1" stop-color="#45CF3C"/>
</linearGradient>
<linearGradient id="paint2_linear" x1="8.59816" y1="35.7595" x2="0.986054" y2="35.4259" gradientUnits="userSpaceOnUse">
<stop stop-color="#2CA824"/>
<stop offset="1" stop-color="#45CF3C"/>
</linearGradient>
<linearGradient id="paint3_linear" x1="13.229" y1="44" x2="5.56049" y2="43.6625" gradientUnits="userSpaceOnUse">
<stop stop-color="#2CA824"/>
<stop offset="1" stop-color="#45CF3C"/>
</linearGradient>
<linearGradient id="paint4_linear" x1="42.6711" y1="38.5003" x2="1.24369" y2="36.405" gradientUnits="userSpaceOnUse">
<stop stop-color="#2CA824"/>
<stop offset="1" stop-color="#45CF3C"/>
</linearGradient>
<clipPath id="clip0">
<rect width="44" height="44" fill="white"/>
</clipPath>
</defs>
</svg>
