<svg width="44" height="44" fill="none">
  <g clip-path="url(#clip0)">
    <path d="M35.4 30a.9.9 0 00-1.2-.5l-1.4.7v-1.7c0-.5-.4-.9-.9-.9s-.9.4-.9.9v1.7l-1.4-.7c-.5-.2-1 0-1.2.4-.3.5 0 1 .4 1.2l1 .6-1 .5a1 1 0 00-.5 1.2 1 1 0 001.3.4l1.4-.7V35c0 .5.4.9.9.9s.9-.4.9-1v-1.7l1.4.7.4.1a.9.9 0 00.4-1.7l-1-.5 1-.6c.5-.2.7-.7.4-1.2z" fill="url(#paint0_linear)"/>
    <path d="M30.9 38.1a.9.9 0 00-1.2-.4l-1.5.8v-1.8c0-.5-.4-.9-1-.9-.4 0-.8.4-.8 1v1.7l-1.5-.8a.9.9 0 10-.8 1.7l1.2.5-1.2.6A.9.9 0 1025 42l1.5-.7V43c0 .5.4.9.9.9s.9-.4.9-.9v-1.7l1.5.7h.4c.3 0 .6-.1.8-.4.2-.5 0-1-.5-1.2l-1-.6 1-.5c.5-.3.7-.8.5-1.3z" fill="url(#paint1_linear)"/>
    <path d="M7.7 34c.3 0 .7-.2.8-.6.2-.4 0-1-.4-1.2L7 31.7l1-.6c.5-.2.7-.7.5-1.2a.9.9 0 00-1.2-.4l-1.4.7v-1.7c0-.5-.4-.9-1-.9-.4 0-.8.4-.8.9v1.7l-1.5-.7c-.4-.2-1 0-1.2.4-.2.5 0 1 .4 1.2l1.1.6-1 .5c-.5.3-.7.8-.5 1.2a.9.9 0 001.2.4l1.5-.7V35c0 .5.4.9.9.9s.9-.4.9-1v-1.7l1.4.7.4.1z" fill="url(#paint2_linear)"/>
    <path d="M13.1 38.1a.9.9 0 00-1.2-.4l-1.4.8v-1.8c0-.5-.4-.9-1-.9-.4 0-.8.4-.8 1v1.7l-1.5-.8a.9.9 0 00-.8 1.7l1.1.5-1 .6a.9.9 0 10.7 1.6l1.5-.7V43c0 .5.4.9.9.9s.9-.4.9-.9v-1.7l1.4.7h.4c.4 0 .7-.1.8-.4.3-.5 0-1-.4-1.2l-1-.6 1-.5c.5-.3.7-.8.4-1.3z" fill="url(#paint3_linear)"/>
    <path d="M42.5 11.3a.9.9 0 00-1-.3h-.8a6.5 6.5 0 01-5.6-9.7c.2-.3.2-.6 0-1a.9.9 0 00-1-.3 8.5 8.5 0 00-7 7.1 11 11 0 00-13.5 5.2 8.3 8.3 0 00-10.5 8c0 4.5 3.7 8.1 8.3 8.1h7.4l-3.5 4a1 1 0 00-.1 1c.2.4.6.6 1 .5l3-.5-3 3.6a.9.9 0 101.4 1.2l4.6-5.5c.2-.2.3-.6 0-1a1 1 0 00-.8-.4l-3.1.5 2.8-3.4h2.2a11 11 0 0011-12h1c3 0 5.7-1.5 7.2-4.1.2-.3.2-.7 0-1zM23.4 26.6h-12a6.5 6.5 0 112.4-12.4h.6c.2 0 .4-.2.5-.5a9.2 9.2 0 0117.7 3.7c0 5.1-4.2 9.2-9.2 9.2zm12-12H34a11 11 0 00-5.1-6.7 6.7 6.7 0 013.9-5.6A8.3 8.3 0 0040 12.8a6.4 6.4 0 01-4.6 1.9z" fill="url(#paint4_linear)"/>
  </g>
  <defs>
    <linearGradient id="paint0_linear" x1="35.5" y1="35.8" x2="27.9" y2="35.4" gradientUnits="userSpaceOnUse">
      <stop offset="0" stop-color="#2CA824"/>
      <stop offset="1" stop-color="#45CF3C"/>
    </linearGradient>
    <linearGradient id="paint1_linear" x1="31" y1="44" x2="23.3" y2="43.7" gradientUnits="userSpaceOnUse">
      <stop offset="0" stop-color="#2CA824"/>
      <stop offset="1" stop-color="#45CF3C"/>
    </linearGradient>
    <linearGradient id="paint2_linear" x1="8.6" y1="35.8" x2="1" y2="35.4" gradientUnits="userSpaceOnUse">
      <stop offset="0" stop-color="#2CA824"/>
      <stop offset="1" stop-color="#45CF3C"/>
    </linearGradient>
    <linearGradient id="paint3_linear" x1="13.2" y1="44" x2="5.6" y2="43.7" gradientUnits="userSpaceOnUse">
      <stop offset="0" stop-color="#2CA824"/>
      <stop offset="1" stop-color="#45CF3C"/>
    </linearGradient>
    <linearGradient id="paint4_linear" x1="42.7" y1="38.5" x2="1.2" y2="36.4" gradientUnits="userSpaceOnUse">
      <stop offset="0" stop-color="#2CA824"/>
      <stop offset="1" stop-color="#45CF3C"/>
    </linearGradient>
    <clipPath id="clip0">
      <path fill="#fff" d="M0 0h44v44H0z"/>
    </clipPath>
  </defs>
</svg>
