<svg width="44" height="44" fill="none">
  <g clip-path="url(#clip0)" stroke-width=".1" fill-rule="evenodd">
    <path d="M9.6 44h0c-.2 0 0 0 0 0zm1.6-1.2v0c-.2.7-.8 1.3-1.6 1.3H5h0c-.7 0-1.4-.6-1.5-1.3 0 0 0 0 0 0L2.3 36h-.1c-.8 0-1.5-.7-1.5-1.5v-2.2c0-.9.7-1.5 1.5-1.5h.2a8.7 8.7 0 01-1.9-4.3h0c0-.5.2-1 .5-1.3.3-.3.8-.5 1.3-.4h0v0c1.6.2 3.1.8 4.4 1.9h0l.6.7.7-.7h0c1.2-1 2.8-1.7 4.4-2h0v0a1.6 1.6 0 011.7 1.8h0c-.2 1.5-.8 3-1.8 4.3h.2c.8 0 1.5.6 1.5 1.5v2.2c0 .8-.7 1.5-1.5 1.5h-.1m-1.2 6.8l1.2-6.8m0 0v0m0 0v0m-4-5.6c-.2-.2-.3-.6-.3-1a3 3 0 011-1.6 7.3 7.3 0 013.4-1.4 7.2 7.2 0 01-1.4 3.4c-.4.5-1 .8-1.6 1-.4 0-.8-.1-1-.4zm-6.3-4s0 0 0 0c1.3 0 2.5.6 3.5 1.4.5.4.8 1 1 1.6a1.2 1.2 0 01-1.4 1.4c-.6-.2-1.2-.5-1.6-1-.8-1-1.3-2.2-1.5-3.4zm.1 6h10.2v2H2.2zM4 36h6.9l-1.2 6.5H5z" fill="url(#paint0_linear)" stroke="url(#paint1_linear)"/>
    <path d="M24.8 25.4c.7-.3 1.5-.5 2.2-.6h0v0c.5 0 1 0 1.3.4.4.3.5.8.5 1.3h0c-.2 1.5-.9 3-1.8 4.3h.1c.9 0 1.6.6 1.6 1.5v2.2c0 .8-.7 1.5-1.6 1.5h0l-1.3 6.8v0c0 .7-.7 1.3-1.5 1.3h0V44m-4.6 0h0zm3-17.3a6 6 0 00-.7.7 6 6 0 00-.6-.7h0l-.8-.6c.2-1.2.7-2.3 1.4-3.3h0c.7 1 1.2 2 1.4 3.3l-.8.6h0zm-5.9-.4s0 0 0 0h0c1.3.2 2.5.7 3.5 1.5.5.4.8 1 1 1.6a1.2 1.2 0 01-1.4 1.4c-.6-.2-1.2-.5-1.6-1-.8-1-1.3-2.2-1.5-3.4zm8.7 9.7l-1.2 6.5h-4.6L18.5 36zm1.6-1.6H16.9v-2h10.2zm-1.4-4.6c-.4.5-1 .8-1.6 1a1.2 1.2 0 01-1.3-1.4 3 3 0 011-1.6 7.3 7.3 0 013.4-1.4 7.2 7.2 0 01-1.5 3.4zm-1-4.4a9.4 9.4 0 00-1.5-3.6h0a1.6 1.6 0 00-2.4 0h0c-.8 1-1.3 2.3-1.6 3.5l-2.2-.5v0h0a1.6 1.6 0 00-1.7 1.7v0h0c.2 1.5.8 3 1.7 4.3H17c-.9 0-1.5.6-1.5 1.5v2.2c0 .8.6 1.5 1.5 1.5h0l1.3 6.8s0 0 0 0c.1.7.8 1.3 1.5 1.3l4.6-.1" fill="url(#paint2_linear)" stroke="url(#paint3_linear)"/>
    <path d="M39 44h0c.7 0 1.4-.5 1.5-1.2 0 0 0 0 0 0l1.2-6.8h.1c.8 0 1.5-.7 1.5-1.5v-2.2c0-.9-.7-1.5-1.5-1.5h-.2c1-1.3 1.6-2.8 1.8-4.3h0a1.6 1.6 0 00-1.7-1.7v0h0c-1.5.2-3 .8-4.3 1.8V24l1.2.3h.4v0h0c1-.2 1.8-.7 2.5-1.4v0h0c1-1.3 1.7-2.8 2-4.5h0a1.6 1.6 0 00-1.8-1.7v0h0c-.7.1-1.5.3-2.1.6a9.4 9.4 0 00-1.7-3.6h0a1.6 1.6 0 00-2.4 0h0c-.8 1-1.4 2.3-1.7 3.6l-2.1-.6v0h0a1.6 1.6 0 00-1.8 1.7h0c.2 1.7 1 3.2 2 4.5v0h0c.6.7 1.5 1.2 2.4 1.3h.4c.4 0 .8 0 1.2-.2v2.6a8.7 8.7 0 00-4.3-1.8v0h0a1.6 1.6 0 00-1.7 1.7h0c.2 1.5.8 3 1.8 4.3h-.2c-.8 0-1.5.6-1.5 1.5v2.2c0 .8.7 1.5 1.5 1.5h.1l1.3 6.8s0 0 0 0c0 .7.7 1.3 1.5 1.3m0 0h0zm3-25.5a6 6 0 00-.7.8 6 6 0 00-.6-.8v0h0l-.8-.6c.1-1.2.6-2.3 1.3-3.3h0c.8 1 1.3 2.1 1.5 3.3l-.8.6v0zm-2.9 4c-.6 0-1.1-.4-1.6-.9a7.3 7.3 0 01-1.4-3.4c1.3.1 2.5.6 3.5 1.4.4.4.8 1 .9 1.6 0 .4 0 .7-.3 1v0h0c-.3.3-.7.4-1 .4zm3.9-2.9a7.3 7.3 0 013.5-1.4 7.2 7.2 0 01-1.5 3.4c-.4.5-1 .9-1.6 1a1.2 1.2 0 01-1.4-1.4 3 3 0 011-1.6zm-7 6.6h0c1.3.2 2.5.7 3.5 1.5.5.4.9 1 1 1.6a1.2 1.2 0 01-1.4 1.4c-.6-.2-1.1-.5-1.6-1-.7-1-1.2-2.2-1.4-3.5h0zm8.7 9.7L39 42.5h-4.5L33.2 36zm1.6-1.6H31.6v-2h10.1zm-4-4c-.2-.2-.3-.6-.3-1a3 3 0 011-1.6 7.3 7.3 0 013.5-1.4 7.2 7.2 0 01-1.5 3.4c-.4.5-1 .8-1.6 1-.4 0-.8-.1-1-.4z" fill="url(#paint4_linear)" stroke="url(#paint5_linear)"/>
    <path d="M28 13.6a2.2 2.2 0 01-1 3l-6.8 3c-.2.2-.6.2-.9.2h0c-.7 0-1.4-.3-1.9-1l-6.1-2.3a3 3 0 00-1.3 1.2l-.3.6c.7.8 1.2 1.9 1.4 3h0a3 3 0 01-6 0c0-.7.3-1.5.7-2.1L7 17.6l-.7-.3a.8.8 0 01-.5-1c.7-1.8 2.1-3.3 3.9-4l4-1.8a2.3 2.3 0 011-3s0 0 0 0l1.4-.6-1.5-3.3c-.2-.5-.3-1.1 0-1.7h0c.1-.5.6-1 1.1-1.2a2.3 2.3 0 013 1.1s0 0 0 0l1.5 3.3 1.3-.6s0 0 0 0c.8-.4 1.8-.2 2.5.5l.8-.4h0a3.7 3.7 0 013 6.8h0l-.6.3m0 0l.9 2m0 0h0M15.4 8.8l1.3-.5 1.5 3.3s0 0 0 0a2.3 2.3 0 003 1.1 2.2 2.2 0 001.1-3h0l-1.5-3.3 1.3-.6s0 0 0 0c.4-.1.8 0 1 .4 0 0 0 0 0 0 1.1 2.3 2.8 5.4 3.8 7.9.1.3-.1.7-.3.8l-7 3.2h0c-.3.2-.7 0-.9-.3 0 0 0 0 0 0l-2.1-4.7h0l-1.2-2.7v0l-.3-.7h0v-.5l.3-.4m1.9-6.5h0l1.8 4v0l1.8 4v.6h0c0 .1-.2.3-.4.3v0h0c-.3.2-.7 0-.9-.3v0l-1.8-4h0L16 3h0v-.5a.7.7 0 011.3 0zm-2.5 10.7l-4 1.8h0c-.8.4-1.4 1-1.9 1.7l-1.2-.5c.5-1 1.5-2 2.6-2.4l4-1.8zm.7 1.4l1 2.3-3.3-1.3zm9.8-8.3c1-.4 2.4 0 2.9 1s0 2.3-1 2.8c0 0 0 0 0 0l-.7.3-1.8-3.8zM8.1 18.8L9 20l.4 1.2a1.4 1.4 0 01-2.9 0c0-.3.2-.8.5-1.2.3-.5.6-1 1-1.3z" fill="url(#paint6_linear)" stroke="url(#paint7_linear)"/>
  </g>
  <defs id="defs1405">
    <linearGradient id="paint0_linear" x1="14.1" y1="44" x2="-.1" y2="43.5" gradientUnits="userSpaceOnUse">
      <stop offset="0" stop-color="#2CA824" id="stop1362"/>
      <stop offset="1" stop-color="#45CF3C" id="stop1364"/>
    </linearGradient>
    <linearGradient id="paint1_linear" x1="14.1" y1="44" x2="-.1" y2="43.5" gradientUnits="userSpaceOnUse">
      <stop offset="0" stop-color="#2CA824" id="stop1367"/>
      <stop offset="1" stop-color="#45CF3C" id="stop1369"/>
    </linearGradient>
    <linearGradient id="paint2_linear" x1="28.7" y1="44" x2="14.7" y2="43.6" gradientUnits="userSpaceOnUse">
      <stop offset="0" stop-color="#2CA824" id="stop1372"/>
      <stop offset="1" stop-color="#45CF3C" id="stop1374"/>
    </linearGradient>
    <linearGradient id="paint3_linear" x1="28.7" y1="44" x2="14.7" y2="43.6" gradientUnits="userSpaceOnUse">
      <stop offset="0" stop-color="#2CA824" id="stop1377"/>
      <stop offset="1" stop-color="#45CF3C" id="stop1379"/>
    </linearGradient>
    <linearGradient id="paint4_linear" x1="43.4" y1="44" x2="29.3" y2="43.7" gradientUnits="userSpaceOnUse">
      <stop offset="0" stop-color="#2CA824" id="stop1382"/>
      <stop offset="1" stop-color="#45CF3C" id="stop1384"/>
    </linearGradient>
    <linearGradient id="paint5_linear" x1="43.4" y1="44" x2="29.3" y2="43.7" gradientUnits="userSpaceOnUse">
      <stop offset="0" stop-color="#2CA824" id="stop1387"/>
      <stop offset="1" stop-color="#45CF3C" id="stop1389"/>
    </linearGradient>
    <linearGradient id="paint6_linear" x1="30" y1="24.2" x2="4" y2="22.9" gradientUnits="userSpaceOnUse">
      <stop offset="0" stop-color="#2CA824" id="stop1392"/>
      <stop offset="1" stop-color="#45CF3C" id="stop1394"/>
    </linearGradient>
    <linearGradient id="paint7_linear" x1="30" y1="24.2" x2="4" y2="22.9" gradientUnits="userSpaceOnUse">
      <stop offset="0" stop-color="#2CA824" id="stop1397"/>
      <stop offset="1" stop-color="#45CF3C" id="stop1399"/>
    </linearGradient>
    <clipPath id="clip0">
      <path fill="#fff" id="rect1402" d="M0 0h44v44H0z"/>
    </clipPath>
  </defs>
</svg>
