<?xml version="1.0" encoding="UTF-8" standalone="no"?>
<svg
   xmlns:dc="http://purl.org/dc/elements/1.1/"
   xmlns:cc="http://creativecommons.org/ns#"
   xmlns:rdf="http://www.w3.org/1999/02/22-rdf-syntax-ns#"
   xmlns:svg="http://www.w3.org/2000/svg"
   xmlns="http://www.w3.org/2000/svg"
   xmlns:sodipodi="http://sodipodi.sourceforge.net/DTD/sodipodi-0.dtd"
   xmlns:inkscape="http://www.inkscape.org/namespaces/inkscape"
   width="44"
   height="44"
   viewBox="0 0 44 44"
   fill="none"
   version="1.1"
   id="svg1407"
   sodipodi:docname="mf-6.svg"
   inkscape:version="1.0.1 (3bc2e813f5, 2020-09-07)">
  <metadata
     id="metadata1411">
    <rdf:RDF>
      <cc:Work
         rdf:about="">
        <dc:format>image/svg+xml</dc:format>
        <dc:type
           rdf:resource="http://purl.org/dc/dcmitype/StillImage" />
        <dc:title></dc:title>
      </cc:Work>
    </rdf:RDF>
  </metadata>
  <sodipodi:namedview
     pagecolor="#ffffff"
     bordercolor="#666666"
     borderopacity="1"
     objecttolerance="10"
     gridtolerance="10"
     guidetolerance="10"
     inkscape:pageopacity="0"
     inkscape:pageshadow="2"
     inkscape:window-width="1440"
     inkscape:window-height="847"
     id="namedview1409"
     showgrid="false"
     inkscape:zoom="8"
     inkscape:cx="14.775867"
     inkscape:cy="20.549112"
     inkscape:window-x="-8"
     inkscape:window-y="-8"
     inkscape:window-maximized="1"
     inkscape:current-layer="g1360" />
  <g
     clip-path="url(#clip0)"
     id="g1360">
    <path
       d="M 9.63558,44.05 H 9.6353 c -0.2022038,0.0014 5.926e-4,0 6.9e-4,0 z m 1.51632,-1.2657 v -4e-4 C 11.0283,43.5224 10.3843,44.0602 9.63558,44.05 H 5.04589 5.04572 c -0.75594,0.0085 -1.40265,-0.541 -1.51638,-1.2883 -4e-5,-3e-4 -8e-5,-6e-4 -1.2e-4,-8e-4 L 2.28301,35.9834 H 2.19999 c -0.83763,0 -1.516667,-0.679 -1.516667,-1.5167 v -2.2 c 0,-0.8376 0.679037,-1.5166 1.516667,-1.5166 H 2.35971 C 1.3829,29.5187 0.755493,28.0463 0.544442,26.4874 l -1.63e-4,-0.0012 h 1.5e-5 C 0.492112,26.0154 0.662907,25.5473 1.00596,25.2207 1.33255,24.8777 1.80068,24.7069 2.2715,24.759 l 7.8e-4,10e-5 v 0 c 1.62863,0.2066 3.16423,0.8746 4.42571,1.9252 l 0.00381,0.0032 -1.7e-4,2e-4 c 0.22802,0.2317 0.43682,0.4815 0.62436,0.747 0.18753,-0.2655 0.39633,-0.5153 0.62436,-0.747 l 0.00348,-0.0036 1.6e-4,2e-4 c 1.26147,-1.0506 2.79711,-1.7186 4.42571,-1.9252 l 0.0021,-2e-4 v 0 c 0.4688,-0.0396 0.9312,0.1295 1.2638,0.4622 0.3327,0.3327 0.5018,0.7951 0.4622,1.2638 l -2e-4,0.0024 h -10e-5 c -0.2068,1.5575 -0.8293,3.0298 -1.801,4.2628 h 0.1602 c 0.8376,0 1.5166,0.679 1.5166,1.5166 v 2.2 c 0,0.8377 -0.679,1.5167 -1.5166,1.5167 h -0.083 m -1.2317,6.8002 1.2317,-6.8002 m 0,0 v 0 m 0,0 v 0 M 8.44346,30.4233 C 8.1793,30.1591 8.05755,29.7845 8.11589,29.4155 c 0.12436,-0.627 0.45053,-1.196 0.92868,-1.6202 1.00733,-0.7788 2.20123,-1.2798 3.46253,-1.4533 0.0084,0.0056 0.0164,0.0116 0.024,0.0182 -0.1665,1.2649 -0.6678,2.4626 -1.4523,3.4692 -0.425,0.4794 -0.9976,0.8036 -1.62732,0.9214 C 9.08243,30.8092 8.70769,30.6875 8.44346,30.4233 Z M 2.12903,26.3335 c 0.00373,-0.0061 0.00754,-0.0125 0.01112,-0.0185 1.26264,0.1719 2.45829,0.6722 3.46737,1.451 0.48903,0.4296 0.82092,1.01 0.94321,1.6493 0.0584,0.3691 -0.06335,0.7438 -0.32756,1.008 C 5.95902,30.6874 5.5844,30.8092 5.21544,30.7508 4.58895,30.6261 4.02162,30.2969 3.6025,29.8148 2.81182,28.8134 2.29816,27.6219 2.11279,26.3598 Z m 0.12096,5.9832 H 12.4167 v 2.1 H 2.24999 Z m 1.62333,3.6667 h 6.91998 l -1.19893,6.5 H 5.06499 Z"
       fill="url(#paint0_linear)"
       stroke="url(#paint1_linear)"
       stroke-width="0.1"
       id="path1352"
       sodipodi:nodetypes="ccccccccssccsssscscccccscccccccccscscccsssscccccccccccccccccccccccccccccccccc"
       style="fill-rule:evenodd" />
    <path
       d="M 24.778015,25.389643 C 25.471315,25.112243 26.3061,24.8639 27.0457,24.7593 l 0.0015,-2e-4 v 0 c 0.4708,-0.0521 0.9389,0.1187 1.2655,0.4617 0.343,0.3266 0.5138,0.7947 0.4617,1.2655 l -2e-4,0.0011 c -0.2068,1.5575 -0.8293,3.0298 -1.801,4.2628 h 0.1601 c 0.8377,0 1.5167,0.679 1.5167,1.5166 v 2.2 c 0,0.8377 -0.679,1.5167 -1.5167,1.5167 h -0.0828 l -1.2172,6.8002 v 4e-4 c -0.1237,0.7384 -0.7677,1.2762 -1.5164,1.2661 h -3e-4 l 7e-4,-0.05 m -4.6049,0.05 h 2e-4 z M 22.639,26.6878 c -0.228,0.2317 -0.4368,0.4815 -0.6243,0.747 -0.1876,-0.2655 -0.3964,-0.5153 -0.6244,-0.747 l 10e-5,-10e-5 -0.002,-0.0018 c -0.2472,-0.2261 -0.5153,-0.4285 -0.8005,-0.6043 0.191,-1.1945 0.6663,-2.3256 1.3859,-3.2981 h 0.0016 c 0.7425,0.9651 1.2358,2.0981 1.4366,3.299 -0.2752,0.1772 -0.5335,0.3793 -0.7716,0.604 l -10e-5,-10e-5 z m -5.8433,-0.3542 c 0.0059,-0.0096 0.0119,-0.0198 0.0169,-0.0286 l 0.0044,-8e-4 c 1.2723,0.1685 2.4774,0.6702 3.4935,1.4543 0.4769,0.4368 0.7959,1.0193 0.9068,1.6565 0.0586,0.3692 -0.0631,0.7441 -0.3274,1.0084 -0.2642,0.2641 -0.6388,0.3859 -1.0078,0.3275 -0.6265,-0.1247 -1.1938,-0.4539 -1.6129,-0.936 -0.7907,-1.0014 -1.3044,-2.1929 -1.4897,-3.455 z m 8.6642,9.6499 -1.1989,6.5 h -4.5293 l -1.1917,-6.5 z m 1.6234,-1.5667 H 16.9167 v -2.1 h 10.1666 z m -1.3526,-4.6164 c -0.417,0.4875 -0.9846,0.8219 -1.613,0.9506 -0.3689,0.0582 -0.7434,-0.0635 -1.0076,-0.3276 -0.2641,-0.2642 -0.3859,-0.6388 -0.3275,-1.0078 0.1243,-0.627 0.4505,-1.196 0.9287,-1.6202 1.0073,-0.7788 2.2012,-1.2799 3.4624,-1.4533 0.0084,0.0055 0.0163,0.0115 0.0239,0.018 -0.1758,1.2563 -0.6819,2.4435 -1.4669,3.4403 z M 24.778015,25.389643 C 24.483815,24.105243 24.0337,22.8413 23.2427,21.7868 l 10e-5,-10e-5 -0.0031,-0.0034 c -0.3125,-0.3447 -0.7561,-0.5413 -1.2214,-0.5413 -0.4652,0 -0.9088,0.1966 -1.2213,0.5413 l -2e-4,-2e-4 -0.0029,0.0039 c -0.7857,1.0566 -1.3435,2.2646 -1.6383,3.5475 -0.6934,-0.2775 -1.4177,-0.4706 -2.1573,-0.5752 v 0 l -0.0028,-3e-4 c -0.4687,-0.0396 -0.9311,0.1295 -1.2638,0.4622 -0.3327,0.3327 -0.5018,0.7951 -0.4622,1.2638 v 0 l 2e-4,0.002 c 0.1943,1.5534 0.8019,3.0255 1.7584,4.2632 h -0.1614 c -0.8377,0 -1.5167,0.679 -1.5167,1.5166 v 2.2 c 0,0.8377 0.679,1.5167 1.5167,1.5167 h 0.083 l 1.2462,6.7775 c 0,2e-4 10e-5,5e-4 10e-5,8e-4 0.1137,0.7473 0.7605,1.2968 1.5164,1.2884 4.6001,-0.04239 4.6049,-0.05 4.6049,-0.05"
       fill="url(#paint2_linear)"
       stroke="url(#paint3_linear)"
       stroke-width="0.1"
       id="path1354"
       sodipodi:nodetypes="cccsccccsssscccsccccccsccscsccsscccssssccccccccccccccccccccccccccccccccccccccccccccccc"
       style="fill-rule:evenodd" />
    <path
       d="m 38.984,44.0002 -7e-4,0.05 h 3e-4 c 0.7487,0.0101 1.3927,-0.5276 1.5163,-1.2661 1e-4,-1e-4 1e-4,-2e-4 1e-4,-3e-4 l 1.2172,-6.8003 H 41.8 c 0.8377,0 1.5167,-0.679 1.5167,-1.5166 v -2.2001 c 0,-0.8376 -0.679,-1.5166 -1.5167,-1.5166 h -0.1601 c 0.9717,-1.233 1.5941,-2.7053 1.801,-4.2628 h 1e-4 l 2e-4,-0.0023 C 43.4807,26.0163 43.3117,25.5539 42.979,25.2212 42.6463,24.8885 42.1839,24.7195 41.7151,24.759 v 0 l -0.0023,3e-4 c -1.5575,0.2069 -3.0298,0.8293 -4.2628,1.801 v -2.586 c 0.3624,0.1802 0.761798,0.2759 1.1672,0.2759 l 2e-4,0 0.3593,0 v 8e-4 l 0.0087,-0.0016 c 0.9722,-0.1724 1.8608,-0.6597 2.5288,-1.3867 v 0 l 0.0016,-0.0019 c 1.0475,-1.2634 1.715,-2.798 1.9251,-4.4256 h 1e-4 l 2e-4,-0.0022 C 43.4807,17.9643 43.3117,17.5019 42.979,17.1692 42.6463,16.8365 42.1839,16.6674 41.7151,16.707 v -10e-5 l -0.0027,4e-4 c -0.7396,0.1046 -1.4639,0.2977 -2.1572,0.5752 -0.2942,-1.2845 -0.8548,-2.4932 -1.6459,-3.5477 l 2e-4,-10e-5 -0.0031,-0.0034 C 37.5939,13.3866 37.1503,13.19 36.685,13.19 c -0.4652,0 -0.9088,0.1966 -1.2214,0.5413 l -10e-5,-2e-4 -0.0029,0.0039 c -0.7858,1.0566 -1.3435,2.2646 -1.6384,3.5475 -0.6933,-0.2775 -1.4176,-0.4706 -2.1572,-0.5752 v 0 l -0.0028,-3e-4 c -0.4688,-0.0396 -0.9312,0.1295 -1.2638,0.4622 -0.3327,0.3327 -0.5018,0.7951 -0.4622,1.2638 h -10e-5 l 3e-4,0.0022 c 0.2102,1.6276 0.8777,3.1622 1.9251,4.4256 v 0 l 0.0016,0.0018 c 0.6564,0.7186 1.528,1.2052 2.4843,1.3867 l -2e-4,9e-4 h 0.0095 0.3593 2e-4 c 0.4054,-0.0012 0.8048,-0.0957 1.1672,-0.2759 v 2.586 c -1.233,-0.9717 -2.7053,-1.5941 -4.2628,-1.801 v -10e-5 l -0.0024,-2e-4 c -0.4688,-0.0395 -0.9312,0.1295 -1.2638,0.4622 -0.3327,0.3327 -0.5018,0.7951 -0.4622,1.2639 h -10e-5 l 3e-4,0.0023 c 0.2069,1.5575 0.8294,3.0298 1.8011,4.2628 h -0.1602 c -0.8376,0 -1.5166,0.679 -1.5166,1.5166 v 2.2001 c 0,0.8376 0.679,1.5166 1.5166,1.5166 h 0.0831 l 1.2462,6.7775 c 0,3e-4 10e-5,5e-4 10e-5,8e-4 0.1137,0.7473 0.7604,1.2969 1.5164,1.2884 m 0,0 h 10e-5 z m 2.9266,-25.4291 c -0.228,0.2317 -0.4368,0.4816 -0.6243,0.747 -0.1876,-0.2654 -0.3964,-0.5153 -0.6244,-0.747 v 0 l -0.0019,-0.0018 c -0.2473,-0.2262 -0.5153,-0.4285 -0.8005,-0.6043 0.191,-1.1945 0.6663,-2.3257 1.3859,-3.2982 h 0.0016 c 0.7425,0.9651 1.2358,2.0981 1.4366,3.299 -0.2752,0.1772 -0.5335,0.3794 -0.7717,0.604 v 0 z m -2.7574,4.0631 C 33.9221,22.5594 33.355,22.2303 32.936,21.7484 32.1589,20.7439 31.6581,19.5537 31.4831,18.296 c 0.0041,-0.0054 0.0088,-0.0117 0.0135,-0.0181 0.0037,-0.0049 0.0074,-0.0101 0.011,-0.0152 1.2635,0.1716 2.4599,0.6719 3.4696,1.4511 0.4727,0.4311 0.7913,1.0052 0.9068,1.6345 0.047,0.3255 -0.0492,0.6533 -0.26,0.9007 v -0.0092 l -0.0866,0.093 c -0.2527,0.2713 -0.6218,0.4024 -0.9891,0.3514 z m 3.8298,-2.9556 c 1.0084,-0.7916 2.2079,-1.3029 3.4771,-1.4824 0.0083,0.0055 0.0164,0.0116 0.024,0.0181 -0.1666,1.2651 -0.668,2.4629 -1.4525,3.4695 -0.4245,0.493 -1.0031,0.8279 -1.642,0.9505 -0.369,0.0584 -0.7437,-0.0634 -1.0079,-0.3276 -0.2641,-0.2642 -0.3859,-0.6388 -0.3275,-1.0077 0.1243,-0.6271 0.4505,-1.1962 0.9288,-1.6204 z m -6.8908,6.5876 0.0011,-0.0064 c 1.2571,0.1738 2.4474,0.6732 3.4525,1.449 0.4904,0.4315 0.8224,1.0146 0.9432,1.6566 0.0584,0.369 -0.0633,0.7438 -0.3276,1.008 -0.2641,0.2641 -0.6387,0.3859 -1.0077,0.3276 -0.6264,-0.1247 -1.1937,-0.4539 -1.6128,-0.9359 -0.7797,-1.0079 -1.2813,-2.2028 -1.4547,-3.4652 l 9e-4,-0.005 z m 8.6393,9.6673 -1.1989,6.5 h -4.5294 l -1.1916,-6.5 z M 41.75,34.4169 H 31.5833 V 32.3168 H 41.75 Z m -3.9732,-3.9935 c -0.2641,-0.2642 -0.3859,-0.6388 -0.3275,-1.0078 0.1243,-0.627 0.4505,-1.196 0.9286,-1.6202 1.0074,-0.7788 2.2013,-1.2798 3.4625,-1.4533 0.0084,0.0056 0.0165,0.0117 0.0241,0.0182 -0.1666,1.2649 -0.6679,2.4626 -1.4523,3.4692 -0.425,0.4794 -0.9976,0.8036 -1.6274,0.9214 -0.369,0.0584 -0.7438,-0.0633 -1.008,-0.3275 z"
       fill="url(#paint4_linear)"
       stroke="url(#paint5_linear)"
       stroke-width="0.1"
       id="path1356"
       sodipodi:nodetypes="ccscccsssscccssscsccsccccscccccscccccccsccscsccccccsccccccsccccscccscsssscccccccccsccccccsccccccccccccccccccccccccccccccccccccccccccccccccc"
       style="fill-rule:evenodd" />
    <path
       d="m 28.0588,13.6413 c 0.2529,0.5464 0.2762,1.1713 0.0648,1.735 -0.2114,0.5638 -0.64,1.0193 -1.1898,1.2647 -2.229243,1.002097 -4.458476,2.004322 -6.6877,3.0065 -0.2898,0.132 -0.6042,0.201 -0.9225,0.2025 h -2e-4 c -0.7621,0.0013 -1.4726,-0.3833 -1.8885,-1.021 L 11.261,16.4891 c -0.5438,0.3134 -0.957432,0.594684 -1.2825449,1.173059 0,0 -0.1903401,0.362766 -0.2811751,0.616641 0.73242,0.8396 1.20372,1.8828 1.35312,2.9879 h 0 -4e-4 c 0,1.6476 -1.33569,2.9833 -2.98334,2.9833 -1.64765,0 -2.98333,-1.3357 -2.98333,-2.9833 0,-0.6779 0.32688,-1.421 0.73521,-2.0868 0.39054,-0.6368 0.85953,-1.2092 1.20198,-1.5958 L 6.30359,17.3094 C 6.10932,17.2357 5.95231,17.0878 5.8671,16.8983 5.7819,16.7088 5.77548,16.4932 5.84924,16.299 6.52864,14.4958 7.90047,13.0389 9.659575,12.2524 L 13.6253,10.4762 C 13.3924,9.93994 13.3771,9.33334 13.584,8.78516 c 0.2129,-0.56391 0.6431,-1.01883 1.1943,-1.2628 0,-2e-5 10e-5,-5e-5 10e-5,-7e-5 L 16.0677,6.94143 14.6212,3.6435 C 14.3632,3.10355 14.3309,2.48307 14.5316,1.91925 l 3e-4,-9.7e-4 c 0.2112,-0.55683 0.6346,-1.007208 1.1773,-1.252417 0.5474,-0.252428 1.1731,-0.274706 1.737,-0.061835 0.5638,0.212858 1.0187,0.643032 1.2627,1.194132 10e-5,10e-5 10e-5,1.9e-4 10e-5,2.9e-4 l 1.483,3.26965 1.289,-0.55243 c 10e-5,-5e-5 2e-4,-9e-5 3e-4,-1.4e-4 0.8576,-0.38142 1.8606,-0.19001 2.5174,0.47707 l 0.76,-0.34478 10e-5,-8e-5 c 1.872,-0.84141 4.0717,-0.00613 4.91345,1.865715 -5e-5,-1.5e-5 -5e-5,1.5e-5 5e-5,5.5e-5 0.8441,1.86596 0.0197,4.06319 -1.8436,4.91329 l -4e-4,2e-4 -0.629,0.2804 m 0,0 0.8594,1.9336 m 3e-4,7e-4 -2e-4,-4e-4 m -12.6236,-4.69303 1.289,-0.58078 1.4827,3.29811 c 10e-5,0 10e-5,10e-5 10e-5,2e-4 0.244,0.5511 0.6989,0.9813 1.2628,1.1942 0.5639,0.2129 1.1896,0.1906 1.737,-0.0618 0.5427,-0.2452 0.966,-0.6956 1.1772,-1.2524 0.2148,-0.5581 0.1986,-1.1787 -0.045,-1.72482 L 22.3388,9.8206 20.834,6.52148 22.1231,5.91231 c 2e-4,-7e-5 3e-4,-1.4e-4 5e-4,-2.1e-4 0.3433,-0.15359 0.7462,-9e-4 0.9014,0.34168 0,7e-5 10e-5,1.3e-4 10e-5,1.9e-4 1.192901,2.3485729 2.861963,5.413723 3.851983,7.946351 0.154,0.3434 -0.104174,0.718671 -0.289409,0.802541 L 19.6035,18.2291 h -2e-4 c -0.3414,0.1548 -0.7439,0.0055 -0.9018,-0.3345 -10e-5,-10e-5 -10e-5,-2e-4 -2e-4,-3e-4 l -2.1043,-4.7147 -10e-5,-10e-5 -1.2027,-2.6694 V 10.51 l -0.3007,-0.66005 -10e-5,-9e-5 C 15.0185,9.6863 15.0111,9.49981 15.0728,9.33084 15.1376,9.1601 15.4352,8.94827 15.4352,8.94827 m 1.8404,-6.50805 10e-5,3.3e-4 1.804,4.00394 v 6e-5 l 1.7964,4.00335 c 0.07,0.1682 0.0699,0.3574 -3e-4,0.5255 v 0 l -9e-4,0.0025 c -0.0603,0.1687 -0.1886,0.3044 -0.3537,0.374 v 0 l -0.001,5e-4 c -0.3434,0.1539 -0.7467,0.0012 -0.902,-0.3416 v -1e-4 l -1.7745,-3.98171 -10e-5,-1.6e-4 -1.8113,-4.026 -3e-4,-5.3e-4 C 15.9552,2.83474 15.9478,2.64533 16.0115,2.47429 16.1097,2.21496 16.3548,2.04069 16.632,2.0332 c 0.2773,-0.00749 0.5315,0.15332 0.6436,0.40702 z m -2.4624,10.68338 -3.9657,1.7835 -2e-4,10e-5 C 10.0482,15.271 9.37664,15.8655 8.91857,16.6138 L 7.6604,16.1078 c 0.58469,-1.0795 1.50718,-1.9383 2.6269,-2.4442 l 3.9656,-1.7835 z m 0.6717,1.4185 1.0079,2.2352 L 13.2429,15.55 Z M 25.319812,6.2211096 C 26.394212,5.7737996 27.718,6.10794 28.1954,7.16945 c 0.4774,1.06163 0.0232,2.31038 -1.0246,2.81726 -2e-4,10e-5 -4e-4,1.9e-4 -6e-4,2.9e-4 L 26.505406,10.288697 24.690912,6.5150696 Z M 8.06666,18.7544 c 0.35249,0.4098 0.70164,0.8775 0.96537,1.3205 0.27465,0.4614 0.4513,0.8875 0.4513,1.1918 0,0.7824 -0.63426,1.4166 -1.41667,1.4166 -0.7824,0 -1.41666,-0.6342 -1.41666,-1.4166 0,-0.3043 0.17665,-0.7304 0.45129,-1.1918 0.26373,-0.443 0.61289,-0.9107 0.96537,-1.3205 z"
       fill="url(#paint6_linear)"
       stroke="url(#paint7_linear)"
       stroke-width="0.1"
       id="path1358"
       sodipodi:nodetypes="ccccsscccccccsssccccccccccccccccccccccccccccccccccccsccccccccccccccccccccccccccccsccscccccccccscccccccccccccccsccccccssscc"
       style="fill-rule:evenodd" />
  </g>
  <defs
     id="defs1405">
    <linearGradient
       id="paint0_linear"
       x1="14.0635"
       y1="44.0002"
       x2="-0.061119"
       y2="43.5125"
       gradientUnits="userSpaceOnUse">
      <stop
         stop-color="#2CA824"
         id="stop1362" />
      <stop
         offset="1"
         stop-color="#45CF3C"
         id="stop1364" />
    </linearGradient>
    <linearGradient
       id="paint1_linear"
       x1="14.0635"
       y1="44.0002"
       x2="-0.061119"
       y2="43.5125"
       gradientUnits="userSpaceOnUse">
      <stop
         stop-color="#2CA824"
         id="stop1367" />
      <stop
         offset="1"
         stop-color="#45CF3C"
         id="stop1369" />
    </linearGradient>
    <linearGradient
       id="paint2_linear"
       x1="28.7336"
       y1="44.0003"
       x2="14.6656"
       y2="43.5913"
       gradientUnits="userSpaceOnUse">
      <stop
         stop-color="#2CA824"
         id="stop1372" />
      <stop
         offset="1"
         stop-color="#45CF3C"
         id="stop1374" />
    </linearGradient>
    <linearGradient
       id="paint3_linear"
       x1="28.7336"
       y1="44.0003"
       x2="14.6656"
       y2="43.5913"
       gradientUnits="userSpaceOnUse">
      <stop
         stop-color="#2CA824"
         id="stop1377" />
      <stop
         offset="1"
         stop-color="#45CF3C"
         id="stop1379" />
    </linearGradient>
    <linearGradient
       id="paint4_linear"
       x1="43.3968"
       y1="44.0003"
       x2="29.2809"
       y2="43.6965"
       gradientUnits="userSpaceOnUse">
      <stop
         stop-color="#2CA824"
         id="stop1382" />
      <stop
         offset="1"
         stop-color="#45CF3C"
         id="stop1384" />
    </linearGradient>
    <linearGradient
       id="paint5_linear"
       x1="43.3968"
       y1="44.0003"
       x2="29.2809"
       y2="43.6965"
       gradientUnits="userSpaceOnUse">
      <stop
         stop-color="#2CA824"
         id="stop1387" />
      <stop
         offset="1"
         stop-color="#45CF3C"
         id="stop1389" />
    </linearGradient>
    <linearGradient
       id="paint6_linear"
       x1="29.9536"
       y1="24.2"
       x2="3.98139"
       y2="22.8615"
       gradientUnits="userSpaceOnUse">
      <stop
         stop-color="#2CA824"
         id="stop1392" />
      <stop
         offset="1"
         stop-color="#45CF3C"
         id="stop1394" />
    </linearGradient>
    <linearGradient
       id="paint7_linear"
       x1="29.9536"
       y1="24.2"
       x2="3.98139"
       y2="22.8615"
       gradientUnits="userSpaceOnUse">
      <stop
         stop-color="#2CA824"
         id="stop1397" />
      <stop
         offset="1"
         stop-color="#45CF3C"
         id="stop1399" />
    </linearGradient>
    <clipPath
       id="clip0">
      <rect
         width="44"
         height="44"
         fill="white"
         id="rect1402" />
    </clipPath>
  </defs>
</svg>
