<svg width="48" height="34" fill="none">
  <path d="M8.3 21.8a3.8 3.8 0 100 7.5 3.8 3.8 0 000-7.5zm0 5.8a2 2 0 110-4.2 2 2 0 010 4.2z" fill="url(#paint0_linear)" stroke="url(#paint1_linear)" stroke-width=".1"/>
  <mask id="a" maskUnits="userSpaceOnUse" x="-1" y="-.8" width="50" height="35" fill="#000">
    <path fill="#fff" d="M-1-.8h50v35H-1z"/>
    <path d="M48 27.4c0-1.8-.8-3.6-2.2-4.8L46 21c0-.3 1.3-6.8-.2-9.6C44.4 8.7 34.5 6.8 28.7 6c-.6 0-1.1 0-1.6.3l-2.7 1.6-1-2.6 2.5-1a.8.8 0 00-.6-1.5L22 4 19 5a.8.8 0 00.2 1.5h.3l2.3-1 1.2 3c-.9.6-1.3 1.7-1 2.7l2.5 7.3h-1.3a.8.8 0 01-.7-.4c-1.2-2.4-3-4.5-5-6.2a2.8 2.8 0 00-1.1-5.4H12V3c0-.7-.3-1.5-.8-2S10.1.2 9.4.2c-.8 0-1.5.3-2 .8a3 3 0 00-1 2.1v6.7c0 1 .6 2 1.6 2.3v2c-2.4 0-4.7.8-6.6 2.2a.8.8 0 001 1.3 9.8 9.8 0 017.3-1.9 10 10 0 018 12.7 1.6 1.6 0 001.3 2.1l4 .3c3.2 0 6.4-.5 9.5-1.5.7-.2 1.1-.8 1.1-1.5V25h2c-1 2.5-.3 5.4 1.8 7.2H13.2a8.3 8.3 0 10-9.8 0H.8a.8.8 0 000 1.6h46.4a.8.8 0 000-1.6h-1.4c1.4-1.2 2.2-3 2.2-4.8zM1.6 25.5a6.7 6.7 0 1113.4 0 6.7 6.7 0 01-13.4 0zm42.9-13.3l.1.2h-2.4a.8.8 0 000 1.6H45c.1 2.2 0 4.5-.5 6.6l-.2 1a6.4 6.4 0 00-5.2-.1L37.5 16c0-.3-.2-.5-.5-.6L31.8 14c-.9-1.9-1.2-4-1.1-6 7.6 1.3 13 3 13.8 4.3zM8 3.2c0-.5.2-.8.4-1 .2-.3.5-.4.8-.4h.1c.3 0 .6.1.8.4.2.2.3.5.3.8v4.4c0 .4.4.8.8.8h5.2a1.2 1.2 0 010 2.4H8.8a.8.8 0 01-.8-.8V3.1zm2 11h-.4v-2H15l.5.4c2.4 1.6 4.3 3.8 5.6 6.3.4.8 1.2 1.3 2.1 1.3h5.7a.7.7 0 01.7.8v2.4h-10c-1-4.8-4.8-8.5-9.6-9.3zm22 13.6a30.1 30.1 0 01-12.7 1.1c.4-1.2.5-2.6.5-3.9H32v2.8zm-.8-4.4V21a2.3 2.3 0 00-2.3-2.4h-2.7l-2.6-7.8c-.1-.4 0-.8.3-1l4-2.2c.2-.1.4-.2.5-.1h.8c-.2 2.6.2 5.1 1.3 7.4 0 .2.3.4.5.5l5.2 1.4 1.6 5.5c-.5.3-.8.7-1.2 1.1h-5.4zm5.6 4a4.8 4.8 0 119.6 0 4.8 4.8 0 01-9.6 0z"/>
  </mask>
  <path d="M48 27.4c0-1.8-.8-3.6-2.2-4.8L46 21c0-.3 1.3-6.8-.2-9.6C44.4 8.7 34.5 6.8 28.7 6c-.6 0-1.1 0-1.6.3l-2.7 1.6-1-2.6 2.5-1a.8.8 0 00-.6-1.5L22 4 19 5a.8.8 0 00.2 1.5h.3l2.3-1 1.2 3c-.9.6-1.3 1.7-1 2.7l2.5 7.3h-1.3a.8.8 0 01-.7-.4c-1.2-2.4-3-4.5-5-6.2a2.8 2.8 0 00-1.1-5.4H12V3c0-.7-.3-1.5-.8-2S10.1.2 9.4.2c-.8 0-1.5.3-2 .8a3 3 0 00-1 2.1v6.7c0 1 .6 2 1.6 2.3v2c-2.4 0-4.7.8-6.6 2.2a.8.8 0 001 1.3 9.8 9.8 0 017.3-1.9 10 10 0 018 12.7 1.6 1.6 0 001.3 2.1l4 .3c3.2 0 6.4-.5 9.5-1.5.7-.2 1.1-.8 1.1-1.5V25h2c-1 2.5-.3 5.4 1.8 7.2H13.2a8.3 8.3 0 10-9.8 0H.8a.8.8 0 000 1.6h46.4a.8.8 0 000-1.6h-1.4c1.4-1.2 2.2-3 2.2-4.8zM1.6 25.5a6.7 6.7 0 1113.4 0 6.7 6.7 0 01-13.4 0zm42.9-13.3l.1.2h-2.4a.8.8 0 000 1.6H45c.1 2.2 0 4.5-.5 6.6l-.2 1a6.4 6.4 0 00-5.2-.1L37.5 16c0-.3-.2-.5-.5-.6L31.8 14c-.9-1.9-1.2-4-1.1-6 7.6 1.3 13 3 13.8 4.3zM8 3.2c0-.5.2-.8.4-1 .2-.3.5-.4.8-.4h.1c.3 0 .6.1.8.4.2.2.3.5.3.8v4.4c0 .4.4.8.8.8h5.2a1.2 1.2 0 010 2.4H8.8a.8.8 0 01-.8-.8V3.1zm2 11h-.4v-2H15l.5.4c2.4 1.6 4.3 3.8 5.6 6.3.4.8 1.2 1.3 2.1 1.3h5.7a.7.7 0 01.7.8v2.4h-10c-1-4.8-4.8-8.5-9.6-9.3zm22 13.6a30.1 30.1 0 01-12.7 1.1c.4-1.2.5-2.6.5-3.9H32v2.8zm-.8-4.4V21a2.3 2.3 0 00-2.3-2.4h-2.7l-2.6-7.8c-.1-.4 0-.8.3-1l4-2.2c.2-.1.4-.2.5-.1h.8c-.2 2.6.2 5.1 1.3 7.4 0 .2.3.4.5.5l5.2 1.4 1.6 5.5c-.5.3-.8.7-1.2 1.1h-5.4zm5.6 4a4.8 4.8 0 119.6 0 4.8 4.8 0 01-9.6 0z" fill="url(#paint2_linear)"/>
  <path d="M41.6 24.2a3.3 3.3 0 100 6.5 3.3 3.3 0 000-6.5zm0 4.8a1.6 1.6 0 110-3.1 1.6 1.6 0 010 3z" fill="url(#paint4_linear)" stroke="url(#paint5_linear)" stroke-width=".1"/>
  <defs>
    <linearGradient id="paint0_linear" x1="12" y1="29.2" x2="4.2" y2="28.8" gradientUnits="userSpaceOnUse">
      <stop offset="0" stop-color="#2CA824"/>
      <stop offset="1" stop-color="#45CF3C"/>
    </linearGradient>
    <linearGradient id="paint1_linear" x1="12" y1="29.2" x2="4.2" y2="28.8" gradientUnits="userSpaceOnUse">
      <stop offset="0" stop-color="#2CA824"/>
      <stop offset="1" stop-color="#45CF3C"/>
    </linearGradient>
    <linearGradient id="paint2_linear" x1="48" y1="33.8" x2="-2.1" y2="30.3" gradientUnits="userSpaceOnUse">
      <stop offset="0" stop-color="#2CA824"/>
      <stop offset="1" stop-color="#45CF3C"/>
    </linearGradient>
    <linearGradient id="paint3_linear" x1="48" y1="33.8" x2="-2.1" y2="30.3" gradientUnits="userSpaceOnUse">
      <stop offset="0" stop-color="#2CA824"/>
      <stop offset="1" stop-color="#45CF3C"/>
    </linearGradient>
    <linearGradient id="paint4_linear" x1="44.8" y1="30.6" x2="38.1" y2="30.3" gradientUnits="userSpaceOnUse">
      <stop offset="0" stop-color="#2CA824"/>
      <stop offset="1" stop-color="#45CF3C"/>
    </linearGradient>
    <linearGradient id="paint5_linear" x1="44.8" y1="30.6" x2="38.1" y2="30.3" gradientUnits="userSpaceOnUse">
      <stop offset="0" stop-color="#2CA824"/>
      <stop offset="1" stop-color="#45CF3C"/>
    </linearGradient>
  </defs>
</svg>
