<svg xmlns:xlink="http://www.w3.org/1999/xlink" width="44" height="44" fill="none">
  <mask id="a" maskUnits="userSpaceOnUse" x="-1" y="12.5" width="46" height="32" fill="#000">
    <path fill="#fff" d="M-1 12.5h46v32H-1z"/>
    <path d="M43.3 33.7c-1.4 0-2.7.3-4 1 .6-1.4 1.4-2.9 2.3-4.2a.7.7 0 00-.6-1.2c-2 .3-3.7 1.2-5 2.6V21.3a.7.7 0 10-1.5 0v12.5a16.2 16.2 0 00-2.2 8.7H30V19.8a.7.7 0 00-1.5 0V22h-3v-2.2a.7.7 0 00-1.4 0v22.7h-4.4V17.2l.5-.5a.7.7 0 00-1-1l-.5.4c-.3.3-.5.7-.5 1V22h-2.9v-4.8c0-.4-.2-.8-.4-1l-2.2-2.3a1.5 1.5 0 00-2.1 0l-2.2 2.2c-.3.3-.4.7-.4 1V32a8.5 8.5 0 00-5-2.7.7.7 0 00-.6 1.2c.9 1.3 1.7 2.8 2.2 4.3a6.4 6.4 0 00-4-1 .7.7 0 00-.5 1c3.4 4.8 2.2 8 2.2 8.2a.7.7 0 00.6 1h38.2l.6-.3V43c0-.1-1.2-3.4 2.2-8.1a.7.7 0 00-.6-1.2zM25.7 28h2.9v5.8h-3V28zm0 7.3h2.9v3h-3v-3zm2.9-11.7v2.9h-3v-3h3zM15.4 28h3v5.8h-3V28zm0 7.3h3v3h-3v-3zm3-11.7v2.9h-3v-3h3zm-14.5 19c.2-1.3.2-4-1.7-7.2a5 5 0 012.2 1.1c1.3 1.3 2 3.3 2.2 6.1H3.9zm2.8-5.4c-.3-2-1-4-2.1-5.8a8 8 0 013.6 3.1c1.3 2 2 4.8 2 8.1h-2c0-1.8-.5-3.7-1.4-5.4zm5 5.4c0-3.5-.8-6.4-2.2-8.7V17.2l2.2-2.2 2.2 2.2v25.3h-2.2zm3.7-2.9h3v3h-3v-3zm10.3 3v-3h2.9v3h-3zm8 0a16 16 0 012.1-8.2 8 8 0 013.6-3.1c-1 1.8-1.8 3.8-2.1 5.8-1 1.7-1.4 3.6-1.4 5.4h-2.2zm6.4 0h-2.7c.1-2.9.9-5 2.2-6.1a5 5 0 012.2-1.2 11 11 0 00-1.7 7.2z"/>
  </mask>
  <path d="M43.3 33.7c-1.4 0-2.7.3-4 1 .6-1.4 1.4-2.9 2.3-4.2a.7.7 0 00-.6-1.2c-2 .3-3.7 1.2-5 2.6V21.3a.7.7 0 10-1.5 0v12.5a16.2 16.2 0 00-2.2 8.7H30V19.8a.7.7 0 00-1.5 0V22h-3v-2.2a.7.7 0 00-1.4 0v22.7h-4.4V17.2l.5-.5a.7.7 0 00-1-1l-.5.4c-.3.3-.5.7-.5 1V22h-2.9v-4.8c0-.4-.2-.8-.4-1l-2.2-2.3a1.5 1.5 0 00-2.1 0l-2.2 2.2c-.3.3-.4.7-.4 1V32a8.5 8.5 0 00-5-2.7.7.7 0 00-.6 1.2c.9 1.3 1.7 2.8 2.2 4.3a6.4 6.4 0 00-4-1 .7.7 0 00-.5 1c3.4 4.8 2.2 8 2.2 8.2a.7.7 0 00.6 1h38.2l.6-.3V43c0-.1-1.2-3.4 2.2-8.1a.7.7 0 00-.6-1.2zM25.7 28h2.9v5.8h-3V28zm0 7.3h2.9v3h-3v-3zm2.9-11.7v2.9h-3v-3h3zM15.4 28h3v5.8h-3V28zm0 7.3h3v3h-3v-3zm3-11.7v2.9h-3v-3h3zm-14.5 19c.2-1.3.2-4-1.7-7.2a5 5 0 012.2 1.1c1.3 1.3 2 3.3 2.2 6.1H3.9zm2.8-5.4c-.3-2-1-4-2.1-5.8a8 8 0 013.6 3.1c1.3 2 2 4.8 2 8.1h-2c0-1.8-.5-3.7-1.4-5.4zm5 5.4c0-3.5-.8-6.4-2.2-8.7V17.2l2.2-2.2 2.2 2.2v25.3h-2.2zm3.7-2.9h3v3h-3v-3zm10.3 3v-3h2.9v3h-3zm8 0a16 16 0 012.1-8.2 8 8 0 013.6-3.1c-1 1.8-1.8 3.8-2.1 5.8-1 1.7-1.4 3.6-1.4 5.4h-2.2zm6.4 0h-2.7c.1-2.9.9-5 2.2-6.1a5 5 0 012.2-1.2 11 11 0 00-1.7 7.2z" fill="url(#paint0_linear)"/>
  <path d="M9.5 8H8.1a.8.8 0 000 1.6h1.4a.8.8 0 100-1.6z" fill="url(#paint2_linear)" stroke="url(#paint3_linear)" stroke-width=".1"/>
  <path d="M23.6 17.4v0l-4.4-4.5v0s-1.8-1.6-4-1v0l-7 1.3v0h-.1c-6 0-6-9 0-9 2.4.3 4.7.9 7.1 1.4v0c1.4.4 3 0 4-1L23.9 0c.2-.2 6.1 0 6.1 0 3.5 0 5.6 1 6.7 2 .6.6 1 1 1.3 1.9V6c-.2 1.3-.8 1.5-2 1.8l1.6 1.7v0c.3.3.5.7.5 1v7.6c0 1.8-1.6 1.5-2 1.4-.7-.4-4-1.9-6-1.9h-6c-.3 0-.4-.1-.5-.2zM35.1 6.7c.5-.2 1 0 1.5-.7.3-.4 0-1.3 0-1.5 0-.5-.3-.9-1.1-1.6a8.7 8.7 0 00-4.7-1.4v14.6c2 0 4.1.6 5.8 1.9v-7.4l-1.8-1.8v0c-.4-.4-.5-1-.4-1.5v0c.2-.3.3-.5.7-.6zm-20.3 3.7L8 11.7c-3.9 0-3.9-5.8 0-5.8l6.8 1.3c2 .5 4 0 5.5-1.4v0l3.1-3.2V15l-3.1-3.2c-1-1-2.5-1.5-4-1.6-.9 0-1.1.1-1.5.2zM25 1.5h4.3v14.6H25z" fill="url(#paint4_linear)" stroke="url(#paint5_linear)" stroke-width=".1" fill-rule="evenodd"/>
  <defs id="defs206">
    <linearGradient id="linearGradient362" x1="38.1" y1="19.6" x2="2.2" y2="16.5" gradientUnits="userSpaceOnUse" spreadMethod="pad">
      <stop offset="0" stop-color="#2CA824" id="stop358"/>
      <stop offset="1" stop-color="#45CF3C" id="stop360"/>
    </linearGradient>
    <linearGradient id="linearGradient356" x1="38.1" y1="19.6" x2="2.2" y2="16.5" gradientUnits="userSpaceOnUse" spreadMethod="pad">
      <stop offset="0" stop-color="#2CA824" id="stop352"/>
      <stop offset="1" stop-color="#45CF3C" id="stop354"/>
    </linearGradient>
    <linearGradient id="linearGradient346" x1="38.1" y1="19.6" x2="2.2" y2="16.5" gradientUnits="userSpaceOnUse" spreadMethod="pad">
      <stop offset="0" stop-color="#2CA824" id="stop342"/>
      <stop offset="1" stop-color="#45CF3C" id="stop344"/>
    </linearGradient>
    <linearGradient id="linearGradient340" x1="38.1" y1="19.6" x2="2.2" y2="16.5" gradientUnits="userSpaceOnUse" spreadMethod="pad">
      <stop offset="0" stop-color="#2CA824" id="stop336"/>
      <stop offset="1" stop-color="#45CF3C" id="stop338"/>
    </linearGradient>
    <linearGradient id="linearGradient334" x1="38.1" y1="19.6" x2="2.2" y2="16.5" gradientUnits="userSpaceOnUse" spreadMethod="pad">
      <stop offset="0" stop-color="#2CA824" id="stop330"/>
      <stop offset="1" stop-color="#45CF3C" id="stop332"/>
    </linearGradient>
    <linearGradient id="linearGradient328" x1="38.1" y1="19.6" x2="2.2" y2="16.5" gradientUnits="userSpaceOnUse" spreadMethod="pad">
      <stop offset="0" stop-color="#2CA824" id="stop324"/>
      <stop offset="1" stop-color="#45CF3C" id="stop326"/>
    </linearGradient>
    <linearGradient id="linearGradient318" x1="38.1" y1="19.6" x2="2.2" y2="16.5" gradientUnits="userSpaceOnUse" spreadMethod="pad">
      <stop offset="0" stop-color="#2CA824" id="stop314"/>
      <stop offset="1" stop-color="#45CF3C" id="stop316"/>
    </linearGradient>
    <linearGradient id="linearGradient312" x1="38.1" y1="19.6" x2="2.2" y2="16.5" gradientUnits="userSpaceOnUse" spreadMethod="pad">
      <stop offset="0" stop-color="#2CA824" id="stop308"/>
      <stop offset="1" stop-color="#45CF3C" id="stop310"/>
    </linearGradient>
    <linearGradient id="linearGradient302" x1="38.1" y1="19.6" x2="2.2" y2="16.5" gradientUnits="userSpaceOnUse" spreadMethod="pad">
      <stop offset="0" stop-color="#2CA824" id="stop298"/>
      <stop offset="1" stop-color="#45CF3C" id="stop300"/>
    </linearGradient>
    <linearGradient id="linearGradient296" x1="38.1" y1="19.6" x2="2.2" y2="16.5" gradientUnits="userSpaceOnUse" spreadMethod="pad">
      <stop offset="0" stop-color="#2CA824" id="stop292"/>
      <stop offset="1" stop-color="#45CF3C" id="stop294"/>
    </linearGradient>
    <linearGradient id="linearGradient286" x1="38.1" y1="19.6" x2="2.2" y2="16.5" gradientUnits="userSpaceOnUse" spreadMethod="pad">
      <stop offset="0" stop-color="#2CA824" id="stop282"/>
      <stop offset="1" stop-color="#45CF3C" id="stop284"/>
    </linearGradient>
    <linearGradient id="linearGradient280" x1="38.1" y1="19.6" x2="2.2" y2="16.5" gradientUnits="userSpaceOnUse" spreadMethod="pad">
      <stop offset="0" stop-color="#2CA824" id="stop276"/>
      <stop offset="1" stop-color="#45CF3C" id="stop278"/>
    </linearGradient>
    <linearGradient id="linearGradient270" x1="38.1" y1="19.6" x2="2.2" y2="16.5" gradientUnits="userSpaceOnUse">
      <stop offset="0" stop-color="#2CA824" id="stop266"/>
      <stop offset="1" stop-color="#45CF3C" id="stop268"/>
    </linearGradient>
    <linearGradient id="linearGradient264" x1="38.1" y1="19.6" x2="2.2" y2="16.5" gradientUnits="userSpaceOnUse">
      <stop offset="0" stop-color="#2CA824" id="stop260"/>
      <stop offset="1" stop-color="#45CF3C" id="stop262"/>
    </linearGradient>
    <linearGradient id="linearGradient258" x1="38.1" y1="19.6" x2="2.2" y2="16.5" gradientUnits="userSpaceOnUse">
      <stop offset="0" stop-color="#2CA824" id="stop254"/>
      <stop offset="1" stop-color="#45CF3C" id="stop256"/>
    </linearGradient>
    <linearGradient id="linearGradient252" x1="38.1" y1="19.6" x2="2.2" y2="16.5" gradientUnits="userSpaceOnUse">
      <stop offset="0" stop-color="#2CA824" id="stop248"/>
      <stop offset="1" stop-color="#45CF3C" id="stop250"/>
    </linearGradient>
    <linearGradient id="paint0_linear" x1="44" y1="44" x2="-1.9" y2="40.7" gradientUnits="userSpaceOnUse">
      <stop offset="0" stop-color="#2CA824" id="stop176"/>
      <stop offset="1" stop-color="#45CF3C" id="stop178"/>
    </linearGradient>
    <linearGradient id="paint1_linear" x1="44" y1="44" x2="-1.9" y2="40.7" gradientUnits="userSpaceOnUse">
      <stop offset="0" stop-color="#2CA824" id="stop181"/>
      <stop offset="1" stop-color="#45CF3C" id="stop183"/>
    </linearGradient>
    <linearGradient id="paint2_linear" x1="10.3" y1="9.5" x2="7.2" y2="9.2" gradientUnits="userSpaceOnUse">
      <stop offset="0" stop-color="#2CA824" id="stop186"/>
      <stop offset="1" stop-color="#45CF3C" id="stop188"/>
    </linearGradient>
    <linearGradient id="paint3_linear" x1="10.3" y1="9.5" x2="7.2" y2="9.2" gradientUnits="userSpaceOnUse">
      <stop offset="0" stop-color="#2CA824" id="stop191"/>
      <stop offset="1" stop-color="#45CF3C" id="stop193"/>
    </linearGradient>
    <linearGradient id="paint4_linear" x1="38.1" y1="19.6" x2="2.2" y2="16.5" gradientUnits="userSpaceOnUse" xlink:href="#linearGradient346">
      <stop offset="0" stop-color="#2CA824" id="stop196"/>
      <stop offset="1" stop-color="#45CF3C" id="stop198"/>
    </linearGradient>
    <linearGradient id="paint5_linear" x1="38.1" y1="19.6" x2="2.2" y2="16.5" gradientUnits="userSpaceOnUse" xlink:href="#linearGradient340">
      <stop offset="0" stop-color="#2CA824" id="stop201"/>
      <stop offset="1" stop-color="#45CF3C" id="stop203"/>
    </linearGradient>
  </defs>
</svg>
