<?xml version="1.0" encoding="UTF-8" standalone="no"?>
<svg
   xmlns:dc="http://purl.org/dc/elements/1.1/"
   xmlns:cc="http://creativecommons.org/ns#"
   xmlns:rdf="http://www.w3.org/1999/02/22-rdf-syntax-ns#"
   xmlns:svg="http://www.w3.org/2000/svg"
   xmlns="http://www.w3.org/2000/svg"
   xmlns:xlink="http://www.w3.org/1999/xlink"
   xmlns:sodipodi="http://sodipodi.sourceforge.net/DTD/sodipodi-0.dtd"
   xmlns:inkscape="http://www.inkscape.org/namespaces/inkscape"
   width="48"
   height="48"
   viewBox="0 0 48 48"
   fill="none"
   version="1.1"
   id="svg2522"
   sodipodi:docname="ms-1.svg"
   inkscape:version="1.0.1 (3bc2e813f5, 2020-09-07)">
  <metadata
     id="metadata2526">
    <rdf:RDF>
      <cc:Work
         rdf:about="">
        <dc:format>image/svg+xml</dc:format>
        <dc:type
           rdf:resource="http://purl.org/dc/dcmitype/StillImage" />
      </cc:Work>
    </rdf:RDF>
  </metadata>
  <sodipodi:namedview
     pagecolor="#ffffff"
     bordercolor="#666666"
     borderopacity="1"
     objecttolerance="10"
     gridtolerance="10"
     guidetolerance="10"
     inkscape:pageopacity="0"
     inkscape:pageshadow="2"
     inkscape:window-width="1440"
     inkscape:window-height="847"
     id="namedview2524"
     showgrid="false"
     inkscape:zoom="8"
     inkscape:cx="-0.82153343"
     inkscape:cy="20.221555"
     inkscape:window-x="-8"
     inkscape:window-y="-8"
     inkscape:window-maximized="1"
     inkscape:current-layer="g2295" />
  <g
     clip-path="url(#clip0)"
     id="g2295">
    <path
       d="m 38.989735,37.924509 c 0.08137,-2.004944 0.05886,-2.115805 0.08807,-3.810153 1.4079,0.04755 1.808571,-0.962198 2.069971,-2.034857 0.0152,-1.081475 0.0692,-1.904741 0.0054,-2.337837 C 41.058662,29.099878 40.726139,28.732307 40.7118,28.7138 m 0,0 C 39.0321,26.4754 36.398606,25.1501 33.6001,25.1501 H 33.6 27.2 c -1.3531,0 -2.45,1.0969 -2.45,2.45 v 2.8436 C 21.216,27.772 15.2108,23.0324 10.45,19.2081 v -4.408 c 0,-0.4694 -0.3806,-0.85 -0.85,-0.85 -0.46944,0 -0.85,0.3806 -0.85,0.85 V 17.848 L 4.75367,14.6462 C 4.8156,14.4366 4.84803,14.2193 4.85,14.0005 v -4e-4 -4 c 0,-1.3531 -1.0969,-2.45 -2.45,-2.45 -1.3531,0 -2.45,1.0969 -2.45,2.45 v 4 c 0,1.3531 1.0969,2.45 2.45,2.45 h 1.2e-4 c 0.48703,-0.0012 0.96237,-0.1474 1.3655,-0.4197 4.41727,3.5576 16.27228,13.049 21.00288,16.5488 0.0889,0.8158 0.7641,1.4411 1.5815,1.4699 v 0.7916 L 24.7546,34.4591 C 23.5495,33.1345 21.8479,32.3706 20.0573,32.3503 L 4.70262,20.4886 l -5e-5,-1e-4 -3.26395,-2.5279 -1.4e-4,-10e-5 C 1.06745,17.6751 0.53555,17.7434 0.248668,18.1132 0.106304,18.2925 0.0422648,18.5216 0.0710536,18.7487 0.0998538,18.9759 0.219118,19.1819 0.40183,19.32 l 2.35163,1.7794 c -0.84936,0.7719 -1.32904,1.7897 -1.60666,2.7964 -0.282391,1.024 -0.356631,2.0401 -0.396674,2.7806 -0.3845,4.127 0.272194,7.6345 1.935374,10.318 L 2.728,36.9681 2.68551,36.9944 c 2.88039,4.6456 8.20849,5.7634 12.32199,5.8552 1.9425,2.4295 5.3543,3.1062 8.0774,1.6005 h 17.4839 c 0.7796,0.5187 1.6945,0.7969 2.631,0.8 h 2e-4 c 2.6786,0 4.85,-2.1714 4.85,-4.85 0,-2.6786 -2.1714,-4.85 -4.85,-4.85 h -1e-4 c -2.825358,0.223042 -3.551389,1.484676 -4.210165,2.374409 M 40.7118,28.7138 c 1e-4,10e-5 1e-4,2e-4 2e-4,3e-4 l -0.04,0.03 0.0395,-0.0306 z M 38.35,40.3993 v 9e-4 c 0.0015,0.823 0.2123,1.6316 0.6121,2.3499 H 25.0806 c 1.4082,-1.7753 1.7686,-4.1657 0.9461,-6.2776 2.9711,0.7491 8.6158,2.089 12.1776,2.9122 2e-4,10e-5 3e-4,10e-5 4e-4,10e-5 l 0.2485,0.0605 c -0.0637,0.3141 -0.0982,0.6335 -0.1032,0.954 z M 4.0954,22.1748 17.7851,32.7438 c -2.5398,0.9283 -4.2345,3.3457 -4.2351,6.0563 v 2e-4 c 0.0025,0.8023 0.1537,1.5969 0.4458,2.3437 C 10.4829,40.8615 6.41229,39.7255 4.1305,36.1018 2.67375,33.7135 2.08243,30.6131 2.40182,26.8123 2.47779,25.9207 2.58549,24.9912 2.83683,24.1657 3.0842,23.3532 3.46928,22.6461 4.0954,22.1748 Z m 11.6634,14.487 c 0.7709,-1.5336 2.3092,-2.532 4.0236,-2.6116 0.0733,0.0078 0.1471,0.0078 0.2204,-10e-5 2.2518,-0.0021 4.1958,1.5773 4.6547,3.7822 0.459,2.2057 -0.6945,4.4304 -2.7618,5.3262 -2.0375,0.8829 -4.4101,0.2353 -5.7183,-1.5484 H 16.192 L 16.127,41.5289 16.0643,41.4505 C 15.1045,40.0268 14.9876,38.1959 15.7588,36.6618 Z M 1.65,14.0001 v -4 c 0,-0.41422 0.33579,-0.75 0.75,-0.75 0.41421,0 0.75,0.33578 0.75,0.75 v 4 c 0,0.4142 -0.33579,0.75 -0.75,0.75 -0.41421,0 -0.75,-0.3358 -0.75,-0.75 z m 37.5,18.35 h -12.7 v -2.3 h 12.7 z m -12.7,-4.75 c 0,-0.4142 0.3358,-0.75 0.75,-0.75 h 6.4 c 1.586,0.0012 3.1252,0.5297 4.3763,1.5 H 26.45 Z m 1.6,6.45 h 9.5 v 3.4391 c -2.9148,-0.6754 -6.7382,-1.5819 -9.5,-2.2406 z m 15.15,9.5 c -1.7397,0 -3.15,-1.4103 -3.15,-3.15 0,-1.7397 1.4103,-3.15 3.15,-3.15 1.7397,0 3.15,1.4103 3.15,3.15 0,1.7397 -1.4103,3.15 -3.15,3.15 z"
       fill="url(#paint0_linear)"
       stroke="url(#paint1_linear)"
       stroke-width="0.1"
       id="path2251"
       sodipodi:nodetypes="cccsccscssccsssccccsssssccccccccccccsccscccccccssssccscccscscccccccccsscccccccccccccccssssssscccccsscccscccccsssss"
       style="fill:url(#linearGradient2530);fill-opacity:1;stroke:url(#linearGradient2528);stroke-opacity:1" />
    <path
       d="M 5.55393,27.6425 C 5.57968,27.1732 5.22011,26.7718 4.75075,26.746 4.28135,26.7202 3.87989,27.0798 3.85408,27.5492 l -1e-5,10e-5 c -0.12814,2.4906 0.11888,5.9783 2.03432,8.4651 h -2e-5 l 9.2e-4,0.0012 c 1.09451,1.3391 2.56085,2.3243 4.21421,2.8316 0.0857,0.0333 0.1767,0.0505 0.2686,0.0507 0.4676,0.0726 0.9064,-0.2463 0.9813,-0.7141 0.075,-0.4691 -0.3023,-0.9194 -1.19312,-1.1642 C 9.26946,36.7748 8.10694,36.0467 7.23923,34.9769 5.65128,32.9121 5.44204,29.8485 5.55393,27.6425 m 0,0 v 2e-4 L 5.504,27.6399 m 0.04993,0.0026 c 0,0 10e-6,0 10e-6,-10e-5 L 5.504,27.6399 m 1.73523,7.337 c 1.4e-4,2e-4 2.7e-4,3e-4 5e-6,0 -2.65e-4,-3e-4 -1.35e-4,-2e-4 -5e-6,0 z"
       fill="url(#paint2_linear)"
       stroke="url(#paint3_linear)"
       stroke-width="0.1"
       id="path2253"
       sodipodi:nodetypes="cssscccccccccccccccccc" />
    <path
       d="M20 36.3501C18.6469 36.3501 17.55 37.447 17.55 38.8001C17.55 40.1532 18.6469 41.2501 20 41.2501C21.3531 41.2501 22.45 40.1532 22.45 38.8001C22.45 37.447 21.3531 36.3501 20 36.3501ZM20 39.5501C19.5858 39.5501 19.25 39.2144 19.25 38.8001C19.25 38.3859 19.5858 38.0501 20 38.0501C20.4142 38.0501 20.75 38.3859 20.75 38.8001C20.75 39.2144 20.4142 39.5501 20 39.5501Z"
       fill="url(#paint4_linear)"
       stroke="url(#paint5_linear)"
       stroke-width="0.1"
       id="path2255" />
    <path
       d="M43.2 41.2501C43.6694 41.2501 44.05 40.8695 44.05 40.4001C44.05 39.9307 43.6694 39.5501 43.2 39.5501C42.7305 39.5501 42.35 39.9307 42.35 40.4001C42.35 40.8695 42.7305 41.2501 43.2 41.2501Z"
       fill="url(#paint6_linear)"
       stroke="url(#paint7_linear)"
       stroke-width="0.1"
       id="path2257" />
    <path
       d="M17.6 4.45005H18.4C18.8694 4.45005 19.25 4.06949 19.25 3.60005C19.25 3.13061 18.8694 2.75005 18.4 2.75005H17.6C17.1305 2.75005 16.75 3.13061 16.75 3.60005C16.75 4.06949 17.1305 4.45005 17.6 4.45005Z"
       fill="url(#paint8_linear)"
       stroke="url(#paint9_linear)"
       stroke-width="0.1"
       id="path2259" />
    <path
       d="M30.5605 10.4628L30.5608 10.4631C30.7211 10.666 30.9651 10.7849 31.2238 10.7861L31.2244 10.7861C31.4201 10.7845 31.6092 10.7155 31.7599 10.5906C32.119 10.2937 32.1721 9.76298 31.879 9.40079C31.518 8.95152 31.1331 8.51852 30.7484 8.10984L30.7484 8.10983L30.7475 8.1089C30.5879 7.94798 30.3706 7.85747 30.144 7.85747C29.9174 7.85747 29.7002 7.94793 29.5406 8.10875C29.3798 8.26834 29.2894 8.48554 29.2894 8.71211C29.2894 8.93862 29.3798 9.15576 29.5405 9.31533C29.8839 9.66673 30.2263 10.0331 30.5605 10.4628Z"
       fill="url(#paint10_linear)"
       stroke="url(#paint11_linear)"
       stroke-width="0.1"
       id="path2261" />
    <path
       d="m 34.5833,18.9476 c 0.0925,0.3918 0.447,0.665 0.8494,0.6545 h 0.1833 v 0.0015 l 0.0117,-0.0028 c 0.4544,-0.1093 0.7354,-0.5649 0.629,-1.02 v -10e-5 c -0.128,-0.5439 -0.2722,-1.0968 -0.4406,-1.6023 -0.0735,-0.3067 -0.3109,-0.5476 -0.6167,-0.6256 -0.3065,-0.0781 -0.631,0.0205 -0.8424,0.2558 -0.2113,0.2354 -0.2744,0.5687 -0.1638,0.865 l 6e-4,-2e-4 c 0.153397,0.507763 0.277335,1.032281 0.3895,1.4742 z"
       fill="url(#paint12_linear)"
       stroke="url(#paint13_linear)"
       stroke-width="0.1"
       id="path2263"
       sodipodi:nodetypes="ccccccccccccc" />
    <path
       d="m 33.0429,14.4697 c 0,10e-5 10e-5,3e-4 2e-4,4e-4 m 2e-4,4e-4 c -1e-4,-10e-5 -1e-4,-3e-4 -2e-4,-4e-4 m 0,0 c 0.1407,0.2949 0.438,0.4831 0.7648,0.4841 h 1e-4 c 0.1253,0 0.2493,-0.0259 0.3641,-0.0762 v 0 l 0.0012,-6e-4 c 0.4247,-0.1995 0.6074,-0.7055 0.4081,-1.1303 -0.274227,-0.497391 -0.597814,-1.094522 -0.802,-1.5159 -1e-4,-10e-5 -2e-4,-3e-4 -3e-4,-5e-4 -0.2348,-0.4079 -0.7558,-0.5485 -1.164,-0.3139 -0.4083,0.2347 -0.5491,0.7559 -0.3144,1.1643 h -10e-5 l 9e-4,0.0014 c 0.2527,0.4088 0.45355,0.830531 0.66595,1.255831 z"
       fill="url(#paint14_linear)"
       stroke="url(#paint15_linear)"
       stroke-width="0.1"
       id="path2265"
       sodipodi:nodetypes="cccccsssccccccccccc" />
    <path
       d="M22.9774 5.23983L22.9772 5.24023L22.9836 5.24131C23.0559 5.25363 23.1294 5.25656 23.2024 5.25001C23.5714 5.24761 23.8968 5.00733 24.0077 4.65517C24.0769 4.43994 24.0576 4.20597 23.954 4.00502C23.8503 3.80401 23.6707 3.65262 23.4551 3.58435L23.4548 3.58425C22.9093 3.41581 22.3559 3.27142 21.7863 3.1511L21.7863 3.1511L21.7861 3.15106C21.329 3.0567 20.8814 3.34854 20.7833 3.80471C20.7258 4.03526 20.7675 4.27936 20.8982 4.47783C21.0288 4.67625 21.2366 4.81092 21.471 4.84922C21.9807 4.95278 22.4827 5.08824 22.9774 5.23983Z"
       fill="url(#paint16_linear)"
       stroke="url(#paint17_linear)"
       stroke-width="0.1"
       id="path2267" />
    <path
       d="M28.1246 5.86307L28.1245 5.86301C27.651 5.53393 27.1536 5.22911 26.6566 4.94852L26.6566 4.94852L26.6562 4.94834C26.459 4.83891 26.2264 4.81236 26.0095 4.87453C25.7929 4.93665 25.6099 5.08222 25.5006 5.27925C25.3832 5.47865 25.3521 5.71731 25.4146 5.94012C25.4772 6.16298 25.6279 6.3507 25.8319 6.45991C26.2863 6.71501 26.725 6.98616 27.1564 7.25776C27.2983 7.35652 27.4669 7.40966 27.6399 7.41007L27.6401 7.41007C28.0109 7.40919 28.3384 7.168 28.4492 6.81411C28.5601 6.46022 28.4287 6.07532 28.1246 5.86307Z"
       fill="url(#paint18_linear)"
       stroke="url(#paint19_linear)"
       stroke-width="0.1"
       id="path2269" />
    <path
       d="M35.102 22.8481H35.1019L35.1021 22.851C35.1152 23.0765 35.2176 23.2876 35.3867 23.4375C35.5553 23.5871 35.7765 23.6636 36.0015 23.6501H36.048V23.6501L36.0509 23.65C36.278 23.6369 36.4905 23.5333 36.6406 23.3624C36.7904 23.1919 36.8658 22.9686 36.85 22.7423V22.3521V22.3514V22.3507V22.3499V22.3492V22.3485V22.3478V22.3471V22.3464V22.3457V22.345V22.3443V22.3436V22.3429V22.3422V22.3415V22.3407V22.34V22.3393V22.3386V22.3379V22.3372V22.3365V22.3357V22.335V22.3343V22.3336V22.3329V22.3322V22.3314V22.3307V22.33V22.3293V22.3286V22.3278V22.3271V22.3264V22.3257V22.3249V22.3242V22.3235V22.3228V22.3221V22.3213V22.3206V22.3199V22.3191V22.3184V22.3177V22.317V22.3162V22.3155V22.3148V22.314V22.3133V22.3126V22.3118V22.3111V22.3104V22.3096V22.3089V22.3082V22.3074V22.3067V22.306V22.3052V22.3045V22.3038V22.303V22.3023V22.3015V22.3008V22.3001V22.2993V22.2986V22.2978V22.2971V22.2963V22.2956V22.2949V22.2941V22.2934V22.2926V22.2919V22.2911V22.2904V22.2896V22.2889V22.2881V22.2874V22.2866V22.2859V22.2851V22.2844V22.2836V22.2829V22.2821V22.2814V22.2806V22.2799V22.2791V22.2784V22.2776V22.2769V22.2761V22.2753V22.2746V22.2738V22.2731V22.2723V22.2715V22.2708V22.27V22.2693V22.2685V22.2677V22.267V22.2662V22.2655V22.2647V22.2639V22.2632V22.2624V22.2616V22.2609V22.2601V22.2593V22.2586V22.2578V22.257V22.2563V22.2555V22.2547V22.254V22.2532V22.2524V22.2517V22.2509V22.2501V22.2493V22.2486V22.2478V22.247V22.2462V22.2455V22.2447V22.2439V22.2431V22.2424V22.2416V22.2408V22.24V22.2393V22.2385V22.2377V22.2369V22.2361V22.2354V22.2346V22.2338V22.233V22.2322V22.2315V22.2307V22.2299V22.2291V22.2283V22.2275V22.2267V22.226V22.2252V22.2244V22.2236V22.2228V22.222V22.2212V22.2205V22.2197V22.2189V22.2181V22.2173V22.2165V22.2157V22.2149V22.2141V22.2133V22.2125V22.2117V22.211V22.2102V22.2094V22.2086V22.2078V22.207V22.2062V22.2054V22.2046V22.2038V22.203V22.2022V22.2014V22.2006V22.1998V22.199V22.1982V22.1974V22.1966V22.1958V22.195V22.1942V22.1934V22.1926V22.1918V22.191V22.1902V22.1894V22.1886V22.1878V22.187V22.1862V22.1853V22.1845V22.1837V22.1829V22.1821V22.1813V22.1805V22.1797V22.1789V22.1781V22.1773V22.1764V22.1756V22.1748V22.174V22.1732V22.1724V22.1716V22.1708V22.1699V22.1691V22.1683V22.1675V22.1667V22.1659V22.1651V22.1642V22.1634V22.1626V22.1618V22.161V22.1602V22.1593V22.1585V22.1577V22.1569V22.1561V22.1552V22.1544V22.1536V22.1528V22.152V22.1511V22.1503V22.1495V22.1487V22.1478V22.147V22.1462V22.1454V22.1445V22.1437V22.1429V22.1421V22.1412V22.1404V22.1396V22.1388V22.1379V22.1371V22.1363V22.1354V22.1346V22.1338V22.1329V22.1321V22.1313V22.1305V22.1296V22.1288V22.128V22.1271V22.1263V22.1255V22.1246V22.1238V22.123V22.1221V22.1213V22.1205V22.1196V22.1188V22.1179V22.1171V22.1163V22.1154V22.1146V22.1138V22.1129V22.1121V22.1112V22.1104V22.1096V22.1087V22.1079V22.107V22.1062V22.1054V22.1045V22.1037V22.1028V22.102V22.1012V22.1003V22.0995V22.0986V22.0978V22.0969V22.0961V22.0952V22.0944V22.0936V22.0927V22.0919V22.091V22.0902V22.0893V22.0885V22.0876V22.0868V22.0859V22.0851V22.0842V22.0834V22.0825V22.0817V22.0808V22.08V22.0791V22.0783V22.0774V22.0766V22.0757V22.0749V22.074V22.0732V22.0723V22.0715V22.0706V22.0698V22.0689V22.068V22.0672V22.0663V22.0655V22.0646V22.0638V22.0629V22.0621V22.0612V22.0603V22.0595V22.0586V22.0578V22.0569V22.056V22.0552V22.0543V22.0535V22.0526V22.0518V22.0509V22.05V22.0492V22.0483V22.0474V22.0466V22.0457V22.0449V22.044V22.0431V22.0423V22.0414V22.0405V22.0397V22.0388V22.038V22.0371V22.0362V22.0354V22.0345V22.0336V22.0328V22.0319V22.031V22.0302V22.0293V22.0284V22.0276V22.0267V22.0258V22.025V22.0241V22.0232V22.0223V22.0215V22.0206V22.0197V22.0189V22.018V22.0171V22.0163V22.0154V22.0145V22.0136V22.0128V22.0119V22.011V22.0102V22.0093V22.0084V22.0075V22.0067V22.0058V22.0049V22.004V22.0032V22.0023V22.0014V22.0005V21.9997V21.9988V21.9979V21.997V21.9962V21.9953V21.9944V21.9935V21.9927V21.9918V21.9909V21.99V21.9891V21.9883V21.9874V21.9865V21.9856V21.9847V21.9839V21.983V21.9821V21.9812V21.9803V21.9795V21.9786V21.9777V21.9768V21.9759V21.9751V21.9742V21.9733V21.9724V21.9715V21.9706V21.9698V21.9689V21.968V21.9671V21.9662V21.9653V21.9645V21.9636V21.9627V21.9618V21.9609V21.96V21.9591V21.9583V21.9574V21.9565V21.9556V21.9547V21.9538V21.9529V21.9521V21.9512V21.9503V21.9494V21.9485V21.9476V21.9467V21.9458V21.945V21.9441V21.9432V21.9423V21.9414V21.9405V21.9396V21.9387V21.9378V21.9369V21.9361H36.8501L36.8499 21.9327C36.8339 21.6936 36.7177 21.4724 36.53 21.3235C36.3427 21.1749 36.1015 21.1121 35.8655 21.1504C35.4002 21.196 35.0591 21.6089 35.102 22.0744V22.4481V22.8481Z"
       fill="url(#paint20_linear)"
       stroke="url(#paint21_linear)"
       stroke-width="0.1"
       id="path2271" />
    <path
       d="M16.8413 5.95002L16.8413 5.95H16.84H16C15.5306 5.95 15.15 6.33056 15.15 6.8C15.15 7.26944 15.5306 7.65 16 7.65H16.7994C17.2685 7.66138 17.6583 7.29047 17.67 6.82125C17.6817 6.35182 17.3107 5.96175 16.8413 5.95002Z"
       fill="url(#paint22_linear)"
       stroke="url(#paint23_linear)"
       stroke-width="0.1"
       id="path2273" />
    <path
       d="m 25.7362,11.2341 c 0.2353,-8e-4 0.4597,-0.099 0.6199,-0.2714 0.3289,-0.3316 0.3287,-0.8665 -6e-4,-1.19787 v -2e-5 L 26.3541,9.76349 C 25.9294,9.36798 25.4792,9.0008 25.0064,8.66432 24.818,8.51052 24.5728,8.44474 24.3327,8.48367 24.0923,8.52266 23.8801,8.66289 23.7501,8.86879 23.4912,9.2543 23.5897,9.77626 23.9712,10.041 c 0.4168,0.2971 0.8132,0.6216 1.1866,0.9716 v 0 l 6e-4,5e-4 c 0.158,0.1436 0.3642,0.2225 0.5778,0.221 z m 0,0 h 2e-4"
       fill="url(#paint24_linear)"
       stroke="url(#paint25_linear)"
       stroke-width="0.1"
       id="path2275"
       sodipodi:nodetypes="cccccccccsccccc"
       style="stroke-opacity:1;fill-opacity:1;" />
    <path
       d="m 29.249,17.537 v -10e-5 c -0.1596,-0.4435 0.0706,-0.9324 0.5141,-1.092 0.4435,-0.1595 0.9323,0.0706 1.0919,0.5141 0.1844,0.5051 0.3609,1.0506 0.5054,1.6044 0.1189,0.4488 -0.1445,0.9097 -0.5909,1.0356 -0.0616,0.0287 -0.1269,0.0484 -0.1941,0.0585 l -0.0057,8e-4 v -3e-4 c -0.3951,0.0135 -0.7474,-0.2472 -0.85,-0.629 z m 0.4707,1.492 -0.4707,-1.492"
       fill="url(#paint26_linear)"
       stroke="url(#paint27_linear)"
       stroke-width="0.1"
       id="path2277"
       sodipodi:nodetypes="ccccccccccccc" />
    <path
       d="M21.5846 8.65004C21.9914 8.6469 22.339 8.3559 22.4136 7.95592C22.4882 7.55588 22.2688 7.15908 21.8904 7.00954L21.8901 7.00944C21.352 6.80022 20.8027 6.62071 20.2449 6.47173L20.2447 6.47168C19.9502 6.39426 19.6368 6.47984 19.4224 6.69618C19.2081 6.91253 19.1255 7.22677 19.2057 7.52054C19.2859 7.81431 19.5168 8.04297 19.8113 8.1204L19.8116 8.12048C20.3067 8.24708 20.7936 8.40404 21.2694 8.59046C21.3694 8.63133 21.4766 8.6516 21.5846 8.65004ZM21.5846 8.65004C21.5845 8.65004 21.5844 8.65004 21.5844 8.65004L21.584 8.60004L21.5847 8.65003C21.5847 8.65003 21.5846 8.65003 21.5846 8.65004Z"
       fill="url(#paint28_linear)"
       stroke="url(#paint29_linear)"
       stroke-width="0.1"
       id="path2279" />
    <path
       d="M27.3475 12.1669L27.3475 12.1669L27.3464 12.1677C26.9706 12.4436 26.8872 12.9706 27.1593 13.3491C27.4539 13.7631 27.7246 14.2089 27.9554 14.6627L27.9554 14.6627L27.9564 14.6645C28.1067 14.9318 28.3893 15.0975 28.6959 15.098L28.6961 15.098C28.8405 15.0977 28.9828 15.0628 29.111 14.9964L29.111 14.9964L29.1124 14.9956C29.3105 14.8849 29.4562 14.6995 29.5169 14.4808C29.5775 14.2622 29.5482 14.0284 29.4355 13.8314C29.1546 13.3258 28.8418 12.8365 28.5293 12.3798L28.5293 12.3798L28.529 12.3794C28.2611 11.995 27.7326 11.9 27.3475 12.1669Z"
       fill="url(#paint30_linear)"
       stroke="url(#paint31_linear)"
       stroke-width="0.1"
       id="path2281" />
    <path
       d="m 31.0507,21.2303 c -0.4627,0.0491 -0.7999,0.461 -0.7567,0.9241 0.03598,0.774897 0.15506,1.508263 0.946,1.4456 0.539357,-0.124289 0.749604,-0.333134 0.81,-0.8 v 0 -0.0031 c 0,-0.2607 0,-0.5444 -0.0646,-0.8054 -0.0223,-0.2244 -0.1329,-0.4308 -0.3076,-0.5737 -0.1756,-0.1437 -0.4014,-0.2112 -0.627,-0.1875 z"
       fill="url(#paint32_linear)"
       stroke="url(#paint33_linear)"
       stroke-width="0.1"
       id="path2283"
       sodipodi:nodetypes="cccccscccc" />
    <path
       d="M26.448 23.6499V23.6499L26.4509 23.6498C26.678 23.6367 26.8905 23.5331 27.0406 23.3622C27.1904 23.1917 27.2658 22.9683 27.25 22.742L27.25 22.7397L27.2498 22.7284C27.2496 22.7185 27.2492 22.7039 27.2485 22.6847C27.2469 22.6464 27.2439 22.59 27.2378 22.5167C27.2257 22.3704 27.2016 22.1572 27.1534 21.888C27.0872 21.4193 26.6539 21.0927 26.1851 21.1583C25.7159 21.224 25.3888 21.6576 25.4545 22.1268L25.4545 22.1268L25.4545 22.1271C25.4864 22.3462 25.5063 22.5234 25.5182 22.6476C25.5242 22.7098 25.5282 22.7586 25.5306 22.7928C25.5319 22.8099 25.5327 22.8233 25.5333 22.8329L25.5339 22.8441C25.5339 22.8463 25.534 22.8474 25.534 22.8478C25.534 22.8478 25.534 22.8478 25.534 22.8479H25.5339L25.5341 22.8508C25.5614 23.3067 25.944 23.6595 26.4005 23.6499H26.448Z"
       fill="url(#paint34_linear)"
       stroke="url(#paint35_linear)"
       stroke-width="0.1"
       id="path2285" />
    <path
       d="m 18.1039,11.4393 -4e-4,-10e-5 c -0.4436,-0.155 -0.6776,-0.6401 -0.5227,-1.0837 0.1549,-0.44363 0.6401,-0.67766 1.0837,-0.52276 0.5536,0.19286 1.091,0.42926 1.6072,0.70716 l 3e-4,2e-4 c 0.4091,0.2244 0.5608,0.7365 0.34,1.1475 m 0,0 v 0 m 0,0 v 0 m 0,0 c -0.2214,0.4122 -0.7342,0.568 -1.1477,0.3484 l 2e-4,10e-5 -1.3606,-0.5968"
       fill="url(#paint36_linear)"
       stroke="url(#paint37_linear)"
       stroke-width="0.1"
       id="path2287"
       sodipodi:nodetypes="ccccccccccccccc"
       style="fill:url(#paint36_linear);fill-opacity:1;stroke:url(#paint37_linear);stroke-opacity:1" />
    <path
       d="M23.0443 12.6697L23.0442 12.6696C22.8347 12.4494 22.5236 12.3578 22.2282 12.4291C21.9328 12.5005 21.6979 12.7241 21.612 13.0156C21.5261 13.3071 21.6023 13.6223 21.8118 13.8425L21.8118 13.8426C22.1574 14.2042 22.4767 14.59 22.7673 14.9971C22.926 15.2199 23.1822 15.3528 23.4558 15.354L23.4567 15.354C23.6357 15.3514 23.8097 15.2953 23.9566 15.1931L23.9566 15.1931L23.9573 15.1925C24.1403 15.0598 24.2629 14.8597 24.298 14.6364C24.3331 14.4131 24.2779 14.1851 24.1445 14.0027C23.8083 13.534 23.4407 13.0887 23.0443 12.6697Z"
       fill="url(#paint38_linear)"
       stroke="url(#paint39_linear)"
       stroke-width="0.1"
       id="path2289" />
    <path
       d="M24.7517 19.109L24.7517 19.109L24.7525 19.1114C24.8703 19.4744 25.2156 19.7141 25.5965 19.6981C25.6801 19.7136 25.766 19.7132 25.8495 19.697L25.8496 19.6974L25.8553 19.6956C26.3 19.5533 26.5467 19.0789 26.4078 18.6331L26.4077 18.6327C26.2311 18.0791 26.0307 17.5499 25.8224 17.0294L25.8225 17.0294L25.8221 17.0285C25.6391 16.5944 25.1387 16.3908 24.7046 16.5739C24.2705 16.7569 24.0669 17.2572 24.2499 17.6914L24.2499 17.6914L24.2503 17.6922C24.4413 18.1219 24.6164 18.6075 24.7517 19.109Z"
       fill="url(#paint40_linear)"
       stroke="url(#paint41_linear)"
       stroke-width="0.1"
       id="path2291" />
    <path
       d="M15.2495 9.15022L15.2495 9.1502H15.248H15.2464H15.2447H15.2431H15.2414H15.2398H15.2382H15.2365H15.2349H15.2332H15.2316H15.23H15.2283H15.2267H15.225H15.2234H15.2218H15.2201H15.2185H15.2168H15.2152H15.2136H15.2119H15.2103H15.2086H15.207H15.2053H15.2037H15.2021H15.2004H15.1988H15.1971H15.1955H15.1939H15.1922H15.1906H15.1889H15.1873H15.1857H15.184H15.1824H15.1807H15.1791H15.1775H15.1758H15.1742H15.1725H15.1709H15.1692H15.1676H15.166H15.1643H15.1627H15.161H15.1594H15.1578H15.1561H15.1545H15.1528H15.1512H15.1496H15.1479H15.1463H15.1446H15.143H15.1413H15.1397H15.1381H15.1364H15.1348H15.1331H15.1315H15.1299H15.1282H15.1266H15.1249H15.1233H15.1217H15.12H15.1184H15.1167H15.1151H15.1134H15.1118H15.1102H15.1085H15.1069H15.1052H15.1036H15.1019H15.1003H15.0987H15.097H15.0954H15.0937H15.0921H15.0905H15.0888H15.0872H15.0855H15.0839H15.0822H15.0806H15.079H15.0773H15.0757H15.074H15.0724H15.0707H15.0691H15.0675H15.0658H15.0642H15.0625H15.0609H15.0592H15.0576H15.056H15.0543H15.0527H15.051H15.0494H15.0477H15.0461H15.0445H15.0428H15.0412H15.0395H15.0379H15.0362H15.0346H15.0329H15.0313H15.0297H15.028H15.0264H15.0247H15.0231H15.0214H15.0198H15.0182H15.0165H15.0149H15.0132H15.0116H15.0099H15.0083H15.0066H15.005H15.0034H15.0017H15.0001H14.9984H14.9968H14.9951H14.9935H14.9918H14.9902H14.9886H14.9869H14.9853H14.9836H14.982H14.9803H14.9787H14.977H14.9754H14.9737H14.9721H14.9705H14.9688H14.9672H14.9655H14.9639H14.9622H14.9606H14.9589H14.9573H14.9556H14.954H14.9523H14.9507H14.9491H14.9474H14.9458H14.9441H14.9425H14.9408H14.9392H14.9375H14.9359H14.9342H14.9326H14.9309H14.9293H14.9276H14.926H14.9243H14.9227H14.9211H14.9194H14.9178H14.9161H14.9145H14.9128H14.9112H14.9095H14.9079H14.9062H14.9046H14.9029H14.9013H14.8996H14.898H14.8963H14.8947H14.893H14.8914H14.8897H14.8881H14.8864H14.8848H14.8831H14.8815H14.8798H14.8782H14.8765H14.8749H14.8732H14.8716H14.8699H14.8683H14.8666H14.865H14.8633H14.8617H14.86H14.8584H14.8567H14.8551H14.8534H14.8518H14.8501H14.8485H14.8468H14.8452H14.8435H14.8419H14.8402H14.8386H14.8369H14.8353H14.8336H14.832H14.8303H14.8287H14.827H14.8254H14.8237H14.822H14.8204H14.8187H14.8171H14.8154H14.8138H14.8121H14.8105H14.8088H14.8072H14.8055H14.8039H14.8022H14.8006H14.7989H14.7972H14.7956H14.7939H14.7923H14.7906H14.789H14.7873H14.7857H14.784H14.7824H14.7807H14.779H14.7774H14.7757H14.7741H14.7724H14.7708H14.7691H14.7675H14.7658H14.7641H14.7625H14.7608H14.7592H14.7575H14.7559H14.7542H14.7526H14.7509H14.7492H14.7476H14.7459H14.7443H14.7426H14.741H14.7393H14.7376H14.736H14.7343H14.7327H14.731H14.7293H14.7277H14.726H14.7244H14.7227H14.7211H14.7194H14.7177H14.7161H14.7144H14.7128H14.7111H14.7094H14.7078H14.7061H14.7045H14.7028H14.7011H14.6995H14.6978H14.6962H14.6945H14.6928H14.6912H14.6895H14.6879H14.6862H14.6845H14.6829H14.6812H14.6795H14.6779H14.6762H14.6746H14.6729H14.6712H14.6696H14.6679H14.6662H14.6646H14.6629H14.6613H14.6596H14.6579H14.6563H14.6546H14.6529H14.6513H14.6496H14.6479H14.6463H14.6446H14.643H14.6413H14.6396H14.638H14.6363H14.6346H14.633H14.6313H14.6296H14.628H14.6263H14.6246H14.623H14.6213H14.6196H14.618H14.6163H14.6146H14.613H14.6113H14.6096H14.608H14.6063H14.6046H14.603H14.6013H14.5996H14.598H14.5963H14.5946H14.5929H14.5913H14.5896H14.5879H14.5863H14.5846H14.5829H14.5813H14.5796H14.5779H14.5763H14.5746H14.5729H14.5712H14.5696H14.5679H14.5662H14.5646H14.5629H14.5612H14.5595H14.5579H14.5562H14.5545H14.5529H14.5512H14.5495H14.5478H14.5462H14.5445H14.5428H14.5411H14.5395H14.5378H14.5361H14.5345H14.5328H14.5311H14.5294H14.5278H14.5261H14.5244H14.5227H14.5211H14.5194H14.5177H14.516H14.5144H14.5127H14.511H14.5093H14.5076H14.506H14.5043H14.5026H14.5009H14.4993H14.4976H14.4959H14.4942H14.4926H14.4909H14.4892H14.4875H14.4858H14.4842H14.4825H14.4808H14.4791H14.4774H14.4758H14.4741H14.4724H14.4707H14.469H14.4674H14.4657H14.464H14.4623H14.4606H14.459H14.4573H14.4556H14.4539H14.4522H14.4506H14.4489H14.4472H14.4455H14.4438H14.4421H14.4405H14.4388H14.4371H14.4354H14.4337H14.432H14.4304H14.4287H14.427H14.4253H14.4236H14.4219H14.4202H14.4186H14.4169H14.4152H14.4135H14.4118H14.4101H14.4084H14.4068H14.4051H14.4034H14.4017H14.4C13.9306 9.1502 13.55 9.53075 13.55 10.0002C13.55 10.4696 13.9306 10.8502 14.4 10.8502H15.152H15.1993C15.6684 10.8639 16.0599 10.4949 16.074 10.0257C16.0881 9.55626 15.7189 9.1643 15.2495 9.15022Z"
       fill="url(#paint42_linear)"
       stroke="url(#paint43_linear)"
       stroke-width="0.1"
       id="path2293" />
  </g>
  <defs
     id="defs2520">
    <linearGradient
       id="paint0_linear"
       x1="14.271671"
       y1="46.955677"
       x2="-2.1633401"
       y2="42.049999"
       gradientUnits="userSpaceOnUse">
      <stop
         stop-color="#2CA824"
         id="stop2297" />
      <stop
         offset="1"
         stop-color="#45CF3C"
         id="stop2299" />
    </linearGradient>
    <linearGradient
       id="paint1_linear"
       x1="14.271671"
       y1="46.955677"
       x2="-2.1633401"
       y2="42.049999"
       gradientUnits="userSpaceOnUse">
      <stop
         stop-color="#2CA824"
         id="stop2302" />
      <stop
         offset="1"
         stop-color="#45CF3C"
         id="stop2304" />
    </linearGradient>
    <linearGradient
       id="paint2_linear"
       x1="11.3143"
       y1="38.8582"
       x2="3.51713"
       y2="38.6217"
       gradientUnits="userSpaceOnUse">
      <stop
         stop-color="#2CA824"
         id="stop2307" />
      <stop
         offset="1"
         stop-color="#45CF3C"
         id="stop2309" />
    </linearGradient>
    <linearGradient
       id="paint3_linear"
       x1="11.3143"
       y1="38.8582"
       x2="3.51713"
       y2="38.6217"
       gradientUnits="userSpaceOnUse">
      <stop
         stop-color="#2CA824"
         id="stop2312" />
      <stop
         offset="1"
         stop-color="#45CF3C"
         id="stop2314" />
    </linearGradient>
    <linearGradient
       id="paint4_linear"
       x1="22.4"
       y1="41.2001"
       x2="17.376"
       y2="40.953"
       gradientUnits="userSpaceOnUse">
      <stop
         stop-color="#2CA824"
         id="stop2317" />
      <stop
         offset="1"
         stop-color="#45CF3C"
         id="stop2319" />
    </linearGradient>
    <linearGradient
       id="paint5_linear"
       x1="22.4"
       y1="41.2001"
       x2="17.376"
       y2="40.953"
       gradientUnits="userSpaceOnUse">
      <stop
         stop-color="#2CA824"
         id="stop2322" />
      <stop
         offset="1"
         stop-color="#45CF3C"
         id="stop2324" />
    </linearGradient>
    <linearGradient
       id="paint6_linear"
       x1="44"
       y1="41.2001"
       x2="42.3253"
       y2="41.1177"
       gradientUnits="userSpaceOnUse">
      <stop
         stop-color="#2CA824"
         id="stop2327" />
      <stop
         offset="1"
         stop-color="#45CF3C"
         id="stop2329" />
    </linearGradient>
    <linearGradient
       id="paint7_linear"
       x1="44"
       y1="41.2001"
       x2="42.3253"
       y2="41.1177"
       gradientUnits="userSpaceOnUse">
      <stop
         stop-color="#2CA824"
         id="stop2332" />
      <stop
         offset="1"
         stop-color="#45CF3C"
         id="stop2334" />
    </linearGradient>
    <linearGradient
       id="paint8_linear"
       x1="19.2"
       y1="4.40005"
       x2="16.6956"
       y2="4.21526"
       gradientUnits="userSpaceOnUse">
      <stop
         stop-color="#2CA824"
         id="stop2337" />
      <stop
         offset="1"
         stop-color="#45CF3C"
         id="stop2339" />
    </linearGradient>
    <linearGradient
       id="paint9_linear"
       x1="19.2"
       y1="4.40005"
       x2="16.6956"
       y2="4.21526"
       gradientUnits="userSpaceOnUse">
      <stop
         stop-color="#2CA824"
         id="stop2342" />
      <stop
         offset="1"
         stop-color="#45CF3C"
         id="stop2344" />
    </linearGradient>
    <linearGradient
       id="paint10_linear"
       x1="32.0183"
       y1="10.7361"
       x2="29.2137"
       y2="10.6054"
       gradientUnits="userSpaceOnUse">
      <stop
         stop-color="#2CA824"
         id="stop2347" />
      <stop
         offset="1"
         stop-color="#45CF3C"
         id="stop2349" />
    </linearGradient>
    <linearGradient
       id="paint11_linear"
       x1="32.0183"
       y1="10.7361"
       x2="29.2137"
       y2="10.6054"
       gradientUnits="userSpaceOnUse">
      <stop
         stop-color="#2CA824"
         id="stop2352" />
      <stop
         offset="1"
         stop-color="#45CF3C"
         id="stop2354" />
    </linearGradient>
    <linearGradient
       id="paint12_linear"
       x1="36.2292"
       y1="19.5524"
       x2="34.0913"
       y2="19.4849"
       gradientUnits="userSpaceOnUse">
      <stop
         stop-color="#2CA824"
         id="stop2357" />
      <stop
         offset="1"
         stop-color="#45CF3C"
         id="stop2359" />
    </linearGradient>
    <linearGradient
       id="paint13_linear"
       x1="36.2292"
       y1="19.5524"
       x2="34.0913"
       y2="19.4849"
       gradientUnits="userSpaceOnUse">
      <stop
         stop-color="#2CA824"
         id="stop2362" />
      <stop
         offset="1"
         stop-color="#45CF3C"
         id="stop2364" />
    </linearGradient>
    <linearGradient
       id="paint14_linear"
       x1="34.612"
       y1="14.9042"
       x2="32.1239"
       y2="14.8089"
       gradientUnits="userSpaceOnUse">
      <stop
         stop-color="#2CA824"
         id="stop2367" />
      <stop
         offset="1"
         stop-color="#45CF3C"
         id="stop2369" />
    </linearGradient>
    <linearGradient
       id="paint15_linear"
       x1="34.612"
       y1="14.9042"
       x2="32.1239"
       y2="14.8089"
       gradientUnits="userSpaceOnUse">
      <stop
         stop-color="#2CA824"
         id="stop2372" />
      <stop
         offset="1"
         stop-color="#45CF3C"
         id="stop2374" />
    </linearGradient>
    <linearGradient
       id="paint16_linear"
       x1="23.9986"
       y1="5.20341"
       x2="20.6712"
       y2="4.9449"
       gradientUnits="userSpaceOnUse">
      <stop
         stop-color="#2CA824"
         id="stop2377" />
      <stop
         offset="1"
         stop-color="#45CF3C"
         id="stop2379" />
    </linearGradient>
    <linearGradient
       id="paint17_linear"
       x1="23.9986"
       y1="5.20341"
       x2="20.6712"
       y2="4.9449"
       gradientUnits="userSpaceOnUse">
      <stop
         stop-color="#2CA824"
         id="stop2382" />
      <stop
         offset="1"
         stop-color="#45CF3C"
         id="stop2384" />
    </linearGradient>
    <linearGradient
       id="paint18_linear"
       x1="28.4382"
       y1="7.36007"
       x2="25.2965"
       y2="7.17193"
       gradientUnits="userSpaceOnUse">
      <stop
         stop-color="#2CA824"
         id="stop2387" />
      <stop
         offset="1"
         stop-color="#45CF3C"
         id="stop2389" />
    </linearGradient>
    <linearGradient
       id="paint19_linear"
       x1="28.4382"
       y1="7.36007"
       x2="25.2965"
       y2="7.17193"
       gradientUnits="userSpaceOnUse">
      <stop
         stop-color="#2CA824"
         id="stop2392" />
      <stop
         offset="1"
         stop-color="#45CF3C"
         id="stop2394" />
    </linearGradient>
    <linearGradient
       id="paint20_linear"
       x1="36.802"
       y1="23.6016"
       x2="35.069"
       y2="23.5431"
       gradientUnits="userSpaceOnUse">
      <stop
         stop-color="#2CA824"
         id="stop2397" />
      <stop
         offset="1"
         stop-color="#45CF3C"
         id="stop2399" />
    </linearGradient>
    <linearGradient
       id="paint21_linear"
       x1="36.802"
       y1="23.6016"
       x2="35.069"
       y2="23.5431"
       gradientUnits="userSpaceOnUse">
      <stop
         stop-color="#2CA824"
         id="stop2402" />
      <stop
         offset="1"
         stop-color="#45CF3C"
         id="stop2404" />
    </linearGradient>
    <linearGradient
       id="paint22_linear"
       x1="17.6203"
       y1="7.60025"
       x2="15.0949"
       y2="7.41238"
       gradientUnits="userSpaceOnUse">
      <stop
         stop-color="#2CA824"
         id="stop2407" />
      <stop
         offset="1"
         stop-color="#45CF3C"
         id="stop2409" />
    </linearGradient>
    <linearGradient
       id="paint23_linear"
       x1="17.6203"
       y1="7.60025"
       x2="15.0949"
       y2="7.41238"
       gradientUnits="userSpaceOnUse">
      <stop
         stop-color="#2CA824"
         id="stop2412" />
      <stop
         offset="1"
         stop-color="#45CF3C"
         id="stop2414" />
    </linearGradient>
    <linearGradient
       id="paint24_linear"
       x1="22.365101"
       y1="11.46535"
       x2="23.5219"
       y2="11.0218"
       gradientUnits="userSpaceOnUse">
      <stop
         stop-color="#2CA824"
         id="stop2417" />
      <stop
         offset="1"
         stop-color="#45CF3C"
         id="stop2419" />
    </linearGradient>
    <linearGradient
       id="paint25_linear"
       x1="22.365101"
       y1="11.46535"
       x2="23.5219"
       y2="11.0218"
       gradientUnits="userSpaceOnUse">
      <stop
         stop-color="#2CA824"
         id="stop2422" />
      <stop
         offset="1"
         stop-color="#45CF3C"
         id="stop2424" />
    </linearGradient>
    <linearGradient
       id="paint26_linear"
       x1="31.3389"
       y1="19.6085"
       x2="29.1478"
       y2="19.5373"
       gradientUnits="userSpaceOnUse">
      <stop
         stop-color="#2CA824"
         id="stop2427" />
      <stop
         offset="1"
         stop-color="#45CF3C"
         id="stop2429" />
    </linearGradient>
    <linearGradient
       id="paint27_linear"
       x1="31.3389"
       y1="19.6085"
       x2="29.1478"
       y2="19.5373"
       gradientUnits="userSpaceOnUse">
      <stop
         stop-color="#2CA824"
         id="stop2432" />
      <stop
         offset="1"
         stop-color="#45CF3C"
         id="stop2434" />
    </linearGradient>
    <linearGradient
       id="paint28_linear"
       x1="22.3781"
       y1="8.60012"
       x2="19.0884"
       y2="8.35794"
       gradientUnits="userSpaceOnUse">
      <stop
         stop-color="#2CA824"
         id="stop2437" />
      <stop
         offset="1"
         stop-color="#45CF3C"
         id="stop2439" />
    </linearGradient>
    <linearGradient
       id="paint29_linear"
       x1="22.3781"
       y1="8.60012"
       x2="19.0884"
       y2="8.35794"
       gradientUnits="userSpaceOnUse">
      <stop
         stop-color="#2CA824"
         id="stop2442" />
      <stop
         offset="1"
         stop-color="#45CF3C"
         id="stop2444" />
    </linearGradient>
    <linearGradient
       id="paint30_linear"
       x1="29.4978"
       y1="15.048"
       x2="26.9331"
       y2="14.9444"
       gradientUnits="userSpaceOnUse">
      <stop
         stop-color="#2CA824"
         id="stop2447" />
      <stop
         offset="1"
         stop-color="#45CF3C"
         id="stop2449" />
    </linearGradient>
    <linearGradient
       id="paint31_linear"
       x1="29.4978"
       y1="15.048"
       x2="26.9331"
       y2="14.9444"
       gradientUnits="userSpaceOnUse">
      <stop
         stop-color="#2CA824"
         id="stop2452" />
      <stop
         offset="1"
         stop-color="#45CF3C"
         id="stop2454" />
    </linearGradient>
    <linearGradient
       id="paint32_linear"
       x1="32"
       y1="23.6001"
       x2="30.2608"
       y2="23.539"
       gradientUnits="userSpaceOnUse">
      <stop
         stop-color="#2CA824"
         id="stop2457" />
      <stop
         offset="1"
         stop-color="#45CF3C"
         id="stop2459" />
    </linearGradient>
    <linearGradient
       id="paint33_linear"
       x1="32"
       y1="23.6001"
       x2="30.2608"
       y2="23.539"
       gradientUnits="userSpaceOnUse">
      <stop
         stop-color="#2CA824"
         id="stop2462" />
      <stop
         offset="1"
         stop-color="#45CF3C"
         id="stop2464" />
    </linearGradient>
    <linearGradient
       id="paint34_linear"
       x1="27.2021"
       y1="23.6"
       x2="25.4144"
       y2="23.5375"
       gradientUnits="userSpaceOnUse">
      <stop
         stop-color="#2CA824"
         id="stop2467" />
      <stop
         offset="1"
         stop-color="#45CF3C"
         id="stop2469" />
    </linearGradient>
    <linearGradient
       id="paint35_linear"
       x1="27.2021"
       y1="23.6"
       x2="25.4144"
       y2="23.5375"
       gradientUnits="userSpaceOnUse">
      <stop
         stop-color="#2CA824"
         id="stop2472" />
      <stop
         offset="1"
         stop-color="#45CF3C"
         id="stop2474" />
    </linearGradient>
    <linearGradient
       id="paint36_linear"
       x1="16.923468"
       y1="12.781658"
       x2="17.4461"
       y2="11.8689"
       gradientUnits="userSpaceOnUse">
      <stop
         stop-color="#2CA824"
         id="stop2477" />
      <stop
         offset="1"
         stop-color="#45CF3C"
         id="stop2479" />
    </linearGradient>
    <linearGradient
       id="paint37_linear"
       x1="16.923468"
       y1="12.781658"
       x2="17.4461"
       y2="11.8689"
       gradientUnits="userSpaceOnUse">
      <stop
         stop-color="#2CA824"
         id="stop2482" />
      <stop
         offset="1"
         stop-color="#45CF3C"
         id="stop2484" />
    </linearGradient>
    <linearGradient
       id="paint38_linear"
       x1="24.2583"
       y1="15.304"
       x2="21.5036"
       y2="15.1789"
       gradientUnits="userSpaceOnUse">
      <stop
         stop-color="#2CA824"
         id="stop2487" />
      <stop
         offset="1"
         stop-color="#45CF3C"
         id="stop2489" />
    </linearGradient>
    <linearGradient
       id="paint39_linear"
       x1="24.2583"
       y1="15.304"
       x2="21.5036"
       y2="15.1789"
       gradientUnits="userSpaceOnUse">
      <stop
         stop-color="#2CA824"
         id="stop2492" />
      <stop
         offset="1"
         stop-color="#45CF3C"
         id="stop2494" />
    </linearGradient>
    <linearGradient
       id="paint40_linear"
       x1="26.3965"
       y1="19.6594"
       x2="24.129"
       y2="19.5816"
       gradientUnits="userSpaceOnUse">
      <stop
         stop-color="#2CA824"
         id="stop2497" />
      <stop
         offset="1"
         stop-color="#45CF3C"
         id="stop2499" />
    </linearGradient>
    <linearGradient
       id="paint41_linear"
       x1="26.3965"
       y1="19.6594"
       x2="24.129"
       y2="19.5816"
       gradientUnits="userSpaceOnUse">
      <stop
         stop-color="#2CA824"
         id="stop2502" />
      <stop
         offset="1"
         stop-color="#45CF3C"
         id="stop2504" />
    </linearGradient>
    <linearGradient
       id="paint42_linear"
       x1="16.0244"
       y1="10.8006"
       x2="13.4948"
       y2="10.6121"
       gradientUnits="userSpaceOnUse">
      <stop
         stop-color="#2CA824"
         id="stop2507" />
      <stop
         offset="1"
         stop-color="#45CF3C"
         id="stop2509" />
    </linearGradient>
    <linearGradient
       id="paint43_linear"
       x1="16.0244"
       y1="10.8006"
       x2="13.4948"
       y2="10.6121"
       gradientUnits="userSpaceOnUse">
      <stop
         stop-color="#2CA824"
         id="stop2512" />
      <stop
         offset="1"
         stop-color="#45CF3C"
         id="stop2514" />
    </linearGradient>
    <clipPath
       id="clip0">
      <rect
         width="48"
         height="48"
         fill="white"
         id="rect2517" />
    </clipPath>
    <linearGradient
       inkscape:collect="always"
       xlink:href="#paint1_linear"
       id="linearGradient2528"
       gradientUnits="userSpaceOnUse"
       x1="-7.5932231"
       y1="44.56171"
       x2="-2.1633401"
       y2="42.049999" />
    <linearGradient
       inkscape:collect="always"
       xlink:href="#paint0_linear"
       id="linearGradient2530"
       gradientUnits="userSpaceOnUse"
       x1="-7.5932231"
       y1="44.56171"
       x2="-2.1633401"
       y2="42.049999" />
  </defs>
</svg>
