<svg width="46" height="46" fill="none">
  <g clip-path="url(#clip0)">
    <mask id="a" maskUnits="userSpaceOnUse" x="-1" y="-1" width="48" height="48" fill="#000">
      <path fill="#fff" d="M-1-1h48v48H-1z"/>
      <path d="M43.7 18.4h-3.8c-1 0-2 .7-2.2 1.6-.6.3-1.1.8-1.4 1.4L35.1 24c-.3-.2-.7-.2-1-.2h-1.9a3.8 3.8 0 00-4.8-3.7 5.4 5.4 0 00-2.7-3.4v-.3l1.2-4a1.5 1.5 0 00-1-2l-2.2-.6L25 2.3l1.4.5h.3c.3 0 .6-.2.7-.6a.8.8 0 00-.6-.9L24.7.7 22.4 0a.8.8 0 00-.4 1.5l1.5.5-2.2 7.4-2.3-.7c-.8-.2-1.7.3-1.9 1.1l-1.2 4.1-.1.7c-3.1 0-5.6 2.3-5.8 5.3A3.8 3.8 0 006 23.8H5A2.7 2.7 0 005 29l3 3.2-1.1-.1a6.9 6.9 0 00-4.3 12.3H.8a.8.8 0 000 1.5h39.8a.8.8 0 000-1.5h-9.3l.1-.8v-9l2.8-5.6a2.7 2.7 0 002.1-4.2l1.4-2.8.2-.3c.4.7 1.1 1.2 2 1.2h3.8a2.3 2.3 0 000-4.6zm-26.3-4l1.2-4.2 2.2.6-.6 2.2a.8.8 0 00.5 1h.2c.4 0 .7-.2.8-.6l.6-2.2 2.2.7-1.1 4-.1.3c-1-.2-2.2-.1-3.2.3a5.8 5.8 0 00-2.7-1.7v-.5zm-6.8 7.2l.4.1a.8.8 0 001-1l-.3-.4h-.2a4.2 4.2 0 017.3-2.9.8.8 0 00.5 1.2l.5-.1.5-.3c.6-.4 1.2-.6 2-.6 2 0 3.6 1.6 3.8 3.6 0 .2.1.5.4.6h.7l1.2-.3c1.2 0 2.3 1 2.3 2.3h-23a2.3 2.3 0 012.9-2.2zm19.6 12.2l-8 1.6-7.9 1.5L7.1 29h25.4l-2.3 4.7zM1.5 39.1A5.4 5.4 0 0112 37.3l-1.6.3a3.8 3.8 0 10.3 1.6l1.6-.3v.2a5.4 5.4 0 01-10.8 0zm5.5.8l2.2-.5a2.3 2.3 0 11-.3-1.5l-2.1.4A.8.8 0 107 40zm6.8-.8v-.6l8.1-1.5 4.4 7.5h-15a6.9 6.9 0 002.5-5.4zm14.7 5.4a.8.8 0 01-.7-.4l-4.3-7.4 6.4-1.3v8.3c0 .4-.3.8-.8.8h-.6zM34 27.6H5a1.2 1.2 0 010-2.3H34a1.1 1.1 0 110 2.3zm9.6-6.1h-3.8a.8.8 0 110-1.6h3.8a.8.8 0 010 1.6z"/>
    </mask>
    <path d="M43.7 18.4h-3.8c-1 0-2 .7-2.2 1.6-.6.3-1.1.8-1.4 1.4L35.1 24c-.3-.2-.7-.2-1-.2h-1.9a3.8 3.8 0 00-4.8-3.7 5.4 5.4 0 00-2.7-3.4v-.3l1.2-4a1.5 1.5 0 00-1-2l-2.2-.6L25 2.3l1.4.5h.3c.3 0 .6-.2.7-.6a.8.8 0 00-.6-.9L24.7.7 22.4 0a.8.8 0 00-.4 1.5l1.5.5-2.2 7.4-2.3-.7c-.8-.2-1.7.3-1.9 1.1l-1.2 4.1-.1.7c-3.1 0-5.6 2.3-5.8 5.3A3.8 3.8 0 006 23.8H5A2.7 2.7 0 005 29l3 3.2-1.1-.1a6.9 6.9 0 00-4.3 12.3H.8a.8.8 0 000 1.5h39.8a.8.8 0 000-1.5h-9.3l.1-.8v-9l2.8-5.6a2.7 2.7 0 002.1-4.2l1.4-2.8.2-.3c.4.7 1.1 1.2 2 1.2h3.8a2.3 2.3 0 000-4.6zm-26.3-4l1.2-4.2 2.2.6-.6 2.2a.8.8 0 00.5 1h.2c.4 0 .7-.2.8-.6l.6-2.2 2.2.7-1.1 4-.1.3c-1-.2-2.2-.1-3.2.3a5.8 5.8 0 00-2.7-1.7v-.5zm-6.8 7.2l.4.1a.8.8 0 001-1l-.3-.4h-.2a4.2 4.2 0 017.3-2.9.8.8 0 00.5 1.2l.5-.1.5-.3c.6-.4 1.2-.6 2-.6 2 0 3.6 1.6 3.8 3.6 0 .2.1.5.4.6h.7l1.2-.3c1.2 0 2.3 1 2.3 2.3h-23a2.3 2.3 0 012.9-2.2zm19.6 12.2l-8 1.6-7.9 1.5L7.1 29h25.4l-2.3 4.7zM1.5 39.1A5.4 5.4 0 0112 37.3l-1.6.3a3.8 3.8 0 10.3 1.6l1.6-.3v.2a5.4 5.4 0 01-10.8 0zm5.5.8l2.2-.5a2.3 2.3 0 11-.3-1.5l-2.1.4A.8.8 0 107 40zm6.8-.8v-.6l8.1-1.5 4.4 7.5h-15a6.9 6.9 0 002.5-5.4zm14.7 5.4a.8.8 0 01-.7-.4l-4.3-7.4 6.4-1.3v8.3c0 .4-.3.8-.8.8h-.6zM34 27.6H5a1.2 1.2 0 010-2.3H34a1.1 1.1 0 110 2.3zm9.6-6.1h-3.8a.8.8 0 110-1.6h3.8a.8.8 0 010 1.6z" fill="url(#paint0_linear)"/>
    <path d="M45.2 44.4h-1.5a.8.8 0 000 1.6h1.5a.8.8 0 100-1.6z" fill="url(#paint2_linear)" stroke="url(#paint3_linear)" stroke-width=".1"/>
  </g>
  <defs>
    <linearGradient id="paint0_linear" x1="46" y1="46" x2="-2.1" y2="43.6" gradientUnits="userSpaceOnUse">
      <stop offset="0" stop-color="#2CA824"/>
      <stop offset="1" stop-color="#45CF3C"/>
    </linearGradient>
    <linearGradient id="paint1_linear" x1="46" y1="46" x2="-2.1" y2="43.6" gradientUnits="userSpaceOnUse">
      <stop offset="0" stop-color="#2CA824"/>
      <stop offset="1" stop-color="#45CF3C"/>
    </linearGradient>
    <linearGradient id="paint2_linear" x1="46" y1="46" x2="42.8" y2="45.7" gradientUnits="userSpaceOnUse">
      <stop offset="0" stop-color="#2CA824"/>
      <stop offset="1" stop-color="#45CF3C"/>
    </linearGradient>
    <linearGradient id="paint3_linear" x1="46" y1="46" x2="42.8" y2="45.7" gradientUnits="userSpaceOnUse">
      <stop offset="0" stop-color="#2CA824"/>
      <stop offset="1" stop-color="#45CF3C"/>
    </linearGradient>
  </defs>
</svg>
