<svg width="46" height="46" fill="none">
  <path d="M21.8 40.5v0l.4-12.2v0a1.1 1.1 0 01.3-.7L26 24 44.4 5.7a3.1 3.1 0 000-4.4h0a3.2 3.2 0 00-4.5 0L21.5 19.6l-3.4 3.5h0a1 1 0 01-.8.3h0l-12.1.4h0H5v0h0l-2.3.4c-.5.1-.9.3-1.2.7h0L.2 26.3s0 0 0 0a.8.8 0 001.1 1.1s0 0 0 0l1.4-1.3h0l.4-.2h0l1.4-.3.6 2.6-1.7.7s0 0 0 0c-.2 0-.4.2-.5.3 0 0 0 0 0 0L1.2 31h0c-.3.3-.3.8 0 1.1h0c.4.3.9.3 1.2 0h0L4 30.4l1.7-.7L6.8 32 5.1 33l-.2.2s0 0 0 0L3.2 35a.8.8 0 00.6 1.3h0c.2 0 .4 0 .5-.2 0 0 0 0 0 0L6 34.4l1.6-1 1.6 1.9L6 38.5a.8.8 0 001.1 1.1h0l3.3-3.2 1.9 1.6-2.8 3.3h0a.8.8 0 001.2 1.1l2.8-3.5 3 1.2-.6 1.8-1.2 1.5c-.5.6.4 1.6 1.1.9l1.2-1.6.8-2m0 0l2.3.5-.4 1.5-1.4 1.5c-.5.8.6 1.6 1.2 1.2l1.3-1.4c.3-.3.5-.7.6-1.2v0l.4-2.3m-1.6-1c-2.2-.4-4.4-1.2-6.4-2.4h0a17 17 0 01-2.9-2.3h0s0 0 0 0a16.3 16.3 0 01-4.7-9.3l6-.2c.9 4.1 4.1 7.4 8.3 8.3zm23-35h0L25.4 22.5l-2.1-2.2L41 2.4s0 0 0 0a1.6 1.6 0 012.7 1.1c0 .4-.2.8-.5 1zM17.4 25h0c.7 0 1.3-.3 1.8-.8h0l3-2.9 2.1 2.2-3 3h0c-.4.4-.7 1-.7 1.7v0l-.1 3.6a9.2 9.2 0 01-6.7-6.6z" fill="url(#paint0_linear)" stroke="url(#paint1_linear)" stroke-width=".1"/>
  <path d="M33.9 30.4v0c1.4-.2 2.9.1 4 1l2.2-2.2a.8.8 0 011.2 0s0 0 0 0h0l.2.6-.3.6h0l-2 2.1c1.8 2.6 1 6.4-2.2 9.6a12.2 12.2 0 01-5 2.8c-1.7.5-3.5.8-4.6.8H27h0v0c-1.2 0-2.1-1-2.2-2.3a16 16 0 013.6-9.9 10 10 0 015.5-3h0m2.3 5l1.8-1.9c1.2 2 .4 4.8-2.1 7.3a11.2 11.2 0 01-4.5 2.5c-1.7.5-3.3.7-4.3.6h0a.7.7 0 01-.7-.6 14.2 14.2 0 013.1-8.8v0h0a8.5 8.5 0 014.6-2.6h.7c.7 0 1.4.1 2 .5l-1.7 1.8-2.2-.5h0a.8.8 0 00-1 .6v0c0 .5.2.9.6 1 0 0 0 0 0 0l1.2.2-1.3 1.3-2.2-.4h0c-.5-.1-.9.2-1 .6v0a.8.8 0 00.7 1h0l1.2.2-1.1 1c-.3.4-.3.9 0 1.2h0c.3.3.8.3 1.1 0h0l1-1 .3 1.1v0c.1.4.4.7.8.7h.2v0h0c.4-.2.7-.6.6-1v0h0l-.5-2.2 1.3-1.3.3 1.2s0 0 0 0c0 .4.4.6.8.6h.1v0h0a.8.8 0 00.7-1v0z" fill="url(#paint2_linear)" stroke="url(#paint3_linear)" stroke-width=".1" fill-rule="evenodd"/>
  <path d="M43.7 21.1h0c0-.1 0-.4-.2-.5-1.5-.7-3.2-1-5-1h0c-.7 0-1.4 0-2.1.3h0v0a6.5 6.5 0 00-3.4 2.3 3 3 0 00-.5 1.8l1.4-.5.4-1.3v0a.8.8 0 011.5.4v.2l1-.3.2-1.1a.8.8 0 011.6.4v0l.9-.3h0A.8.8 0 0140 23h0v0l-1 .3m4.7-2.2a11 11 0 01-5 5.1h0c-1.4.6-2.8.7-4.1.3-.7-.1-1.2-.5-1.6-1l1.5-.6 1.3 1h0a.8.8 0 001-1.3v0h0l-.5-.3 1-.4.6.5a.8.8 0 001.2-.1h0c.2-.3.2-.7 0-1m-7.5-2h0c-.6 1-.9 2-.7 3.2l-2.2.7a.8.8 0 00.3 1.6h.3s0 0 0 0l2.1-.8c.6 1 1.5 1.7 2.6 2 .7.3 1.3.3 2 .3h0c1 0 2-.2 3.1-.6A10 10 0 0043 25c1-1.2 1.8-2.4 2.2-3.2h0c.4-1 0-2.1-1-2.6a12.8 12.8 0 00-8.4-.8 8.1 8.1 0 00-4.2 2.9z" fill="url(#paint4_linear)" stroke="url(#paint5_linear)" stroke-width=".1" fill-rule="evenodd"/>
  <path d="M3 15.4A.8.8 0 103 17h13.6a.8.8 0 100-1.6H3z" fill="url(#paint6_linear)" stroke="url(#paint7_linear)" stroke-width=".1"/>
  <path d="M.8 20.8h6.7a.8.8 0 100-1.6H.8a.8.8 0 100 1.6z" fill="url(#paint8_linear)" stroke="url(#paint9_linear)" stroke-width=".1"/>
  <path d="M27.5 3h0c-1.2-1.6-3.1-2.2-5.4-1.8a4 4 0 00-3.3 4.2h0c0 .9.5 1.7 1.2 2.3.7.7 1.7 1 3 1A1.9 1.9 0 0025 7a1.9 1.9 0 00-2-2 .8.8 0 000 1.6l.4.1v.5H23a3 3 0 01-2-.5 2 2 0 01-.7-1.3c0-1.3.8-2.4 2-2.5h0c1.7-.3 3 0 3.9 1.2a5 5 0 01.3 5.1h0a4.5 4.5 0 01-4.3 2.5h0-17a.8.8 0 100 1.6h17A6 6 0 0028 9.8C29 7.6 29 5 27.5 3z" fill="url(#paint10_linear)" stroke="url(#paint11_linear)" stroke-width=".1"/>
  <defs id="defs239">
    <linearGradient id="paint0_linear" x1="45.2" y1="45.6" x2="-2.1" y2="43.3" gradientUnits="userSpaceOnUse">
      <stop offset="0" stop-color="#2CA824" id="stop179"/>
      <stop offset="1" stop-color="#45CF3C" id="stop181"/>
    </linearGradient>
    <linearGradient id="paint1_linear" x1="45.2" y1="45.6" x2="-2.1" y2="43.3" gradientUnits="userSpaceOnUse">
      <stop offset="0" stop-color="#2CA824" id="stop184"/>
      <stop offset="1" stop-color="#45CF3C" id="stop186"/>
    </linearGradient>
    <linearGradient id="paint2_linear" x1="41.5" y1="45.6" x2="38.4" y2="49.1" gradientUnits="userSpaceOnUse">
      <stop offset="0" stop-color="#2CA824" id="stop189"/>
      <stop offset="1" stop-color="#45CF3C" id="stop191"/>
    </linearGradient>
    <linearGradient id="paint3_linear" x1="41.5" y1="45.6" x2="38.4" y2="49.1" gradientUnits="userSpaceOnUse">
      <stop offset="0" stop-color="#2CA824" id="stop194"/>
      <stop offset="1" stop-color="#45CF3C" id="stop196"/>
    </linearGradient>
    <linearGradient id="paint4_linear" x1="45.3" y1="28.3" x2="27.4" y2="26.8" gradientUnits="userSpaceOnUse">
      <stop offset="0" stop-color="#2CA824" id="stop199"/>
      <stop offset="1" stop-color="#45CF3C" id="stop201"/>
    </linearGradient>
    <linearGradient id="paint5_linear" x1="45.3" y1="28.3" x2="27.4" y2="26.8" gradientUnits="userSpaceOnUse">
      <stop offset="0" stop-color="#2CA824" id="stop204"/>
      <stop offset="1" stop-color="#45CF3C" id="stop206"/>
    </linearGradient>
    <linearGradient id="paint6_linear" x1="17.3" y1="17" x2="4.6" y2="10.7" gradientUnits="userSpaceOnUse">
      <stop offset="0" stop-color="#2CA824" id="stop209"/>
      <stop offset="1" stop-color="#45CF3C" id="stop211"/>
    </linearGradient>
    <linearGradient id="paint7_linear" x1="17.3" y1="17" x2="4.6" y2="10.7" gradientUnits="userSpaceOnUse">
      <stop offset="0" stop-color="#2CA824" id="stop214"/>
      <stop offset="1" stop-color="#45CF3C" id="stop216"/>
    </linearGradient>
    <linearGradient id="paint8_linear" x1="8.3" y1="20.7" x2=".2" y2="18.5" gradientUnits="userSpaceOnUse">
      <stop offset="0" stop-color="#2CA824" id="stop219"/>
      <stop offset="1" stop-color="#45CF3C" id="stop221"/>
    </linearGradient>
    <linearGradient id="paint9_linear" x1="8.3" y1="20.7" x2=".2" y2="18.5" gradientUnits="userSpaceOnUse">
      <stop offset="0" stop-color="#2CA824" id="stop224"/>
      <stop offset="1" stop-color="#45CF3C" id="stop226"/>
    </linearGradient>
    <linearGradient id="paint10_linear" x1="28.7" y1="13.2" x2="3.6" y2="10.7" gradientUnits="userSpaceOnUse">
      <stop offset="0" stop-color="#2CA824" id="stop229"/>
      <stop offset="1" stop-color="#45CF3C" id="stop231"/>
    </linearGradient>
    <linearGradient id="paint11_linear" x1="28.7" y1="13.2" x2="3.6" y2="10.7" gradientUnits="userSpaceOnUse">
      <stop offset="0" stop-color="#2CA824" id="stop234"/>
      <stop offset="1" stop-color="#45CF3C" id="stop236"/>
    </linearGradient>
  </defs>
</svg>
