<svg width="44" height="44" fill="none">
  <g clip-path="url(#clip0)">
    <path d="M10.4 18h3.4c.9 0 1.6-.7 1.6-1.6V13c0-.9-.7-1.6-1.6-1.6h-3.4c-.9 0-1.6.7-1.6 1.6v3.4c0 .9.7 1.6 1.6 1.6zm.1-5h3.2v3.3h-3.2V13z" fill="url(#paint0_linear)"/>
    <path d="M40.3 24l-1.2.3c-.3-1-1-1.5-1.8-1.8V4.1a4 4 0 00-4-4.1H5a4 4 0 00-4 4v2.3c0 1.1.8 2 1.9 2h.8v32.3c0 1 1 2 2 2h22.7c1.5.9 3.2 1.4 4.9 1.4.9 0 1.8-.2 2.7-.5a10 10 0 005-4c1.4-2.1 2-4.6 2-7.4V27c0-1.9-1.3-2.9-2.7-2.9zM5.5 40.6V8.3h7.8a.9.9 0 100-1.7H3a.2.2 0 01-.2-.3V4.1c0-1.3 1-2.4 2.3-2.4h25a4 4 0 00-.8 2.4v2.2c0 .2-.1.3-.2.3h-8a.9.9 0 100 1.7h8c1 0 1.9-.9 1.9-2V4.1a2.3 2.3 0 014.7 0v18.4l-.4.2a2.7 2.7 0 00-2.6-2c-.3 0-.7.1-1 .3V16c0-1.9-1.4-2.9-2.8-2.9s-2.8 1-2.8 3v13.5l-2-2.1c-1.1-1.3-2.8-1.4-4-.3a3.5 3.5 0 00-.5 4.8l6 7.7.9 1H5.7a.2.2 0 01-.2-.2zM41.3 32c0 4.7-2.2 8.6-5.8 9.8-3 1-6.3-.1-8.7-3.2l-6-7.6c-.6-1-.4-2 .3-2.5.1-.2.4-.3.7-.3.3 0 .6 0 1 .4l2 2.3c.7.6 1.4 1.4 2.2 1 .7-.2.7-1 .7-1.2v-1.2V16c0-1 1-1.1 1-1.1.3 0 1.1 0 1.1 1.1v12.3a.9.9 0 001.8 0v-4.8c0-1 .8-1.1 1-1.1.3 0 .6 0 .7.3.3.2.4.5.4.8v4.8a.9.9 0 001.7 0v-3.1c0-1.1.9-1.2 1-1.2.3 0 .6.1.8.3.2.2.3.5.3.9v3.1a.9.9 0 001.7 0V27c0-1.1.9-1.2 1-1.2.4 0 .6.1.8.3.2.2.3.5.3.9v5.2z" fill="url(#paint1_linear)"/>
    <path d="M17.3 12.2c0 .5.4.9.9.9H25a.9.9 0 000-1.7h-7c-.4 0-.8.3-.8.8z" fill="url(#paint2_linear)"/>
    <path d="M23.6 16.3h-5.4a.9.9 0 000 1.7h5.4a.9.9 0 000-1.7z" fill="url(#paint3_linear)"/>
    <path d="M9.6 23h13.2a.9.9 0 100-1.8H9.6a.9.9 0 100 1.7z" fill="url(#paint4_linear)"/>
    <path d="M9.6 27.9h7.1a.9.9 0 100-1.8h-7a.9.9 0 100 1.8z" fill="url(#paint5_linear)"/>
    <path d="M9.6 32.8H16a.9.9 0 100-1.7H9.6a.9.9 0 100 1.7z" fill="url(#paint6_linear)"/>
    <path d="M18.8 36H9.6a.9.9 0 100 1.7h9.2a.9.9 0 000-1.7z" fill="url(#paint7_linear)"/>
    <path d="M17.2 8.3a.9.9 0 100-1.7.9.9 0 100 1.7z" fill="url(#paint8_linear)"/>
  </g>
  <defs>
    <linearGradient id="paint0_linear" x1="15.4" y1="18" x2="8.5" y2="17.7" gradientUnits="userSpaceOnUse">
      <stop offset="0" stop-color="#2CA824"/>
      <stop offset="1" stop-color="#45CF3C"/>
    </linearGradient>
    <linearGradient id="paint1_linear" x1="43.1" y1="44" x2="-1" y2="41.9" gradientUnits="userSpaceOnUse">
      <stop offset="0"stop-color="#2CA824"/>
      <stop offset="1" stop-color="#45CF3C"/>
    </linearGradient>
    <linearGradient id="paint2_linear" x1="25.9" y1="13.1" x2="17.4" y2="11" gradientUnits="userSpaceOnUse">
      <stop offset="0" stop-color="#2CA824"/>
      <stop offset="1" stop-color="#45CF3C"/>
    </linearGradient>
    <linearGradient id="paint3_linear" x1="24.5" y1="18" x2="17.3" y2="16.5" gradientUnits="userSpaceOnUse">
      <stop offset="0" stop-color="#2CA824"/>
      <stop offset="1" stop-color="#45CF3C"/>
    </linearGradient>
    <linearGradient id="paint4_linear" x1="23.6" y1="22.9" x2="10.4" y2="17.3" gradientUnits="userSpaceOnUse">
      <stop offset="0" stop-color="#2CA824"/>
      <stop offset="1" stop-color="#45CF3C"/>
    </linearGradient>
    <linearGradient id="paint5_linear" x1="17.6" y1="27.9" x2="8.9" y2="25.7" gradientUnits="userSpaceOnUse">
      <stop offset="0" stop-color="#2CA824"/>
      <stop offset="1" stop-color="#45CF3C"/>
    </linearGradient>
    <linearGradient id="paint6_linear" x1="16.7" y1="32.8" x2="8.8" y2="31" gradientUnits="userSpaceOnUse">
      <stop offset="0" stop-color="#2CA824"/>
      <stop offset="1" stop-color="#45CF3C"/>
    </linearGradient>
    <linearGradient id="paint7_linear" x1="19.6" y1="37.7" x2="9.2" y2="34.5" gradientUnits="userSpaceOnUse">
      <stop offset="0" stop-color="#2CA824"/>
      <stop offset="1" stop-color="#45CF3C"/>
    </linearGradient>
    <linearGradient id="paint8_linear" x1="18.1" y1="8.3" x2="16.3" y2="8.2" gradientUnits="userSpaceOnUse">
      <stop offset="0" stop-color="#2CA824"/>
      <stop offset="1" stop-color="#45CF3C"/>
    </linearGradient>
    <clipPath id="clip0">
      <path fill="#fff" d="M0 0h44v44H0z"/>
    </clipPath>
  </defs>
</svg>
