<svg xmlns:xlink="http://www.w3.org/1999/xlink" width="48" height="48" fill="none">
  <g clip-path="url(#clip0)" stroke-width=".1">
    <path d="M39 38v-4c1.5 0 1.9-1 2.1-2v-2.4c0-.6-.4-1-.4-1m0 0a8.9 8.9 0 00-7.1-3.5v0h-6.4c-1.4 0-2.5 1-2.5 2.4v2.8c-3.5-2.6-9.5-7.4-14.3-11.2v-4.4a.9.9 0 00-1.7 0v3l-4-3.2.1-.6v0-4c0-3.2-4.9-3.1-4.8.1v4c0 1.4 1.1 2.5 2.5 2.5v0c.5 0 1-.2 1.4-.5 4.4 3.6 16.2 13 21 16.6 0 .8.7 1.4 1.5 1.4v.8l-1.5-.3a6.4 6.4 0 00-4.7-2.1l-15.4-12v0L1.4 18v0a.8.8 0 00-1.2.1c-.3.4-.2 1 .2 1.2l2.4 1.8a6 6 0 00-1.7 2.8l-.3 2.8C.4 30.8 1 34.3 2.7 37v0c2.9 4.6 8.2 5.8 12.3 5.8 2 2.5 5.4 3.2 8 1.7h17.6c.7.5 1.7.7 2.6.8v0a4.8 4.8 0 100-9.7v0c-2.8.2-3.6 1.4-4.2 2.3m-.7 2.5v0c0 1 .3 1.8.7 2.4H25a6.4 6.4 0 001-6.3l12.2 2.9v0h.3l-.2 1zM4.1 22.2l13.7 10.5a6.4 6.4 0 00-4.3 6.1v0c0 .8.2 1.6.5 2.3-3.5-.2-7.6-1.4-9.9-5-1.4-2.4-2-5.5-1.7-9.3 0-.9.2-1.8.4-2.6.3-.8.7-1.6 1.3-2zm11.7 14.5c2.2-4.3 8.7-3 9 1.8.4 4.8-5.7 7.1-8.6 3.2v0c-1-1.5-1-3.7-.4-5zM1.6 14v-4c0-1 1.6-1 1.6 0v4a.8.8 0 01-1.5 0zm37.5 18.4H26.4V30h12.8zm-12.7-4.8c0-.4.4-.7.8-.7h6.4c1.6 0 3.1.5 4.4 1.5H26.4zm1.7 6.5h9.4v3.4L28 35.2zm15.1 9.5c-4.2 0-4.2-6.3 0-6.3s4.2 6.3 0 6.3z" fill="url(#linearGradient2530)" stroke="url(#linearGradient2528)"/>
    <path d="M5.6 27.6a.9.9 0 00-1.7 0h0c-.2 2.4 0 6 2 8.4h0a8.8 8.8 0 004.5 2.9c.4 0 .9-.2 1-.7 0-.5-.3-1-1.2-1.2-1-.2-2-1-3-2-1.5-2-1.8-5.2-1.6-7.4m0 0v0h-.1m0 0s0 0 0 0h0M7.2 35s0 0 0 0 0 0 0 0z" fill="url(#paint2_linear)" stroke="url(#paint3_linear)"/>
    <path d="M20 36.3c-3.3 0-3.3 5 0 5s3.3-5 0-5zm0 3.3c-1 0-1-1.5 0-1.5s1 1.5 0 1.5z" fill="url(#paint4_linear)" stroke="url(#paint5_linear)"/>
    <path d="M43.2 41.3a.9.9 0 100-1.8.9.9 0 000 1.8z" fill="url(#paint6_linear)" stroke="url(#paint7_linear)"/>
    <path d="M17.6 4.5h.8a.9.9 0 000-1.7h-.8a.8.8 0 100 1.7z" fill="url(#paint8_linear)" stroke="url(#paint9_linear)"/>
    <path d="M30.6 10.5h0c.1.2.4.3.6.3h0a.8.8 0 00.7-1.4 22 22 0 00-1.2-1.3h0a.9.9 0 00-1.2 0 .9.9 0 000 1.2l1 1.2z" fill="url(#paint10_linear)" stroke="url(#paint11_linear)"/>
    <path d="M34.6 19c.1.3.4.6.8.6h.2v0c.5-.1.8-.6.7-1v0l-.5-1.6c-.1-.9-1.9-.4-1.6.5v0l.3 1.3z" fill="url(#paint12_linear)" stroke="url(#paint13_linear)"/>
    <path d="M33 14.5s0 0 0 0m0 0s0 0 0 0m0 0c.2.3.5.5.8.5h0l.4-.1v0h0c.4-.2.6-.7.4-1.2l-.8-1.5s0 0 0 0a.9.9 0 00-1.5.9h0l.7 1.2z" fill="url(#paint14_linear)" stroke="url(#paint15_linear)"/>
    <path d="M23 5.2h.2A.9.9 0 0024 4a.9.9 0 00-.5-.4h0l-1.7-.4h0c-.5-.1-1 .1-1 .6a.8.8 0 00.7 1l1.5.4z" fill="url(#paint16_linear)" stroke="url(#paint17_linear)"/>
    <path d="M28.1 5.9h0l-1.4-1h0a.8.8 0 00-1.2.4.9.9 0 00.3 1.2 30.7 30.7 0 011.8 1h0a.8.8 0 00.5-1.6z" fill="url(#paint18_linear)" stroke="url(#paint19_linear)"/>
    <path d="M35.1 22.8h0a.8.8 0 00.9.9h0v0h0a.9.9 0 00.9-1v-.3 0-.1 0-.1 0-.1 0-.1 0h0a.9.9 0 00-1-.8c-.5 0-.8.4-.8.9v.7z" fill="url(#paint20_linear)" stroke="url(#paint21_linear)"/>
    <path d="M16.8 6h0-.8a.9.9 0 000 1.7h.8a.9.9 0 000-1.7z" fill="url(#paint22_linear)" stroke="url(#paint23_linear)"/>
    <path d="M25.7 11.2c.3 0 .5 0 .7-.2.3-.4.3-.9 0-1.2v0h0L25 8.7a.9.9 0 00-1.2.2c-.3.4-.2.9.2 1.1l1.2 1v0h0c.1.2.3.2.5.2zm0 0h0" fill="url(#paint24_linear)" stroke="url(#paint25_linear)"/>
    <path d="M29.2 17.5v0c-.3-1.2 1.5-1.7 1.8-.5l.5 1.6c.2.4 0 .8-.5 1h-.3v0a.9.9 0 01-.9-.6z" fill="url(#paint26_linear)" stroke="url(#paint27_linear)"/>
    <path d="M21.6 8.7a.8.8 0 00.3-1.7h0l-1.7-.5h0a.9.9 0 00-.4 1.6h0l1.5.5h.3zm0 0s0 0 0 0v-.1h0s0 0 0 0z" fill="url(#paint28_linear)" stroke="url(#paint29_linear)"/>
    <path d="M27.3 12.2h0c-.3.2-.4.8-.1 1.1l.8 1.4h0c.1.2.4.4.7.4h0l.4-.1h0a.9.9 0 00.3-1.2c-.2-.5-.6-1-.9-1.4h0a.8.8 0 00-1.2-.2z" fill="url(#paint30_linear)" stroke="url(#paint31_linear)"/>
    <path d="M31 21.2c-.4 0-.7.5-.7 1 0 .7.1 1.5 1 1.4.5-.1.7-.3.8-.8v0-.8c0-.6-.6-1-1.1-.8z" fill="url(#paint32_linear)" stroke="url(#paint33_linear)"/>
    <path d="M26.4 23.6v0h0a.9.9 0 00.9-.9h0a2.8 2.8 0 000-.2l-.1-.6a.9.9 0 00-1.7.2h0a10.8 10.8 0 010 .7s0 0 0 0h0s0 0 0 0 0 0 0 0h0c0 .5.4.9.9.8h0z" fill="url(#paint34_linear)" stroke="url(#paint35_linear)"/>
    <path d="M18.1 11.4h0a.9.9 0 01.6-1.6l1.6.7h0c.4.3.5.8.3 1.2m0 0v0m0 0v0m0 0c-.2.4-.7.6-1.1.3h0l-1.4-.6" fill="url(#paint36_linear)" stroke="url(#paint37_linear)"/>
    <path d="M23 12.7h0a.9.9 0 10-1.2 1.1h0l1 1.2c.1.2.4.4.7.4h0l.5-.2h0a.8.8 0 000-1.2l-1-1.3z" fill="url(#paint38_linear)" stroke="url(#paint39_linear)"/>
    <path d="M24.8 19.1h0c0 .4.4.6.8.6h.2c.5-.1.7-.6.6-1h0l-.6-1.7h0a.9.9 0 10-1.6.7h0l.6 1.4z" fill="url(#paint40_linear)" stroke="url(#paint41_linear)"/>
    <path d="M15.2 9.2h0-.1 0-.1 0-.1 0-.1 0-.1 0-.1 0-.1 0-.1 0a.9.9 0 000 1.7h.8a.9.9 0 000-1.7z" fill="url(#paint42_linear)" stroke="url(#paint43_linear)"/>
  </g>
  <defs id="defs2520">
    <linearGradient id="paint0_linear" x1="14.3" y1="47" x2="-2.2" y2="42" gradientUnits="userSpaceOnUse">
      <stop offset="0" stop-color="#2CA824" id="stop2297"/>
      <stop offset="1" stop-color="#45CF3C" id="stop2299"/>
    </linearGradient>
    <linearGradient id="paint1_linear" x1="14.3" y1="47" x2="-2.2" y2="42" gradientUnits="userSpaceOnUse">
      <stop offset="0" stop-color="#2CA824" id="stop2302"/>
      <stop offset="1" stop-color="#45CF3C" id="stop2304"/>
    </linearGradient>
    <linearGradient id="paint2_linear" x1="11.3" y1="38.9" x2="3.5" y2="38.6" gradientUnits="userSpaceOnUse">
      <stop offset="0" stop-color="#2CA824" id="stop2307"/>
      <stop offset="1" stop-color="#45CF3C" id="stop2309"/>
    </linearGradient>
    <linearGradient id="paint3_linear" x1="11.3" y1="38.9" x2="3.5" y2="38.6" gradientUnits="userSpaceOnUse">
      <stop offset="0" stop-color="#2CA824" id="stop2312"/>
      <stop offset="1" stop-color="#45CF3C" id="stop2314"/>
    </linearGradient>
    <linearGradient id="paint4_linear" x1="22.4" y1="41.2" x2="17.4" y2="41" gradientUnits="userSpaceOnUse">
      <stop offset="0" stop-color="#2CA824" id="stop2317"/>
      <stop offset="1" stop-color="#45CF3C" id="stop2319"/>
    </linearGradient>
    <linearGradient id="paint5_linear" x1="22.4" y1="41.2" x2="17.4" y2="41" gradientUnits="userSpaceOnUse">
      <stop offset="0" stop-color="#2CA824" id="stop2322"/>
      <stop offset="1" stop-color="#45CF3C" id="stop2324"/>
    </linearGradient>
    <linearGradient id="paint6_linear" x1="44" y1="41.2" x2="42.3" y2="41.1" gradientUnits="userSpaceOnUse">
      <stop offset="0" stop-color="#2CA824" id="stop2327"/>
      <stop offset="1" stop-color="#45CF3C" id="stop2329"/>
    </linearGradient>
    <linearGradient id="paint7_linear" x1="44" y1="41.2" x2="42.3" y2="41.1" gradientUnits="userSpaceOnUse">
      <stop offset="0" stop-color="#2CA824" id="stop2332"/>
      <stop offset="1" stop-color="#45CF3C" id="stop2334"/>
    </linearGradient>
    <linearGradient id="paint8_linear" x1="19.2" y1="4.4" x2="16.7" y2="4.2" gradientUnits="userSpaceOnUse">
      <stop offset="0" stop-color="#2CA824" id="stop2337"/>
      <stop offset="1" stop-color="#45CF3C" id="stop2339"/>
    </linearGradient>
    <linearGradient id="paint9_linear" x1="19.2" y1="4.4" x2="16.7" y2="4.2" gradientUnits="userSpaceOnUse">
      <stop offset="0" stop-color="#2CA824" id="stop2342"/>
      <stop offset="1" stop-color="#45CF3C" id="stop2344"/>
    </linearGradient>
    <linearGradient id="paint10_linear" x1="32" y1="10.7" x2="29.2" y2="10.6" gradientUnits="userSpaceOnUse">
      <stop offset="0" stop-color="#2CA824" id="stop2347"/>
      <stop offset="1" stop-color="#45CF3C" id="stop2349"/>
    </linearGradient>
    <linearGradient id="paint11_linear" x1="32" y1="10.7" x2="29.2" y2="10.6" gradientUnits="userSpaceOnUse">
      <stop offset="0" stop-color="#2CA824" id="stop2352"/>
      <stop offset="1" stop-color="#45CF3C" id="stop2354"/>
    </linearGradient>
    <linearGradient id="paint12_linear" x1="36.2" y1="19.6" x2="34.1" y2="19.5" gradientUnits="userSpaceOnUse">
      <stop offset="0" stop-color="#2CA824" id="stop2357"/>
      <stop offset="1" stop-color="#45CF3C" id="stop2359"/>
    </linearGradient>
    <linearGradient id="paint13_linear" x1="36.2" y1="19.6" x2="34.1" y2="19.5" gradientUnits="userSpaceOnUse">
      <stop offset="0" stop-color="#2CA824" id="stop2362"/>
      <stop offset="1" stop-color="#45CF3C" id="stop2364"/>
    </linearGradient>
    <linearGradient id="paint14_linear" x1="34.6" y1="14.9" x2="32.1" y2="14.8" gradientUnits="userSpaceOnUse">
      <stop offset="0" stop-color="#2CA824" id="stop2367"/>
      <stop offset="1" stop-color="#45CF3C" id="stop2369"/>
    </linearGradient>
    <linearGradient id="paint15_linear" x1="34.6" y1="14.9" x2="32.1" y2="14.8" gradientUnits="userSpaceOnUse">
      <stop offset="0" stop-color="#2CA824" id="stop2372"/>
      <stop offset="1" stop-color="#45CF3C" id="stop2374"/>
    </linearGradient>
    <linearGradient id="paint16_linear" x1="24" y1="5.2" x2="20.7" y2="4.9" gradientUnits="userSpaceOnUse">
      <stop offset="0" stop-color="#2CA824" id="stop2377"/>
      <stop offset="1" stop-color="#45CF3C" id="stop2379"/>
    </linearGradient>
    <linearGradient id="paint17_linear" x1="24" y1="5.2" x2="20.7" y2="4.9" gradientUnits="userSpaceOnUse">
      <stop offset="0" stop-color="#2CA824" id="stop2382"/>
      <stop offset="1" stop-color="#45CF3C" id="stop2384"/>
    </linearGradient>
    <linearGradient id="paint18_linear" x1="28.4" y1="7.4" x2="25.3" y2="7.2" gradientUnits="userSpaceOnUse">
      <stop offset="0" stop-color="#2CA824" id="stop2387"/>
      <stop offset="1" stop-color="#45CF3C" id="stop2389"/>
    </linearGradient>
    <linearGradient id="paint19_linear" x1="28.4" y1="7.4" x2="25.3" y2="7.2" gradientUnits="userSpaceOnUse">
      <stop offset="0" stop-color="#2CA824" id="stop2392"/>
      <stop offset="1" stop-color="#45CF3C" id="stop2394"/>
    </linearGradient>
    <linearGradient id="paint20_linear" x1="36.8" y1="23.6" x2="35.1" y2="23.5" gradientUnits="userSpaceOnUse">
      <stop offset="0" stop-color="#2CA824" id="stop2397"/>
      <stop offset="1" stop-color="#45CF3C" id="stop2399"/>
    </linearGradient>
    <linearGradient id="paint21_linear" x1="36.8" y1="23.6" x2="35.1" y2="23.5" gradientUnits="userSpaceOnUse">
      <stop offset="0" stop-color="#2CA824" id="stop2402"/>
      <stop offset="1" stop-color="#45CF3C" id="stop2404"/>
    </linearGradient>
    <linearGradient id="paint22_linear" x1="17.6" y1="7.6" x2="15.1" y2="7.4" gradientUnits="userSpaceOnUse">
      <stop offset="0" stop-color="#2CA824" id="stop2407"/>
      <stop offset="1" stop-color="#45CF3C" id="stop2409"/>
    </linearGradient>
    <linearGradient id="paint23_linear" x1="17.6" y1="7.6" x2="15.1" y2="7.4" gradientUnits="userSpaceOnUse">
      <stop offset="0" stop-color="#2CA824" id="stop2412"/>
      <stop offset="1" stop-color="#45CF3C" id="stop2414"/>
    </linearGradient>
    <linearGradient id="paint24_linear" x1="22.4" y1="11.5" x2="23.5" y2="11" gradientUnits="userSpaceOnUse">
      <stop offset="0" stop-color="#2CA824" id="stop2417"/>
      <stop offset="1" stop-color="#45CF3C" id="stop2419"/>
    </linearGradient>
    <linearGradient id="paint25_linear" x1="22.4" y1="11.5" x2="23.5" y2="11" gradientUnits="userSpaceOnUse">
      <stop offset="0" stop-color="#2CA824" id="stop2422"/>
      <stop offset="1" stop-color="#45CF3C" id="stop2424"/>
    </linearGradient>
    <linearGradient id="paint26_linear" x1="31.3" y1="19.6" x2="29.1" y2="19.5" gradientUnits="userSpaceOnUse">
      <stop offset="0" stop-color="#2CA824" id="stop2427"/>
      <stop offset="1" stop-color="#45CF3C" id="stop2429"/>
    </linearGradient>
    <linearGradient id="paint27_linear" x1="31.3" y1="19.6" x2="29.1" y2="19.5" gradientUnits="userSpaceOnUse">
      <stop offset="0" stop-color="#2CA824" id="stop2432"/>
      <stop offset="1" stop-color="#45CF3C" id="stop2434"/>
    </linearGradient>
    <linearGradient id="paint28_linear" x1="22.4" y1="8.6" x2="19.1" y2="8.4" gradientUnits="userSpaceOnUse">
      <stop offset="0" stop-color="#2CA824" id="stop2437"/>
      <stop offset="1" stop-color="#45CF3C" id="stop2439"/>
    </linearGradient>
    <linearGradient id="paint29_linear" x1="22.4" y1="8.6" x2="19.1" y2="8.4" gradientUnits="userSpaceOnUse">
      <stop offset="0" stop-color="#2CA824" id="stop2442"/>
      <stop offset="1" stop-color="#45CF3C" id="stop2444"/>
    </linearGradient>
    <linearGradient id="paint30_linear" x1="29.5" y1="15" x2="26.9" y2="14.9" gradientUnits="userSpaceOnUse">
      <stop offset="0" stop-color="#2CA824" id="stop2447"/>
      <stop offset="1" stop-color="#45CF3C" id="stop2449"/>
    </linearGradient>
    <linearGradient id="paint31_linear" x1="29.5" y1="15" x2="26.9" y2="14.9" gradientUnits="userSpaceOnUse">
      <stop offset="0" stop-color="#2CA824" id="stop2452"/>
      <stop offset="1" stop-color="#45CF3C" id="stop2454"/>
    </linearGradient>
    <linearGradient id="paint32_linear" x1="32" y1="23.6" x2="30.3" y2="23.5" gradientUnits="userSpaceOnUse">
      <stop offset="0" stop-color="#2CA824" id="stop2457"/>
      <stop offset="1" stop-color="#45CF3C" id="stop2459"/>
    </linearGradient>
    <linearGradient id="paint33_linear" x1="32" y1="23.6" x2="30.3" y2="23.5" gradientUnits="userSpaceOnUse">
      <stop offset="0" stop-color="#2CA824" id="stop2462"/>
      <stop offset="1" stop-color="#45CF3C" id="stop2464"/>
    </linearGradient>
    <linearGradient id="paint34_linear" x1="27.2" y1="23.6" x2="25.4" y2="23.5" gradientUnits="userSpaceOnUse">
      <stop offset="0" stop-color="#2CA824" id="stop2467"/>
      <stop offset="1" stop-color="#45CF3C" id="stop2469"/>
    </linearGradient>
    <linearGradient id="paint35_linear" x1="27.2" y1="23.6" x2="25.4" y2="23.5" gradientUnits="userSpaceOnUse">
      <stop offset="0" stop-color="#2CA824" id="stop2472"/>
      <stop offset="1" stop-color="#45CF3C" id="stop2474"/>
    </linearGradient>
    <linearGradient id="paint36_linear" x1="16.9" y1="12.8" x2="17.4" y2="11.9" gradientUnits="userSpaceOnUse">
      <stop offset="0" stop-color="#2CA824" id="stop2477"/>
      <stop offset="1" stop-color="#45CF3C" id="stop2479"/>
    </linearGradient>
    <linearGradient id="paint37_linear" x1="16.9" y1="12.8" x2="17.4" y2="11.9" gradientUnits="userSpaceOnUse">
      <stop offset="0" stop-color="#2CA824" id="stop2482"/>
      <stop offset="1" stop-color="#45CF3C" id="stop2484"/>
    </linearGradient>
    <linearGradient id="paint38_linear" x1="24.3" y1="15.3" x2="21.5" y2="15.2" gradientUnits="userSpaceOnUse">
      <stop offset="0" stop-color="#2CA824" id="stop2487"/>
      <stop offset="1" stop-color="#45CF3C" id="stop2489"/>
    </linearGradient>
    <linearGradient id="paint39_linear" x1="24.3" y1="15.3" x2="21.5" y2="15.2" gradientUnits="userSpaceOnUse">
      <stop offset="0" stop-color="#2CA824" id="stop2492"/>
      <stop offset="1" stop-color="#45CF3C" id="stop2494"/>
    </linearGradient>
    <linearGradient id="paint40_linear" x1="26.4" y1="19.7" x2="24.1" y2="19.6" gradientUnits="userSpaceOnUse">
      <stop offset="0" stop-color="#2CA824" id="stop2497"/>
      <stop offset="1" stop-color="#45CF3C" id="stop2499"/>
    </linearGradient>
    <linearGradient id="paint41_linear" x1="26.4" y1="19.7" x2="24.1" y2="19.6" gradientUnits="userSpaceOnUse">
      <stop offset="0" stop-color="#2CA824" id="stop2502"/>
      <stop offset="1" stop-color="#45CF3C" id="stop2504"/>
    </linearGradient>
    <linearGradient id="paint42_linear" x1="16" y1="10.8" x2="13.5" y2="10.6" gradientUnits="userSpaceOnUse">
      <stop offset="0" stop-color="#2CA824" id="stop2507"/>
      <stop offset="1" stop-color="#45CF3C" id="stop2509"/>
    </linearGradient>
    <linearGradient id="paint43_linear" x1="16" y1="10.8" x2="13.5" y2="10.6" gradientUnits="userSpaceOnUse">
      <stop offset="0" stop-color="#2CA824" id="stop2512"/>
      <stop offset="1" stop-color="#45CF3C" id="stop2514"/>
    </linearGradient>
    <linearGradient xlink:href="#paint1_linear" id="linearGradient2528" gradientUnits="userSpaceOnUse" x1="-7.6" y1="44.6" x2="-2.2" y2="42"/>
    <linearGradient xlink:href="#paint0_linear" id="linearGradient2530" gradientUnits="userSpaceOnUse" x1="-7.6" y1="44.6" x2="-2.2" y2="42"/>
  </defs>
</svg>
