<svg width="46" height="46" viewBox="0 0 46 46" fill="none" xmlns="http://www.w3.org/2000/svg">
<g clip-path="url(#clip0)">
<path d="M22.9161 27.5981C22.9744 27.5981 23.0337 27.5918 23.0912 27.5802C23.1488 27.5686 23.2053 27.5514 23.2594 27.529C23.3141 27.5065 23.366 27.4788 23.4145 27.4465C23.464 27.4142 23.5099 27.3763 23.5513 27.3349C23.5924 27.2935 23.6303 27.2479 23.6626 27.1984C23.6949 27.1499 23.7226 27.0976 23.7451 27.0429C23.7675 26.9888 23.7847 26.9323 23.7963 26.8751C23.8082 26.8176 23.8142 26.7583 23.8142 26.6997C23.8142 26.6414 23.8082 26.5821 23.7963 26.5238C23.7858 26.467 23.7675 26.4105 23.7451 26.3557C23.7226 26.3017 23.6959 26.2497 23.6626 26.2013C23.6303 26.1518 23.5924 26.1058 23.5513 26.0644C23.5099 26.023 23.464 25.9855 23.4145 25.9521C23.366 25.9198 23.3141 25.8921 23.2594 25.8697C23.2053 25.8472 23.1488 25.83 23.0912 25.8184C22.9754 25.7949 22.8568 25.7949 22.7406 25.8184C22.6834 25.83 22.6266 25.8472 22.5729 25.8697C22.5181 25.8921 22.4658 25.9198 22.4174 25.9521C22.3679 25.9855 22.3223 26.023 22.2809 26.0644C22.2395 26.1058 22.2016 26.1518 22.1696 26.2013C22.137 26.2497 22.1093 26.3017 22.0868 26.3557C22.0644 26.4105 22.0465 26.467 22.0356 26.5238C22.024 26.5821 22.0177 26.6414 22.0177 26.6997C22.0177 26.9362 22.1138 27.1678 22.2809 27.3349C22.3223 27.3763 22.3683 27.4142 22.4174 27.4465C22.4662 27.4788 22.5181 27.5065 22.5729 27.529C22.6269 27.5514 22.6834 27.5686 22.741 27.5802C22.7982 27.5918 22.8575 27.5981 22.9161 27.5981Z" fill="url(#paint0_linear)"/>
<path d="M0.933483 44.8083L5.90017 23.4686C5.99493 23.0615 6.35746 22.7737 6.77509 22.7737H9.42268V17.8161C5.87736 17.3725 3.12518 14.3396 3.12518 10.6763C3.12518 8.7661 3.8843 6.9422 5.22353 5.5977C5.20318 5.41204 5.19335 5.22534 5.19335 5.03793C5.19335 2.21065 7.4935 -0.0898438 10.3211 -0.0898438C13.1488 -0.0898438 15.4492 2.21065 15.4492 5.03793C15.4492 5.22534 15.4391 5.41204 15.4187 5.5977C15.8946 6.07535 16.2971 6.61371 16.6186 7.19488C16.9397 6.61371 17.3423 6.07535 17.8182 5.5977C17.7982 5.41204 17.788 5.22499 17.788 5.03793C17.788 2.21065 20.0885 -0.0898438 22.9161 -0.0898438C25.7437 -0.0898438 28.0439 2.21065 28.0439 5.03793C28.0439 5.22534 28.0337 5.41204 28.0137 5.5977C28.4896 6.07535 28.8921 6.61371 29.2133 7.19488C29.5347 6.61371 29.9373 6.07535 30.4132 5.5977C30.3928 5.41204 30.383 5.22534 30.383 5.03793C30.3826 2.21065 32.6831 -0.0898438 35.5108 -0.0898438C38.3384 -0.0898438 40.6389 2.21065 40.6389 5.03793C40.6389 5.22499 40.6287 5.41204 40.6084 5.5977C41.9476 6.9422 42.7067 8.76575 42.7067 10.6763C42.7067 14.3396 39.9545 17.3725 36.4092 17.8161V22.7737H39.0568C39.4744 22.7737 39.837 23.0615 39.9317 23.4686L44.8984 44.8083C44.9609 45.075 44.8977 45.3557 44.7271 45.5705C44.5569 45.785 44.2976 45.9102 44.0235 45.9102H1.80841C1.53432 45.9102 1.27496 45.785 1.10475 45.5705C0.934185 45.3557 0.871014 45.075 0.933483 44.8083ZM13.8668 6.60493C13.6204 6.39015 13.5099 6.05885 13.5787 5.73948C13.6275 5.51066 13.6524 5.27482 13.6524 5.03793C13.6524 3.20139 12.158 1.70703 10.3211 1.70703C8.48423 1.70703 6.99023 3.20139 6.99023 5.03793C6.99023 5.27482 7.0148 5.51066 7.06393 5.73983C7.13202 6.05885 7.02182 6.39015 6.77544 6.60493C5.59765 7.63147 4.92206 9.1153 4.92206 10.6763C4.92206 13.3471 6.87196 15.5711 9.42268 16.0003V13.3155C9.37039 13.2815 9.32091 13.2418 9.27493 13.1958L7.01129 10.9325C6.66068 10.5816 6.66068 10.0127 7.01129 9.66173C7.36224 9.31113 7.93113 9.31113 8.28209 9.66173L9.42268 10.8023V4.20301C9.42268 3.70676 9.82523 3.30457 10.3211 3.30457C10.8174 3.30457 11.2196 3.70676 11.2196 4.20301V10.8023L12.3602 9.66173C12.7111 9.31113 13.2797 9.31113 13.631 9.66173C13.9816 10.0127 13.9816 10.5816 13.631 10.9325L11.3673 13.1958C11.3217 13.2418 11.2719 13.2815 11.2196 13.3152V16.0003C13.7706 15.5714 15.7202 13.3471 15.7202 10.6763C15.7202 9.1153 15.0446 7.63147 13.8668 6.60493ZM11.2196 17.8161V22.7737H22.0177V17.8161C19.6926 17.5252 17.7087 16.121 16.6186 14.1553C15.5282 16.121 13.5446 17.5252 11.2196 17.8161ZM26.4614 6.60493C26.2154 6.39015 26.1049 6.05885 26.1733 5.73948C26.2224 5.51066 26.247 5.27482 26.247 5.03793C26.247 3.20139 24.7527 1.70703 22.9161 1.70703C21.0792 1.70703 19.5849 3.20139 19.5849 5.03793C19.5849 5.27447 19.6098 5.51066 19.6586 5.73983C19.727 6.0592 19.6165 6.39015 19.3704 6.60493C18.1926 7.63147 17.5171 9.1153 17.5171 10.6763C17.5171 13.3471 19.4666 15.5711 22.0177 16.0003V13.3152C21.9654 13.2815 21.9156 13.2418 21.8696 13.1958L19.6063 10.9325C19.2553 10.5816 19.2553 10.0127 19.6063 9.66173C19.9572 9.31113 20.5258 9.31113 20.8771 9.66173L22.0177 10.8023V4.20301C22.0177 3.70676 22.4199 3.30457 22.9161 3.30457C23.412 3.30457 23.8146 3.70676 23.8146 4.20301V10.8023L24.9552 9.66173C25.3058 9.31113 25.8747 9.31113 26.2256 9.66173C26.5766 10.0127 26.5766 10.5816 26.2256 10.9325L23.9623 13.1958C23.9163 13.2418 23.8669 13.2815 23.8146 13.3152V16.0003C26.3653 15.5714 28.3148 13.3471 28.3148 10.6763C28.3148 9.1153 27.6396 7.63147 26.4614 6.60493ZM23.8146 17.8161V22.7737H34.6123V17.8161C32.2876 17.5252 30.3037 16.121 29.2133 14.1553C28.1232 16.121 26.1393 17.5252 23.8146 17.8161ZM40.9098 10.6763C40.9098 9.1153 40.2342 7.63112 39.0564 6.60493C38.8101 6.39015 38.6999 6.0592 38.768 5.73983C38.8171 5.51066 38.842 5.27447 38.842 5.03793C38.842 3.20139 37.3477 1.70703 35.5108 1.70703C33.6742 1.70703 32.1799 3.20139 32.1799 5.03793C32.1799 5.27482 32.2044 5.51066 32.2536 5.73948C32.322 6.05885 32.2115 6.39015 31.9651 6.60493C30.7873 7.63147 30.1117 9.1153 30.1117 10.6763C30.1117 13.3471 32.0616 15.5711 34.6123 16.0003V13.3152C34.56 13.2815 34.5106 13.2418 34.4646 13.1958L32.2013 10.9325C31.8503 10.5816 31.8503 10.0127 32.2013 9.66173C32.5522 9.31113 33.1208 9.31113 33.4717 9.66173L34.6123 10.8023V4.20301C34.6123 3.70676 35.0149 3.30457 35.5108 3.30457C36.007 3.30457 36.4092 3.70676 36.4092 4.20301V10.8023L37.5498 9.66173C37.9008 9.31113 38.4697 9.31113 38.8206 9.66173C39.1712 10.0127 39.1712 10.5816 38.8206 10.9325L36.557 13.1958C36.5113 13.2418 36.4615 13.2815 36.4092 13.3152V16.0003C38.9603 15.5714 40.9098 13.3471 40.9098 10.6763ZM39.0508 44.1134L37.1227 34.857C37.0216 34.3713 37.3333 33.8954 37.819 33.7943C38.3047 33.6929 38.7806 34.0049 38.8817 34.4906L40.8863 44.1134H42.892L38.3433 24.5706H33.4833L36.5159 44.1134H39.0508ZM28.4012 44.1134H34.6976L31.665 24.5706H30.6006L31.1856 30.7751C31.2319 31.2692 30.8694 31.7075 30.3753 31.7542C30.3465 31.7567 30.3181 31.7581 30.29 31.7581C29.8316 31.7581 29.4403 31.4092 29.3965 30.9439L28.7956 24.5706H27.5778L28.4012 44.1134ZM22.0177 44.1134V30.2851C22.0177 29.7889 22.4199 29.3867 22.9161 29.3867C23.412 29.3867 23.8146 29.7889 23.8146 30.2851V44.1134H26.6029L25.7795 24.5706H20.0527L19.2294 44.1134H22.0177ZM17.4307 44.1134L18.2541 24.5706H17.0366L16.4354 30.9439C16.3916 31.4092 16.0002 31.7581 15.5422 31.7581C15.5138 31.7581 15.4854 31.7567 15.4566 31.7542C14.9628 31.7075 14.5999 31.2692 14.6466 30.7751L15.2317 24.5706H14.1672L11.1346 44.1134H17.4307ZM5.19862 44.1134L7.20291 34.4906C7.30433 34.0049 7.77952 33.6932 8.26559 33.7943C8.75166 33.8954 9.06331 34.3713 8.96223 34.857L7.0341 44.1134H9.31599L12.3486 24.5706H7.48858L2.93988 44.1134H5.19862Z" fill="url(#paint1_linear)"/>
</g>
<defs>
<linearGradient id="paint0_linear" x1="22.0177" y1="27.5981" x2="23.898" y2="27.5056" gradientUnits="userSpaceOnUse">
<stop stop-color="#2CA824"/>
<stop offset="1" stop-color="#45CF3C"/>
</linearGradient>
<linearGradient id="paint1_linear" x1="0.909897" y1="45.9102" x2="46.9849" y2="43.7417" gradientUnits="userSpaceOnUse">
<stop stop-color="#2CA824"/>
<stop offset="1" stop-color="#45CF3C"/>
</linearGradient>
<clipPath id="clip0">
<rect width="46" height="46" fill="white" transform="matrix(-1 0 0 1 46 0)"/>
</clipPath>
</defs>
</svg>
