<svg width="46" height="46" viewBox="0 0 46 46" fill="none" xmlns="http://www.w3.org/2000/svg">
<path d="M41.5078 42.4062C42.004 42.4062 42.4062 42.004 42.4062 41.5078C42.4062 41.0116 42.004 40.6094 41.5078 40.6094C41.0116 40.6094 40.6094 41.0116 40.6094 41.5078C40.6094 42.004 41.0116 42.4062 41.5078 42.4062Z" fill="url(#paint0_linear)"/>
<path d="M30.7266 38.8125C31.2228 38.8125 31.625 38.4103 31.625 37.9141C31.625 37.4179 31.2228 37.0156 30.7266 37.0156C30.2304 37.0156 29.8281 37.4179 29.8281 37.9141C29.8281 38.4103 30.2304 38.8125 30.7266 38.8125Z" fill="url(#paint1_linear)"/>
<path d="M9.88281 14.375H8.08594C7.58973 14.375 7.1875 14.7772 7.1875 15.2734V20.6641C7.1875 21.1603 7.58973 21.5625 8.08594 21.5625C8.58214 21.5625 8.98438 21.1603 8.98438 20.6641V19.7656H9.88281C11.369 19.7656 12.5781 18.5565 12.5781 17.0703C12.5781 15.5841 11.369 14.375 9.88281 14.375ZM9.88281 17.9688H8.98438V16.1719H9.88281C10.3782 16.1719 10.7812 16.5749 10.7812 17.0703C10.7812 17.5657 10.3782 17.9688 9.88281 17.9688Z" fill="url(#paint2_linear)"/>
<path d="M18.8672 14.375C18.371 14.375 17.9688 14.7772 17.9688 15.2734V16.1719H16.1719V15.2734C16.1719 14.7772 15.7696 14.375 15.2734 14.375C14.7772 14.375 14.375 14.7772 14.375 15.2734V20.6641C14.375 21.1603 14.7772 21.5625 15.2734 21.5625C15.7696 21.5625 16.1719 21.1603 16.1719 20.6641V17.9688H17.9688V20.6641C17.9688 21.1603 18.371 21.5625 18.8672 21.5625C19.3634 21.5625 19.7656 21.1603 19.7656 20.6641V15.2734C19.7656 14.7772 19.3634 14.375 18.8672 14.375Z" fill="url(#paint3_linear)"/>
<path d="M12.2284 9.16101C12.6318 9.04466 13.0518 8.98438 13.4766 8.98438C15.3775 8.98438 17.0803 10.1879 17.7138 11.9792C17.8407 12.3382 18.1801 12.5781 18.5608 12.5781H22.2812C22.5509 12.5781 22.8063 12.457 22.9769 12.2482C23.1475 12.0394 23.2154 11.7651 23.1617 11.5009C22.2311 6.91914 18.1579 3.59375 13.4766 3.59375C8.70046 3.59375 4.70942 6.9849 3.79139 11.5007C3.73767 11.7649 3.8055 12.0394 3.9762 12.2482C4.14682 12.457 4.40224 12.5781 4.67186 12.5781H8.39229C8.77296 12.5781 9.11239 12.3382 9.23934 11.9792C9.50474 11.2289 9.96959 10.5621 10.5749 10.0486L12.8413 12.315C13.1921 12.6658 13.761 12.6658 14.1119 12.315C14.4628 11.9641 14.4628 11.3952 14.1119 11.0443L12.2284 9.16101ZM7.79295 10.7812H5.85052C6.29291 9.52901 7.04077 8.40372 8.02915 7.50294L9.30089 8.77468C8.67027 9.33575 8.15556 10.0191 7.79295 10.7812ZM9.5016 6.43407C10.7085 5.74937 12.0641 5.39062 13.4766 5.39062C16.9292 5.39062 19.9773 7.60069 21.1025 10.7812H19.1605C18.1288 8.60775 15.9196 7.1875 13.4766 7.1875C12.5605 7.1875 11.6602 7.38731 10.836 7.76843L9.5016 6.43407Z" fill="url(#paint4_linear)"/>
<path d="M45.1016 16.1719C40.643 16.1719 37.0156 19.7992 37.0156 24.2578V25.698C36.4227 26.3577 35.968 27.1118 35.6639 27.9245L35.2059 27.4665C35.006 24.1774 32.268 21.5625 28.9297 21.5625H27.1328C26.6367 21.5625 26.2344 21.9647 26.2344 22.4609C26.2344 25.9287 29.0556 28.75 32.5234 28.75H33.9482C34.165 29.0345 35.2188 29.685 35.2188 31.1371V33.4219H14.375V26.9225C21.3887 26.4585 26.9531 20.6057 26.9531 13.4766C26.9531 6.04559 20.9075 0 13.4766 0C6.04559 0 0 6.04559 0 13.4766C0 20.6056 5.56447 26.4584 12.5781 26.9225V33.4219H0.898438C0.402231 33.4219 0 33.8241 0 34.3203V45.1016C0 45.5978 0.402231 46 0.898438 46H18.957C19.4532 46 19.8555 45.5978 19.8555 45.1016C19.8555 44.6054 19.4532 44.2031 18.957 44.2031H1.79688V42.4062H6.28906C6.78527 42.4062 7.1875 42.004 7.1875 41.5078C7.1875 41.0116 6.78527 40.6094 6.28906 40.6094H1.79688V35.2188H12.5781V37.1702C11.5324 37.541 10.7812 38.5396 10.7812 39.7109C10.7812 41.1971 11.9904 42.4062 13.4766 42.4062C14.9628 42.4062 16.1719 41.1971 16.1719 39.7109C16.1719 38.5397 15.4207 37.541 14.375 37.1702V35.2188H35.2188V37.7019L33.5168 41.106C33.2948 41.5499 33.4747 42.0896 33.9186 42.3115C34.3623 42.5333 34.9021 42.3534 35.124 41.9097L36.1172 39.9231L37.1105 41.9096C37.3328 42.3542 37.8731 42.5329 38.3158 42.3114C38.7597 42.0895 38.9395 41.5498 38.7177 41.1059L37.0156 37.7019V35.2188H44.2031V37.0156H39.7109C39.2148 37.0156 38.8125 37.4179 38.8125 37.9141C38.8125 38.4103 39.2148 38.8125 39.7109 38.8125H44.2031V44.2031H27.043C26.5469 44.2031 26.1445 44.6054 26.1445 45.1016C26.1445 45.5978 26.5469 46 27.043 46H45.1016C45.5977 46 46 45.5978 46 45.1016V34.3203C46 33.8241 45.5977 33.4219 45.1016 33.4219H37.0156C37.0156 32.5083 37.0156 31.3149 37.0156 30.3923C37.0156 29.1098 37.475 27.8984 38.3139 26.9432C42.5875 26.7341 46 23.1917 46 18.8672V17.0703C46 16.5741 45.5977 16.1719 45.1016 16.1719ZM32.5234 26.9531C30.3541 26.9531 28.5389 25.4073 28.1215 23.3594H28.9297C31.0991 23.3594 32.9143 24.9052 33.3316 26.9531H32.5234ZM13.4766 40.6094C12.9812 40.6094 12.5781 40.2063 12.5781 39.7109C12.5781 39.2155 12.9812 38.8125 13.4766 38.8125C13.972 38.8125 14.375 39.2155 14.375 39.7109C14.375 40.2063 13.972 40.6094 13.4766 40.6094ZM13.4766 25.1562C7.03638 25.1562 1.79688 19.9167 1.79688 13.4766C1.79688 7.03638 7.03638 1.79688 13.4766 1.79688C19.9167 1.79688 25.1562 7.03638 25.1562 13.4766C25.1562 19.9167 19.9167 25.1562 13.4766 25.1562ZM44.2031 18.8672C44.2031 22.03 41.8562 24.655 38.8125 25.0923V24.2578C38.8125 21.095 41.1594 18.47 44.2031 18.0327V18.8672Z" fill="url(#paint5_linear)"/>
<path d="M6.28906 37.0156C5.79286 37.0156 5.39062 37.4179 5.39062 37.9141C5.39062 38.4103 5.79286 38.8125 6.28906 38.8125H8.08594C8.58214 38.8125 8.98438 38.4103 8.98438 37.9141C8.98438 37.4179 8.58214 37.0156 8.08594 37.0156H6.28906Z" fill="url(#paint6_linear)"/>
<path d="M27.1328 37.0156H20.6641C20.1679 37.0156 19.7656 37.4179 19.7656 37.9141C19.7656 38.4103 20.1679 38.8125 20.6641 38.8125H27.1328C27.6289 38.8125 28.0312 38.4103 28.0312 37.9141C28.0312 37.4179 27.6289 37.0156 27.1328 37.0156Z" fill="url(#paint7_linear)"/>
<path d="M17.9688 41.5078C17.9688 42.004 18.371 42.4062 18.8672 42.4062H23C23.4961 42.4062 23.8984 42.004 23.8984 41.5078C23.8984 41.0116 23.4961 40.6094 23 40.6094H18.8672C18.371 40.6094 17.9688 41.0116 17.9688 41.5078Z" fill="url(#paint8_linear)"/>
<path d="M25.6953 41.5078C25.6953 42.004 26.0976 42.4062 26.5938 42.4062H28.9297C29.4258 42.4062 29.8281 42.004 29.8281 41.5078C29.8281 41.0116 29.4258 40.6094 28.9297 40.6094H26.5938C26.0976 40.6094 25.6953 41.0116 25.6953 41.5078Z" fill="url(#paint9_linear)"/>
<path d="M23 46C23.4962 46 23.8984 45.5978 23.8984 45.1016C23.8984 44.6054 23.4962 44.2031 23 44.2031C22.5038 44.2031 22.1016 44.6054 22.1016 45.1016C22.1016 45.5978 22.5038 46 23 46Z" fill="url(#paint10_linear)"/>
<defs>
<linearGradient id="paint0_linear" x1="42.4063" y1="42.4063" x2="40.5255" y2="42.3137" gradientUnits="userSpaceOnUse">
<stop stop-color="#2CA824"/>
<stop offset="1" stop-color="#45CF3C"/>
</linearGradient>
<linearGradient id="paint1_linear" x1="31.625" y1="38.8125" x2="29.7443" y2="38.72" gradientUnits="userSpaceOnUse">
<stop stop-color="#2CA824"/>
<stop offset="1" stop-color="#45CF3C"/>
</linearGradient>
<linearGradient id="paint2_linear" x1="12.5781" y1="21.5625" x2="6.93002" y2="21.3541" gradientUnits="userSpaceOnUse">
<stop stop-color="#2CA824"/>
<stop offset="1" stop-color="#45CF3C"/>
</linearGradient>
<linearGradient id="paint3_linear" x1="19.7656" y1="21.5625" x2="14.1175" y2="21.3541" gradientUnits="userSpaceOnUse">
<stop stop-color="#2CA824"/>
<stop offset="1" stop-color="#45CF3C"/>
</linearGradient>
<linearGradient id="paint4_linear" x1="23.1797" y1="12.5781" x2="3.04607" y2="10.4389" gradientUnits="userSpaceOnUse">
<stop stop-color="#2CA824"/>
<stop offset="1" stop-color="#45CF3C"/>
</linearGradient>
<linearGradient id="paint5_linear" x1="46" y1="46" x2="-2.14627" y2="43.6316" gradientUnits="userSpaceOnUse">
<stop stop-color="#2CA824"/>
<stop offset="1" stop-color="#45CF3C"/>
</linearGradient>
<linearGradient id="paint6_linear" x1="8.98438" y1="38.8125" x2="5.24999" y2="38.4451" gradientUnits="userSpaceOnUse">
<stop stop-color="#2CA824"/>
<stop offset="1" stop-color="#45CF3C"/>
</linearGradient>
<linearGradient id="paint7_linear" x1="28.0313" y1="38.8125" x2="19.7814" y2="36.9458" gradientUnits="userSpaceOnUse">
<stop stop-color="#2CA824"/>
<stop offset="1" stop-color="#45CF3C"/>
</linearGradient>
<linearGradient id="paint8_linear" x1="23.8984" y1="42.4063" x2="17.8368" y2="41.4223" gradientUnits="userSpaceOnUse">
<stop stop-color="#2CA824"/>
<stop offset="1" stop-color="#45CF3C"/>
</linearGradient>
<linearGradient id="paint9_linear" x1="29.8281" y1="42.4063" x2="25.5468" y2="41.9219" gradientUnits="userSpaceOnUse">
<stop stop-color="#2CA824"/>
<stop offset="1" stop-color="#45CF3C"/>
</linearGradient>
<linearGradient id="paint10_linear" x1="23.8984" y1="46" x2="22.0177" y2="45.9075" gradientUnits="userSpaceOnUse">
<stop stop-color="#2CA824"/>
<stop offset="1" stop-color="#45CF3C"/>
</linearGradient>
</defs>
</svg>
