<svg xmlns:xlink="http://www.w3.org/1999/xlink" width="48" height="48" fill="none">
  <path d="M18.4 37.8c-1.5-4.4-1-9.3 1.5-13.2L1 5.6h0A3.3 3.3 0 011 1a3.3 3.3 0 014.7 0c6 6.3 12.7 12.8 19 19 1.4-.9 3-1.5 4.6-2a5.7 5.7 0 117.2 0A15.2 15.2 0 0148 31.9c.4 6.7-3.7 12.7-10 15.1-4 1-7.2 1.3-10.6 0-2-.8-3.4-1.3-6.7-4.7 0 2.6-1.8 5-4.3 5.7a5.6 5.6 0 111.9-10zM32.7 36a3.3 3.3 0 002.5-5.4V19.5a13.5 13.5 0 11-13 21.8l9.9-5.3h.6zM1.7 3.1c0-.5.3-1 1-1.3.5-.3 1.2-.1 1.7.3 8.4 8.9 17.4 17.6 26.2 26.2l3.4 3.4c.2.2.3.6.3 1 0 .5-.1.9-.4 1.2-.7.6-1.7.6-2.3 0-7.5-7.4-20.5-20.2-29.5-29.5h0c-.3-.3-.5-.7-.5-1.3zm17.5 29.7v0c0-2.4.7-4.9 2-7l6.8 6.8-8 4.4c-.5-1.3-.8-2.8-.8-4.2zM32 27.4V13.6a.8.8 0 011.5 0v15.3zm.8-17.7a4 4 0 012.4 7v-3.1a2.4 2.4 0 10-4.9 0v3.1a4 4 0 012.5-7zm-7 11.5c1.4-.8 3-1.4 4.5-1.7v6.2zM29.3 34l1.1 1.1-9.8 5.4-.8-1.3zm-14 12.5a4 4 0 110-8 4 4 0 010 8z" fill="url(#paint0_linear)" stroke="url(#paint1_linear)" stroke-width=".1" fill-rule="evenodd"/>
  <path d="M15.2 43.3a.8.8 0 100-1.7.8.8 0 000 1.7z" fill="url(#paint2_linear)" stroke="url(#paint3_linear)" stroke-width=".1"/>
  <path d="M32.8 38.4a3.3 3.3 0 100 6.5 3.3 3.3 0 000-6.5zm0 4.8a1.6 1.6 0 110-3.1 1.6 1.6 0 010 3z" fill="url(#paint4_linear)" stroke="url(#paint5_linear)" stroke-width=".1"/>
  <path d="M40.4 31.6c.6 0 1.2-.1 1.6-.4v0h0a3.2 3.2 0 00-3.2-5.6v0h0a3.3 3.3 0 001.6 6zm0 0h0m0 0h0m1.4-4v0a1.6 1.6 0 11-2.7 1.5 1.6 1.6 0 012.7-1.5z" fill="url(#paint6_linear)" stroke="url(#paint7_linear)" stroke-width=".1"/>
  <defs id="defs430">
    <linearGradient id="paint0_linear" x1="48" y1="48" x2="-2.2" y2="45.5" gradientUnits="userSpaceOnUse" xlink:href="#paint1_linear">
      <stop stop-color="#2CA824" id="stop390"/>
      <stop offset="1" stop-color="#45CF3C" id="stop392"/>
    </linearGradient>
    <linearGradient id="paint1_linear" x1="48" y1="48" x2="-2.2" y2="45.5" gradientUnits="userSpaceOnUse">
      <stop stop-color="#2CA824" id="stop395"/>
      <stop offset="1" stop-color="#45CF3C" id="stop397"/>
    </linearGradient>
    <linearGradient id="paint2_linear" x1="16" y1="43.2" x2="14.3" y2="43.1" gradientUnits="userSpaceOnUse">
      <stop stop-color="#2CA824" id="stop400"/>
      <stop offset="1" stop-color="#45CF3C" id="stop402"/>
    </linearGradient>
    <linearGradient id="paint3_linear" x1="16" y1="43.2" x2="14.3" y2="43.1" gradientUnits="userSpaceOnUse">
      <stop stop-color="#2CA824" id="stop405"/>
      <stop offset="1" stop-color="#45CF3C" id="stop407"/>
    </linearGradient>
    <linearGradient id="paint4_linear" x1="36" y1="44.8" x2="29.3" y2="44.5" gradientUnits="userSpaceOnUse">
      <stop stop-color="#2CA824" id="stop410"/>
      <stop offset="1" stop-color="#45CF3C" id="stop412"/>
    </linearGradient>
    <linearGradient id="paint5_linear" x1="36" y1="44.8" x2="29.3" y2="44.5" gradientUnits="userSpaceOnUse">
      <stop stop-color="#2CA824" id="stop415"/>
      <stop offset="1" stop-color="#45CF3C" id="stop417"/>
    </linearGradient>
    <linearGradient id="paint6_linear" x1="43.5" y1="31.6" x2="36.9" y2="31.2" gradientUnits="userSpaceOnUse">
      <stop stop-color="#2CA824" id="stop420"/>
      <stop offset="1" stop-color="#45CF3C" id="stop422"/>
    </linearGradient>
    <linearGradient id="paint7_linear" x1="43.5" y1="31.6" x2="36.9" y2="31.2" gradientUnits="userSpaceOnUse">
      <stop stop-color="#2CA824" id="stop425"/>
      <stop offset="1" stop-color="#45CF3C" id="stop427"/>
    </linearGradient>
  </defs>
</svg>
