<svg width="44" height="44" viewBox="0 0 44 44" fill="none" xmlns="http://www.w3.org/2000/svg">
<g clip-path="url(#clip0)">
<path d="M11.7773 27.4999H14.7107C15.4929 27.5009 16.1382 26.8879 16.1773 26.1066C16.7409 17.8461 23.3168 11.2702 31.5773 10.7066V11.3666C31.5818 11.9163 31.8931 12.4173 32.384 12.6646C32.9078 12.936 33.5396 12.8907 34.0193 12.5473L39.0353 8.88061C39.4104 8.60416 39.6319 8.16591 39.6319 7.69994C39.6319 7.23397 39.4104 6.79573 39.0353 6.51928L34.012 2.85261C33.5352 2.50887 32.9052 2.46346 32.384 2.73528C31.876 2.9702 31.546 3.47374 31.5333 4.03328V4.76661C20.0721 5.35228 10.9082 14.5067 10.3107 25.9673C10.2927 26.363 10.4355 26.7492 10.7067 27.0379C10.9844 27.3333 11.3719 27.5005 11.7773 27.4999ZM32.2667 6.23328C32.6717 6.23328 33 5.90495 33 5.49994V4.03328C33.0239 4.02592 33.0494 4.02592 33.0733 4.03328C33.0873 4.02667 33.1034 4.02667 33.1173 4.03328L38.1333 7.69994L33.1247 11.3666C33.1056 11.3728 33.0851 11.3728 33.066 11.3666H33V9.89994C33 9.49493 32.6717 9.16661 32.2667 9.16661C22.9284 9.39383 15.3081 16.7119 14.7033 26.0333H11.77C12.3597 15.0827 21.3022 6.44412 32.2667 6.23328Z" fill="url(#paint0_linear)"/>
<path d="M44 27.1333C44 20.8556 38.911 15.7666 32.6333 15.7666C26.3557 15.7666 21.2667 20.8556 21.2667 27.1333C21.2537 29.6577 22.0935 32.1125 23.65 34.0999H21.2667V33.3666C21.2667 32.9616 20.9383 32.6333 20.5333 32.6333C20.1283 32.6333 19.8 32.9616 19.8 33.3666V34.0999H18.3333V32.6333C18.3333 32.2283 18.005 31.8999 17.6 31.8999C17.195 31.8999 16.8667 32.2283 16.8667 32.6333V34.0999H15.4V33.3666C15.4 32.9616 15.0717 32.6333 14.6667 32.6333C14.2617 32.6333 13.9333 32.9616 13.9333 33.3666V34.0999H12.4667V32.6333C12.4667 32.2283 12.1383 31.8999 11.7333 31.8999C11.3283 31.8999 11 32.2283 11 32.6333V34.0999H9.53333V33.3666C9.53333 32.9616 9.20501 32.6333 8.8 32.6333C8.39499 32.6333 8.06667 32.9616 8.06667 33.3666V34.0999H6.6V32.6333C6.6 32.2283 6.27167 31.8999 5.86667 31.8999C5.46166 31.8999 5.13333 32.2283 5.13333 32.6333V34.0999H3.66667V33.3666C3.66667 32.9616 3.33834 32.6333 2.93333 32.6333C2.52832 32.6333 2.2 32.9616 2.2 33.3666V34.0999H1.46667C0.656649 34.0999 0 34.7566 0 35.5666V39.9666C0 40.7766 0.656649 41.4333 1.46667 41.4333H42.5333C43.3433 41.4333 44 40.7766 44 39.9666V38.4999C44 37.6899 43.3433 37.0333 42.5333 37.0333H38.192C39.0142 36.5722 39.7775 36.0132 40.4653 35.3686C42.7348 33.2326 44.015 30.2498 44 27.1333ZM42.5333 38.4999V39.9666H1.46667V38.4999H42.5333ZM32.6333 37.0333H1.46667V35.5666H32.6333C36.8121 35.5619 40.3595 32.5027 40.9785 28.37C41.5975 24.2374 39.1021 20.2731 35.1082 19.0442C31.1142 17.8153 26.8219 19.691 25.0106 23.4568C23.1993 27.2226 24.4134 31.7469 27.8667 34.0999H25.6227C23.7636 32.2596 22.7225 29.7491 22.7333 27.1333C22.7333 21.6656 27.1657 17.2333 32.6333 17.2333C38.1009 17.2333 42.5333 21.6656 42.5333 27.1333C42.5293 32.5992 38.0993 37.0292 32.6333 37.0333ZM32.6333 34.0999C28.7857 34.0999 25.6667 30.9809 25.6667 27.1333C25.6667 23.2857 28.7857 20.1666 32.6333 20.1666C36.4809 20.1666 39.6 23.2857 39.6 27.1333C39.596 30.9792 36.4792 34.0959 32.6333 34.0999Z" fill="url(#paint1_linear)"/>
<path d="M32.6333 21.6333C29.5958 21.6333 27.1333 24.0957 27.1333 27.1333C27.1333 30.1709 29.5958 32.6333 32.6333 32.6333C35.6709 32.6333 38.1333 30.1709 38.1333 27.1333C38.1333 24.0957 35.6709 21.6333 32.6333 21.6333ZM32.6333 31.1666C30.4058 31.1666 28.6 29.3609 28.6 27.1333C28.6 24.9058 30.4058 23.1 32.6333 23.1C34.8609 23.1 36.6667 24.9058 36.6667 27.1333C36.6626 29.3592 34.8592 31.1626 32.6333 31.1666Z" fill="url(#paint2_linear)"/>
<path d="M32.6333 24.5667C31.2158 24.5667 30.0667 25.7158 30.0667 27.1333C30.0667 28.5508 31.2158 29.7 32.6333 29.7C34.0508 29.7 35.2 28.5508 35.2 27.1333C35.2 25.7158 34.0508 24.5667 32.6333 24.5667ZM32.6333 28.2333C32.0258 28.2333 31.5333 27.7408 31.5333 27.1333C31.5333 26.5258 32.0258 26.0333 32.6333 26.0333C33.2408 26.0333 33.7333 26.5258 33.7333 27.1333C33.7333 27.7408 33.2408 28.2333 32.6333 28.2333Z" fill="url(#paint3_linear)"/>
</g>
<defs>
<linearGradient id="paint0_linear" x1="39.6319" y1="27.4999" x2="8.9693" y2="25.7266" gradientUnits="userSpaceOnUse">
<stop stop-color="#2CA824"/>
<stop offset="1" stop-color="#45CF3C"/>
</linearGradient>
<linearGradient id="paint1_linear" x1="44.0001" y1="41.4333" x2="-1.83844" y2="37.5678" gradientUnits="userSpaceOnUse">
<stop stop-color="#2CA824"/>
<stop offset="1" stop-color="#45CF3C"/>
</linearGradient>
<linearGradient id="paint2_linear" x1="38.1333" y1="32.6333" x2="26.6201" y2="32.067" gradientUnits="userSpaceOnUse">
<stop stop-color="#2CA824"/>
<stop offset="1" stop-color="#45CF3C"/>
</linearGradient>
<linearGradient id="paint3_linear" x1="35.2" y1="29.7" x2="29.8271" y2="29.4357" gradientUnits="userSpaceOnUse">
<stop stop-color="#2CA824"/>
<stop offset="1" stop-color="#45CF3C"/>
</linearGradient>
<clipPath id="clip0">
<rect width="44" height="44" fill="white"/>
</clipPath>
</defs>
</svg>
