<svg width="55" height="55" fill="none">
	<path d="M11.3 26l.7.7a3.3 3.3 0 004.7 0l3.8-3.7c1-1 1.1-2.6 0-3.7l-3.8-3.6a3.3 3.3 0 00-4.7 0l-.7.7c-.3.4-.3.9 0 1.2l3.7 3.6-3.7 3.6c-.3.3-.3.8 0 1.1zm5.5-4.2a.8.8 0 000-1.2L13 17l.2-.2c.6-.6 1.7-.7 2.4 0l3.8 3.7c.4.4.4 1 0 1.4l-3.8 3.7c-.7.6-1.7.6-2.4 0l-.2-.2 3.8-3.6z" fill="url(#paint0_linear)" />
	<path d="M43.8 34.4a2.8 2.8 0 100 5.7 2.8 2.8 0 000-5.7zm0 4a1.2 1.2 0 110-2.4 1.2 1.2 0 010 2.4z" fill="url(#paint1_linear)" />
	<path d="M10.8 37.2a2.8 2.8 0 105.7 0 2.8 2.8 0 00-5.7 0zm4 0a1.2 1.2 0 11-2.4 0 1.2 1.2 0 012.4 0z" fill="url(#paint2_linear)" />
	<path d="M54.2 25.5L41.8 12c-.6-.6-1.5-1-2.4-1H8.2a.8.8 0 000 1.6h19.7V32h-10a6.8 6.8 0 00-8.5 0H1.6V24h.5a.8.8 0 100-1.6h-.5V13c0-.3.2-.5.5-.5H5A.8.8 0 005 11H2C1 11 0 12 0 13v23.1c0 .9.7 1.6 1.6 1.6h2.6v.8h-3a.8.8 0 100 1.6H5c.4 0 .8-.3.8-.8v-1.6h1A6.9 6.9 0 0018 42.5a.8.8 0 00-1-1.2 5.3 5.3 0 111.6-2.3.8.8 0 101.5.5l.4-1.8h16.4a6.9 6.9 0 0013.7 0h2c1.3 0 2.4-1 2.4-2.4v-7.7c0-.7-.3-1.5-.8-2zM1.6 36.1v-2.6H8c-.5.8-.9 1.6-1 2.6H1.6zm39-23L50 23.4h-2.7l-2.2-2.2.3-.2a.8.8 0 10-1.2-1.1l-.8.8-.8.8a.8.8 0 101.2 1.1l.2-.2 1 1h-5.8l-.3-2a.8.8 0 10-1.6.1l.3 1.9h-2.4v-7.1h.8c.4 0 .6.2.7.5l.2 1.5a.8.8 0 001.6-.2l-.2-1.5c-.2-1.1-1.1-2-2.3-2h-.9v-2.2h4.2c.5 0 .9.2 1.2.5zm-11-.6h4v10.9c0 1 .8 1.7 1.7 1.7h16.3c1 1.3 1.8 1.6 1.8 2.5v1.1h-.8a.8.8 0 100 1.6h.8V32H48a6.8 6.8 0 00-8.5 0h-10V12.5zM37 36.1h-7.5v-2.6H38c-.5.8-.8 1.6-1 2.6zM28 36h-7.5c-.2-1-.5-1.8-1-2.6h8.5V36zm15.9 6.4a5.3 5.3 0 110-10.5 5.3 5.3 0 010 10.5zm8.8-6.4h-2c-.2-1-.6-1.8-1-2.6h3.8v1.8c0 .4-.4.8-.8.8z" fill="url(#paint3_linear)" />
	<defs>
		<linearGradient id="paint0_linear" x1="21.3" y1="27.7" x2="10.6" y2="27.3" gradientUnits="userSpaceOnUse">
			<stop offset="0" stop-color="#2CA824" />
			<stop offset="1" stop-color="#45CF3C" />
		</linearGradient>
		<linearGradient id="paint1_linear" x1="46.6" y1="40.1" x2="40.7" y2="39.8" gradientUnits="userSpaceOnUse">
			<stop offset="0" stop-color="#2CA824" />
			<stop offset="1" stop-color="#45CF3C" />
		</linearGradient>
		<linearGradient id="paint2_linear" x1="16.4" y1="40.1" x2="10.6" y2="39.8" gradientUnits="userSpaceOnUse">
			<stop offset="0" stop-color="#2CA824" />
			<stop offset="1" stop-color="#45CF3C" />
		</linearGradient>
		<linearGradient id="paint3_linear" x1="55" y1="44.1" x2="-2.3" y2="39.4" gradientUnits="userSpaceOnUse">
			<stop offset="0" stop-color="#2CA824" />
			<stop offset="1" stop-color="#45CF3C" />
		</linearGradient>
	</defs>
</svg>
