<svg width="44" height="44" fill="none">
  <g clip-path="url(#clip0)">
    <path d="M11.8 27.5h3c.7 0 1.3-.6 1.4-1.4.5-8.3 7.1-14.8 15.4-15.4v.7c0 .5.3 1 .8 1.3.5.2 1.1.2 1.6-.2L39 9a1.5 1.5 0 000-2.4L34 3c-.5-.4-1-.4-1.6-.2-.5.3-.9.8-.9 1.3v.8A22.4 22.4 0 0010.3 26a1.5 1.5 0 001.5 1.5zM32.3 6.2c.4 0 .7-.3.7-.7V4h.1l5 3.7-5 3.7H33V9.9c0-.4-.3-.7-.7-.7A18 18 0 0014.7 26h-3A21 21 0 0132.4 6.2z" fill="url(#paint0_linear)"/>
    <path d="M44 27.1a11.4 11.4 0 10-20.3 7h-2.4v-.7a.7.7 0 10-1.5 0v.7h-1.5v-1.5a.7.7 0 10-1.4 0v1.5h-1.5v-.7a.7.7 0 00-1.5 0v.7h-1.4v-1.5a.7.7 0 10-1.5 0v1.5H9.5v-.7a.7.7 0 00-1.4 0v.7H6.6v-1.5a.7.7 0 10-1.5 0v1.5H3.7v-.7a.7.7 0 00-1.5 0v.7h-.7c-.8 0-1.5.7-1.5 1.5V40c0 .8.7 1.4 1.5 1.4h41c.8 0 1.5-.6 1.5-1.4v-1.5c0-.8-.7-1.5-1.5-1.5h-4.3c.8-.4 1.6-1 2.3-1.6 2.2-2.2 3.5-5.2 3.5-8.3zm-1.5 11.4V40h-41v-1.5h41zM32.6 37H1.5v-1.4h31.1A8.4 8.4 0 1028 34h-2.3a9.9 9.9 0 117 3zm0-2.9a7 7 0 110-14 7 7 0 010 14z" fill="url(#paint1_linear)"/>
    <path d="M32.6 21.6a5.5 5.5 0 100 11 5.5 5.5 0 000-11zm0 9.6a4 4 0 110-8.1 4 4 0 010 8z" fill="url(#paint2_linear)"/>
    <path d="M32.6 24.6a2.6 2.6 0 100 5.1 2.6 2.6 0 000-5.1zm0 3.6a1.1 1.1 0 110-2.2 1.1 1.1 0 010 2.2z" fill="url(#paint3_linear)"/>
  </g>
  <defs>
    <linearGradient id="paint0_linear" x1="39.6" y1="27.5" x2="9" y2="25.7" gradientUnits="userSpaceOnUse">
      <stop offset="0" stop-color="#2CA824"/>
      <stop offset="1" stop-color="#45CF3C"/>
    </linearGradient>
    <linearGradient id="paint1_linear" x1="44" y1="41.4" x2="-1.8" y2="37.6" gradientUnits="userSpaceOnUse">
      <stop offset="0" stop-color="#2CA824"/>
      <stop offset="1" stop-color="#45CF3C"/>
    </linearGradient>
    <linearGradient id="paint2_linear" x1="38.1" y1="32.6" x2="26.6" y2="32.1" gradientUnits="userSpaceOnUse">
      <stop offset="0" stop-color="#2CA824"/>
      <stop offset="1" stop-color="#45CF3C"/>
    </linearGradient>
    <linearGradient id="paint3_linear" x1="35.2" y1="29.7" x2="29.8" y2="29.4" gradientUnits="userSpaceOnUse">
      <stop offset="0" stop-color="#2CA824"/>
      <stop offset="1" stop-color="#45CF3C"/>
    </linearGradient>
    <clipPath id="clip0">
      <path fill="#fff" d="M0 0h44v44H0z"/>
    </clipPath>
  </defs>
</svg>
