<svg width="18" height="18" viewBox="0 0 18 18" xmlns="http://www.w3.org/2000/svg">
<path d="M17 5.00799C17.0705 3.92705 16.6718 2.86814 15.9058 2.10217C15.1399 1.3362 14.081 0.93747 13 1.00799" stroke="#2CA824" stroke-width="1.8" stroke-linecap="round" stroke-linejoin="round" fill="transparent"/>
<path fill-rule="evenodd" clip-rule="evenodd" d="M5.00003 1.008C5.81271 0.947545 6.6114 1.24415 7.18764 1.82038C7.76388 2.39662 8.06048 3.19532 8.00003 4.008C8.00003 5.461 7.00003 6.008 7.00003 7.008C7.00003 8.008 10 11.008 11 11.008C12 11.008 12.546 10.008 14 10.008C14.8127 9.94754 15.6114 10.2441 16.1876 10.8204C16.7639 11.3966 17.0605 12.1953 17 13.008C16.8549 15.1541 15.1462 16.8628 13 17.008C11 17.008 9.00003 17.008 5.00003 13.008C1.00003 9.008 1.00003 7.008 1.00003 5.008C1.1452 2.86186 2.85389 1.15317 5.00003 1.008Z" stroke="#2CA824" stroke-width="1.8" stroke-linecap="round" stroke-linejoin="round" fill="transparent"/>
<path d="M14.0001 6.008C14.0001 4.90343 13.1046 4.008 12.0001 4.008" stroke="#2CA824" stroke-width="1.8" stroke-linecap="round" stroke-linejoin="round" fill="transparent"/>
</svg>
