<svg width="42" height="32" fill="none">
  <path d="M.3 9.6c2.8 2 5.3 4.4 7.4 7-2-.7-4.3-1.1-6.5-1.1H.8A.8.8 0 00.4 17c.4.3 5.6 3 7 8.4A5.7 5.7 0 003 30.2H.8a.8.8 0 100 1.7h9.5a.8.8 0 100-1.7H4.7a4 4 0 016.8-2.1c.4.3 1 .2 1.3-.2a6.6 6.6 0 0110.9-1 4.5 4.5 0 00-1 3.3h-5a.8.8 0 100 1.7h23.5a.8.8 0 100-1.7H39a5.7 5.7 0 00-4.5-4.8c1.5-5.4 6.7-8 7.1-8.4a.8.8 0 00-.4-1.5h-.4c-2 0-4 .3-6 .9 3-4.3 6.4-6.4 6.9-6.8A.8.8 0 0041 8c-4.8 1-9.3 3.4-12.6 6.7.4-3.6 1.5-7.1 3.2-10.4a.8.8 0 00-1.1-1.1c-4.4 2.1-7.8 6-9.4 10.9A30.4 30.4 0 009 .8.8.8 0 008 2c2.8 5 4.6 7 6 11.4A19.5 19.5 0 00.8 8a.8.8 0 00-.5 1.5zM12 26.3c-.8-.6-1.8-.9-2.8-1-.7-3-2.7-5.8-5.4-8 2.2.3 4.4 1 6.1 2 1.3 1.8 2.4 3.8 3.2 5.7L12 26.3zm25.4 4h-13v-.5a2.9 2.9 0 015-1.8c.3.3.9.4 1.2 0a4 4 0 016.8 2.2zm-4.4-5c-.7 0-1.3.2-2 .5.5-2.5 1.3-4.9 2.6-7.2 1.4-.6 3.1-1 4.8-1.3-2.7 2.2-4.7 5-5.4 8zm4.6-14.5a26 26 0 00-8.2 15 4.5 4.5 0 00-4.4.1l-.9-1c.5-1 1.2-3.8 4-7.2 2.4-3 5.8-5.4 9.5-6.9zM29 6c-1.4 3.5-2.2 7.1-2.5 10.9a22.4 22.4 0 00-3 5c-.4-1.7-.8-3.5-1.4-5.1a17 17 0 017-10.8zM11.4 4.4A28.7 28.7 0 0122 23.2v.4A8.1 8.1 0 0017 23v-1.7c0-9.4-4.7-15.3-5.5-17zm3.5 12.4c.2 1.5.4 3 .4 4.5v2.2l-1 .5A40.9 40.9 0 003.5 10c4.6.6 9 3.2 11.5 6.8z" fill="url(#paint0_linear)"/>
  <path d="M14.8 31.7a.9.9 0 100-1.7.9.9 0 000 1.7z" fill="url(#paint1_linear)"/>
  <defs>
    <linearGradient id="paint0_linear" x1="42" y1="31.9" x2="-1.9" y2="29" gradientUnits="userSpaceOnUse">
      <stop stop-color="#2CA824"/>
      <stop offset="1" stop-color="#45CF3C"/>
    </linearGradient>
    <linearGradient id="paint1_linear" x1="15.7" y1="31.7" x2="13.8" y2="31.7" gradientUnits="userSpaceOnUse">
      <stop stop-color="#2CA824"/>
      <stop offset="1" stop-color="#45CF3C"/>
    </linearGradient>
  </defs>
</svg>
