<svg width="43" height="43" fill="none">
  <g clip-path="url(#clip0)">
    <path d="M42.7 39.9l-5.4-5.4c-.7-.6-1.4-1-2.3-1.2V22.4a6.3 6.3 0 006.8-7.7c-.1-.3-.4-.6-.7-.6a6.3 6.3 0 00-6 1.8v-4.3a5.2 5.2 0 00-.4-8.6.8.8 0 00-1 0 5.2 5.2 0 00-.3 8.6v1a5.6 5.6 0 00-5.3-1.4c-.3 0-.5.3-.6.6a5.6 5.6 0 005.9 6.9v3.4a6.9 6.9 0 00-6.7-2.2 2.7 2.7 0 00-2.7-2.4h-5.4l-2.5-3.4c-.4-.5-.8-1-1.3-1.2A4 4 0 0017.3 9v-2h1.3a.8.8 0 100-1.7h-1V4.1c0-1.3-1.1-2.4-2.5-2.4h-4c-1.3 0-2.3 1-2.3 2.4v1.3h-1a.8.8 0 100 1.7h1.4v2a4 4 0 001.6 3.2c-2 .6-3.4 2.5-3.4 4.6V26c0 2 1.1 3.7 2.7 4.6V36H2.6a2.6 2.6 0 000 5.3h1a.8.8 0 100-1.7h-1a1 1 0 010-1.9h8.3c.5 0 .9-.4.9-.8v-5.6h2.6v5.5c0 1.6-1.3 2.8-2.8 2.8h-1.2a.8.8 0 100 1.7h1.2c2.5 0 4.5-2 4.5-4.5v-5.5h3v7.4a2.6 2.6 0 005.4 0v-9.1c0-2.5-2-4.6-4.6-4.6h-4V23H24c.6 0 1.2-.3 1.7-.7a6.9 6.9 0 007.6 6.7v4.4c-.9.2-1.6.6-2.3 1.2l-5.3 5.4A.8.8 0 1027 41l5.3-5.3c1-1 2.8-1 3.8 0l5.4 5.4a.8.8 0 001.2 0c.3-.4.3-.9 0-1.2zM33.3 17a4 4 0 01-4.3-4.3 4 4 0 014.3 4.3zm3.1 0c1-1 2.4-1.5 3.8-1.4a4.7 4.7 0 01-5.1 5.1v-.5c0-1.2.4-2.4 1.3-3.3zM34.2 4.6a3.5 3.5 0 010 5.4 3.5 3.5 0 010-5.4zM15.6 9.1a2.4 2.4 0 01-4.7 0v-2h4.7v2zm-5.1-5c0-.4.3-.7.7-.7h4c.3 0 .7.3.7.7v1.3h-5.4V4.1zm9.4 22.6c1.6 0 2.9 1.3 2.9 2.9v9a1 1 0 01-2 0v-8.1c0-.5-.3-.8-.8-.8h-7.2a3.6 3.6 0 01-3.6-3h10.7zm4.1-5.5h-7.5l-1.6-1.8a.8.8 0 00-1.3 1.1l.6.7V25h-5V17a3.1 3.1 0 015.5-1.8l2.8 3.8c.2.2.4.3.7.3H24a1 1 0 010 2zm9.3 6a5.2 5.2 0 01-5.8-5.8 5.2 5.2 0 015.9 5.1v.7z" fill="url(#paint0_linear)"/>
    <path d="M7 39.6l-.6.3a.8.8 0 000 1.2l.6.2c.2 0 .4 0 .6-.2a.8.8 0 000-1.2.8.8 0 00-.6-.3z" fill="url(#paint1_linear)"/>
  </g>
  <defs>
    <linearGradient id="paint0_linear" x1="42.9" y1="41.3" x2="-2.1" y2="38.9" gradientUnits="userSpaceOnUse">
      <stop stop-color="#2CA824"/>
      <stop offset="1" stop-color="#45CF3C"/>
    </linearGradient>
    <linearGradient id="paint1_linear" x1="7.8" y1="41.3" x2="6.1" y2="41.2" gradientUnits="userSpaceOnUse">
      <stop stop-color="#2CA824"/>
      <stop offset="1" stop-color="#45CF3C"/>
    </linearGradient>
    <clipPath id="clip0">
      <path fill="#fff" d="M0 0h43v43H0z"/>
    </clipPath>
  </defs>
</svg>
