<svg width="50" height="50" fill="none">
  <path d="M41.8 23l5.8-11.2A3.7 3.7 0 0041 8.3l-5.8 11.2a3.7 3.7 0 000 3.4l-1.9 3.4-2.5-1.2a.8.8 0 00-1 .3L25 33.8a8.6 8.6 0 00-1.1 4.1c-.7-.2-1.3-.4-2-.4h-.1a3.1 3.1 0 00-3-2.3v-6.3h.7a8.6 8.6 0 008.6-8.6v-3.1a2.3 2.3 0 00-2.3-2.4h-6a8.7 8.7 0 00-7.1 3.6c-1-.3-1.8-.4-2.7-.4H4a2.3 2.3 0 00-2.4 2.3v3.1a8.6 8.6 0 008.6 8.6H14v3.3c-.6.1-1 .4-1.5.8a3.1 3.1 0 00-4 2.3 3.1 3.1 0 00-3.8 2.2H3v1.6h2.4a.8.8 0 00.8-.8 1.6 1.6 0 113 0H11c0-.7-.2-1.5-.7-2a1.6 1.6 0 011.5-1.9h.1a1.6 1.6 0 011.5 1.6h1.5c0-.8-.2-1.6-.8-2.1a1.6 1.6 0 011.9 0l-.3 1.3h1.6a1.6 1.6 0 013-.5 4.7 4.7 0 00-3 4.4h1.6a3.1 3.1 0 015.5-2 3.1 3.1 0 00-1.6 2.8h1.5a1.6 1.6 0 113.1 0H29c0-.5 0-1-.3-1.3a2.3 2.3 0 012.2 0c-.2.4-.3.8-.3 1.3H32a1.6 1.6 0 013.2 0h1.5c0-.4 0-.8-.2-1.2A1.6 1.6 0 0139 43a.8.8 0 00.7.8h6.3v-1.6h-5.6a3.1 3.1 0 00-4.4-2l.5-1 4-8.4a.8.8 0 00-.4-1l-3-1.5 1.8-3.4a3.8 3.8 0 002.8-2zM17.2 35.5l-.4.2-1.2-.5v-4a.8.8 0 00-.8-.8h-1.5a7 7 0 01-7-7v-.8H4.7v.7a8.6 8.6 0 003.1 6.7 7 7 0 01-4.7-6.7v-3a.8.8 0 01.8-.9h6a7.2 7.2 0 017.3 7.3v8.8zm-3-16.6a7.2 7.2 0 015.5-2.6h6a.8.8 0 01.9.8v3.1a7 7 0 01-4.7 6.6 8.6 8.6 0 003.1-6.6v-.8h-1.6v.8a7 7 0 01-4.6 6.6v-.1a8.8 8.8 0 00-4.6-7.8zm24.6 11.8l-3.6 7.8a7 7 0 01-.8 1.3 3.1 3.1 0 00-2.6.5c-.7-.4-1.4-.6-2.1-.6h-.1l2.3-4.3-1.3-.7-3 5.6c-.6-.3-1.1-.5-1.7-.6 0-.2-.2-.4-.4-.6a7 7 0 01.8-4.6l4.5-7.8 1.8 1-1.5 2.8a2.2 2.2 0 104 2l1.4-3 2.3 1.2zm-5.2 1a.6.6 0 01-.9.3.6.6 0 01-.2-.8l3.7-7.1a3.7 3.7 0 001.1.6l-3.7 7zm4-8.6a2.2 2.2 0 01-1-3L42.4 9a2.2 2.2 0 013.5-.4 2.2 2.2 0 01.4 2.5l-5.9 11.1a2.2 2.2 0 01-2.8 1z" fill="url(#paint0_linear)"/>
  <defs>
    <linearGradient id="paint0_linear" x1="48.1" y1="43.8" x2="-.5" y2="40.8" gradientUnits="userSpaceOnUse">
      <stop stop-color="#2CA824"/>
      <stop offset="1" stop-color="#45CF3C"/>
    </linearGradient>
  </defs>
</svg>
