<svg width="43" height="43" fill="none">
  <path d="M37.2 7.8c.4 0 .8-.4.8-.8V2.5C38 1.1 36.9 0 35.5 0h-27A2.5 2.5 0 006 2.5v38C6 41.9 7 43 8.5 43h27c1.4 0 2.5-1.1 2.5-2.5V38a.8.8 0 00-1.7 0v2.4c0 .4-.4.8-.8.8h-27a.8.8 0 01-.8-.8v-38c0-.4.3-.8.8-.8h27c.4 0 .8.4.8.8V7c0 .4.4.8.9.8z" fill="url(#paint0_linear)"/>
  <path d="M33.3 4H10.8c-.4 0-.8.4-.8.9v17.5a.8.8 0 101.7 0V5.7h20.7v1.4a.8.8 0 001.7 0V4.9c0-.5-.4-.9-.8-.9z" fill="url(#paint1_linear)"/>
  <path d="M33.3 35.4c-.5 0-.9.4-.9.9v1H11.7v-8.5a.8.8 0 00-1.7 0V38c0 .5.4.9.8.9h22.5c.4 0 .8-.4.8-.9v-1.8c0-.5-.4-.9-.8-.9z" fill="url(#paint2_linear)"/>
  <path d="M26 29.7a.8.8 0 00-1.2 0l-1.6 1.6-1-1c-.7-.6-1.8-.6-2.4 0l-.7.7a.8.8 0 001.2 1.2l.7-.7 1 1a1.7 1.7 0 002.4 0L26 31c.4-.4.4-.9 0-1.2z" fill="url(#paint3_linear)"/>
  <path d="M42.6 17.6a2.4 2.4 0 00-1-3.5.8.8 0 01-.3-.7 2.4 2.4 0 00-2.6-2.5.8.8 0 01-.7-.5 2.4 2.4 0 00-3.5-.9c-.2.2-.6.2-.8 0a2.4 2.4 0 00-3.5 1c-.1.2-.4.4-.7.4a2.4 2.4 0 00-2.6 2.5c0 .3-.1.6-.4.7a2.4 2.4 0 00-1.3 2.5H16a.8.8 0 000 1.7h9.6v.1a2.4 2.4 0 00-.2 2.3H16a.8.8 0 000 1.6h10.9v.3a2.4 2.4 0 002.6 2.6c.3 0 .6.1.7.4l.4.5V34a.8.8 0 001.4.6l2.1-2.1 2 2a.8.8 0 001.5-.5V26l.4-.5c.1-.3.4-.4.7-.4a2.4 2.4 0 002.6-2.6c0-.3.1-.5.4-.7a2.4 2.4 0 001-3.5.8.8 0 010-.8zM36 32l-1.2-1.3a.8.8 0 00-1.2 0L32.2 32v-5c.6 0 1-.2 1.5-.5.2-.1.6-.1.8 0 .4.3.9.4 1.3.4h.1v5zm5.4-12c0 .2-.2.3-.4.4-.8.5-1.4 1.4-1.3 2.3 0 .2 0 .4-.2.6-.2.2-.4.2-.6.2-1 0-1.9.5-2.3 1.3 0 .2-.3.4-.5.4h-.6a2.4 2.4 0 00-2.6 0h-.6a.8.8 0 01-.5-.4 2.4 2.4 0 00-2.3-1.3c-.2 0-.4 0-.6-.2a.8.8 0 01-.2-.6 2.4 2.4 0 00-1.3-2.3.8.8 0 01-.4-.4l.1-.7c.5-.8.5-1.8 0-2.6a.8.8 0 01-.1-.6c0-.2.2-.4.4-.5.8-.4 1.4-1.3 1.3-2.3 0-.2 0-.4.2-.5l.6-.3c1 0 1.9-.4 2.3-1.3 0-.2.3-.3.5-.4l.6.1c.8.5 1.8.5 2.6 0h.6c.2 0 .4.1.5.3.4.9 1.3 1.4 2.3 1.3l.6.3.2.5c0 1 .5 1.9 1.3 2.3l.4.5-.1.6c-.5.8-.5 1.8 0 2.6.1.2.2.4 0 .7z" fill="url(#paint4_linear)"/>
  <path d="M37 15.7a.8.8 0 00-1.1 0l-2.8 2.8-1-1a.8.8 0 00-1.3 1.1l1.7 1.7a.8.8 0 001.2 0l3.4-3.4c.3-.3.3-.8 0-1.2z" fill="url(#paint5_linear)"/>
  <path d="M11.5 25.2a.9.9 0 00-1.3 0 .9.9 0 000 1.3.9.9 0 001.3 0 .9.9 0 000-1.3z" fill="url(#paint6_linear)"/>
  <path d="M19.9 10h-4.1a.8.8 0 000 1.6h4a.8.8 0 000-1.7z" fill="url(#paint7_linear)"/>
  <path d="M25.4 24.7h-9.6a.8.8 0 000 1.7h9.6a.8.8 0 000-1.7z" fill="url(#paint8_linear)"/>
  <defs>
    <linearGradient id="paint0_linear" x1="38" y1="43" x2="4.5" y2="41.8" gradientUnits="userSpaceOnUse">
      <stop stop-color="#2CA824"/>
      <stop offset="1" stop-color="#45CF3C"/>
    </linearGradient>
    <linearGradient id="paint1_linear" x1="34.1" y1="23.3" x2="8.9" y2="21.7" gradientUnits="userSpaceOnUse">
      <stop stop-color="#2CA824"/>
      <stop offset="1" stop-color="#45CF3C"/>
    </linearGradient>
    <linearGradient id="paint2_linear" x1="34.1" y1="39" x2="9.1" y2="36.3" gradientUnits="userSpaceOnUse">
      <stop stop-color="#2CA824"/>
      <stop offset="1" stop-color="#45CF3C"/>
    </linearGradient>
    <linearGradient id="paint3_linear" x1="26.3" y1="33" x2="18.6" y2="32.2" gradientUnits="userSpaceOnUse">
      <stop stop-color="#2CA824"/>
      <stop offset="1" stop-color="#45CF3C"/>
    </linearGradient>
    <linearGradient id="paint4_linear" x1="43" y1="34.8" x2="13.9" y2="33.3" gradientUnits="userSpaceOnUse">
      <stop stop-color="#2CA824"/>
      <stop offset="1" stop-color="#45CF3C"/>
    </linearGradient>
    <linearGradient id="paint5_linear" x1="37.3" y1="20.6" x2="30.3" y2="20.1" gradientUnits="userSpaceOnUse">
      <stop stop-color="#2CA824"/>
      <stop offset="1" stop-color="#45CF3C"/>
    </linearGradient>
    <linearGradient id="paint6_linear" x1="11.7" y1="26.7" x2="9.9" y2="26.6" gradientUnits="userSpaceOnUse">
      <stop stop-color="#2CA824"/>
      <stop offset="1" stop-color="#45CF3C"/>
    </linearGradient>
    <linearGradient id="paint7_linear" x1="20.7" y1="11.6" x2="14.8" y2="10.6" gradientUnits="userSpaceOnUse">
      <stop stop-color="#2CA824"/>
      <stop offset="1" stop-color="#45CF3C"/>
    </linearGradient>
    <linearGradient id="paint8_linear" x1="26.3" y1="26.4" x2="15.6" y2="22.8" gradientUnits="userSpaceOnUse">
      <stop stop-color="#2CA824"/>
      <stop offset="1" stop-color="#45CF3C"/>
    </linearGradient>
  </defs>
</svg>
