<svg width="25" height="25" viewBox="0 0 25 25" fill="none" xmlns="http://www.w3.org/2000/svg">
<path fill-rule="evenodd" clip-rule="evenodd" d="M12.997 24.0193C10.956 24.0193 8.947 23.4913 7.157 22.4893L2.333 23.9163C1.98 24.0193 1.595 23.9213 1.337 23.6543C1.079 23.3893 0.989999 23.0023 1.106 22.6513L2.623 18.0353C1.555 16.2013 0.993999 14.1303 0.993999 12.0143C0.993999 5.39528 6.378 0.00927734 12.997 0.00927734C19.615 0.00927734 25 5.39528 25 12.0143C25 18.6333 19.615 24.0193 12.997 24.0193ZM12.997 2.00028C7.475 2.00028 2.984 6.49228 2.984 12.0143C2.984 13.9093 3.525 15.7643 4.55 17.3763C4.711 17.6263 4.75 17.9373 4.656 18.2203L3.588 21.4693L7.005 20.4593C7.097 20.4323 7.193 20.4183 7.287 20.4183C7.468 20.4183 7.647 20.4683 7.805 20.5643C9.377 21.5223 11.173 22.0283 12.997 22.0283C18.518 22.0283 23.01 17.5363 23.01 12.0143C23.01 6.49228 18.518 2.00028 12.997 2.00028ZM16.876 16.9623C16.384 17.0053 16.384 17.3543 13.66 16.3083C10.936 15.2593 9.217 12.5303 9.083 12.3563C8.948 12.1813 7.988 10.9373 7.988 9.64828C7.988 8.36228 8.68 7.72828 8.926 7.46828C9.171 7.20528 9.462 7.14028 9.64 7.14028C9.818 7.14028 9.997 7.16128 10.154 7.16128C10.311 7.16128 10.534 7.07428 10.757 7.59728C10.981 8.12228 11.516 9.41028 11.583 9.54128C11.65 9.67228 11.695 9.82328 11.605 9.99928C11.516 10.1733 11.471 10.2833 11.338 10.4353C11.204 10.5883 11.055 10.7753 10.936 10.8953C10.802 11.0243 10.662 11.1653 10.818 11.4283C10.975 11.6903 11.512 12.5463 12.309 13.2413C13.332 14.1323 14.196 14.4083 14.464 14.5393C14.732 14.6703 14.888 14.6493 15.043 14.4723C15.2 14.2983 15.715 13.7103 15.893 13.4483C16.071 13.1853 16.249 13.2303 16.496 13.3173C16.741 13.4043 18.059 14.0373 18.327 14.1683C18.595 14.2983 18.773 14.3643 18.84 14.4723C18.906 14.5823 18.906 15.1073 18.684 15.7183C18.46 16.3293 17.366 16.9193 16.876 16.9623Z" fill="url(#paint0_linear)"/>
<defs>
<linearGradient id="paint0_linear" x1="25" y1="24.0193" x2="-0.126096" y2="22.7835" gradientUnits="userSpaceOnUse">
<stop stop-color="#2CA824"/>
<stop offset="1" stop-color="#45CF3C"/>
</linearGradient>
</defs>
</svg>
