<svg width="14" height="42" viewBox="0 0 14 42" fill="none" xmlns="http://www.w3.org/2000/svg">
<path d="M7.9 1C7.9 0.502944 7.49706 0.1 7 0.1C6.50294 0.1 6.1 0.502944 6.1 1L7.9 1ZM6.36361 41.6364C6.71508 41.9879 7.28493 41.9879 7.6364 41.6364L13.364 35.9088C13.7154 35.5574 13.7154 34.9875 13.364 34.636C13.0125 34.2846 12.4426 34.2846 12.0912 34.636L7 39.7272L1.90883 34.636C1.55736 34.2846 0.987513 34.2846 0.636041 34.636C0.284569 34.9875 0.284569 35.5574 0.636041 35.9088L6.36361 41.6364ZM6.1 1L6.1 41L7.9 41L7.9 1L6.1 1Z" fill="#2CA824"/>
</svg>
