<svg width="85" height="15" viewBox="0 0 85 15" fill="none" xmlns="http://www.w3.org/2000/svg">
<path d="M1 6.56191C0.502944 6.56191 0.1 6.96486 0.1 7.46191C0.1 7.95897 0.502944 8.36191 1 8.36191L1 6.56191ZM84.6364 8.09832C84.9879 7.74685 84.9879 7.177 84.6364 6.82553L78.9088 1.09796C78.5574 0.746488 77.9875 0.746488 77.636 1.09796C77.2846 1.44943 77.2846 2.01928 77.636 2.37075L82.7272 7.46192L77.636 12.5531C77.2846 12.9046 77.2846 13.4744 77.636 13.8259C77.9875 14.1774 78.5574 14.1774 78.9088 13.8259L84.6364 8.09832ZM1 8.36191L84 8.36192L84 6.56192L1 6.56191L1 8.36191Z" fill="#2CA824"/>
</svg>
