<svg width="52" height="14" viewBox="0 0 52 14" fill="none" xmlns="http://www.w3.org/2000/svg">
<path d="M1 6.1C0.502944 6.1 0.1 6.50294 0.1 7C0.1 7.49706 0.502944 7.9 1 7.9L1 6.1ZM51.6364 7.63639C51.9879 7.28492 51.9879 6.71507 51.6364 6.3636L45.9088 0.636035C45.5574 0.284563 44.9875 0.284564 44.636 0.636035C44.2846 0.987507 44.2846 1.55736 44.636 1.90883L49.7272 7L44.636 12.0912C44.2846 12.4426 44.2846 13.0125 44.636 13.364C44.9875 13.7154 45.5574 13.7154 45.9088 13.364L51.6364 7.63639ZM1 7.9L51 7.9L51 6.1L1 6.1L1 7.9Z" fill="#2CA824"/>
</svg>
