<svg width="155" height="152" viewBox="0 0 155 152" fill="none" xmlns="http://www.w3.org/2000/svg">
<mask id="path-1-inside-1" fill="white">
<path d="M160.43 150.638C160.025 125.903 134.736 118.595 116.27 113.259C114.115 112.637 112.043 112.038 110.101 111.44V101.236C113.877 98.8698 117.185 95.8244 119.853 92.2722H131.102C136.606 92.2722 141.085 87.7937 141.085 82.2892V70.2046C141.752 68.6491 142.123 66.9372 142.123 65.1395V61.3812C142.123 59.5853 141.752 57.8745 141.085 56.32V50.0857C141.085 22.4686 118.617 0 90.9999 0C63.3884 0 40.9252 22.4686 40.9252 50.0861V56.1419C40.9252 56.1895 40.9305 56.2354 40.9323 56.2827C40.2548 57.8474 39.8772 59.5708 39.8772 61.3815V65.1399C39.8772 72.2447 45.6529 78.025 52.752 78.025H55.6896C57.7243 87.7819 63.7144 96.1035 71.8984 101.234V111.44C69.9564 112.038 67.8847 112.636 65.7302 113.259C47.2643 118.595 21.9747 125.903 21.5702 150.638C21.5698 150.657 21.5698 150.676 21.5698 150.696V178.445C21.5698 180.409 23.1616 182 25.1245 182H35.6635C37.6264 182 39.2182 180.409 39.2182 178.445C39.2182 176.482 37.6264 174.891 35.6635 174.891H28.6789V150.725C28.8285 142.096 32.7927 135.626 41.1537 130.367C46.671 126.897 53.416 124.424 60.0648 122.356L68.6533 139.089C69.6105 140.954 72.0615 141.588 73.8033 140.413L77.6328 137.83L80.9205 150.187L75.2874 174.89H67.5837C65.6208 174.89 64.029 176.482 64.029 178.445C64.029 180.408 65.6208 182 67.5837 182H156.875C158.838 182 160.43 180.408 160.43 178.445V150.696C160.43 150.676 160.43 150.657 160.43 150.638ZM114.296 120.089C114.53 120.156 114.768 120.226 115.004 120.294L108.859 132.278L97.3596 124.524L107.103 117.951C109.367 118.664 111.774 119.36 114.296 120.089ZM91.0024 128.812L98.1303 133.618L94.6854 146.567H87.3144L83.8706 133.622L91.0024 128.812ZM91.0017 120.237L79.0074 112.149V104.665C82.7615 105.993 86.7965 106.721 90.9995 106.721C95.2023 106.721 99.2379 105.996 102.992 104.668V112.149L91.0017 120.237ZM119.96 50.7363C119.911 50.7053 119.863 50.6744 119.814 50.6435C112.52 46.0003 106.22 41.9903 96.3497 44.8145C96.258 44.8408 96.167 44.8706 96.0778 44.9041C93.9851 45.69 92.0823 46.4226 90.2417 47.1311C79.0006 51.4582 72.8631 53.8214 62.0397 53.5171V50.6705C62.0397 34.7014 75.0311 21.7096 90.9995 21.7096C106.968 21.7096 119.959 34.7014 119.959 50.6705V50.7363H119.96ZM133.975 82.2892C133.975 83.8739 132.686 85.1628 131.102 85.1628H124.018C125.018 82.8953 125.793 80.5069 126.311 78.0246H129.248C130.917 78.0246 132.511 77.7019 133.976 77.1207V82.2892H133.975ZM135.013 65.1395C135.013 68.3242 132.427 70.9152 129.248 70.9152H127.066C127.067 70.8271 127.069 55.6154 127.069 55.6154H129.248C132.427 55.6154 135.013 58.2018 135.013 61.3812V65.1395H135.013ZM52.752 70.9156C49.573 70.9156 46.9867 68.3246 46.9867 65.1399V61.3815C46.9867 58.2022 49.5727 55.6158 52.752 55.6158H54.9307C54.9307 55.6158 54.9335 70.8274 54.9342 70.9156H52.752ZM54.9972 48.506H52.7517C51.0898 48.506 49.5027 48.826 48.0431 49.4018C48.4103 26.019 67.5374 7.1094 90.9999 7.1094C114.469 7.1094 133.602 26.0211 133.966 49.4057C132.504 48.8274 130.913 48.506 129.248 48.506H127.002C125.879 29.6206 110.162 14.6002 90.9999 14.6002C71.8379 14.6002 56.1205 29.621 54.9972 48.506ZM62.2537 74.1095C62.2534 74.1059 62.2527 74.1024 62.2523 74.0988C62.1176 72.9674 62.0401 71.8185 62.0401 70.6515V60.6261C74.2018 60.9226 81.4566 58.1315 92.7957 53.7663C94.5816 53.0788 96.4276 52.3682 98.4385 51.6121C105.153 49.7377 109.017 52.1979 115.996 56.641C117.207 57.412 118.536 58.2569 119.96 59.1246V70.6515C119.96 75.9377 118.529 80.8929 116.046 85.1632H90.9999C89.037 85.1632 87.4452 86.7546 87.4452 88.7179C87.4452 90.6811 89.037 92.2726 90.9999 92.2726H110.239C105.12 96.8336 98.3795 99.6123 90.9999 99.6123C76.202 99.612 63.9689 88.4531 62.2537 74.1095ZM73.1489 132.279L66.9971 120.293C67.2325 120.225 67.4699 120.156 67.7038 120.089C70.2255 119.36 72.6328 118.663 74.8971 117.951L84.6448 124.524L73.1489 132.279ZM82.5795 174.891L87.4171 153.676H94.5837L99.4288 174.891H82.5795ZM153.321 174.891H106.721L101.079 150.186L104.368 137.825L108.207 140.413C109.95 141.588 112.401 140.954 113.358 139.088L121.936 122.356C128.585 124.425 135.33 126.897 140.846 130.367C149.207 135.626 153.172 142.096 153.321 150.725V174.891H153.321Z"/>
</mask>
<path d="M160.43 150.638C160.025 125.903 134.736 118.595 116.27 113.259C114.115 112.637 112.043 112.038 110.101 111.44V101.236C113.877 98.8698 117.185 95.8244 119.853 92.2722H131.102C136.606 92.2722 141.085 87.7937 141.085 82.2892V70.2046C141.752 68.6491 142.123 66.9372 142.123 65.1395V61.3812C142.123 59.5853 141.752 57.8745 141.085 56.32V50.0857C141.085 22.4686 118.617 0 90.9999 0C63.3884 0 40.9252 22.4686 40.9252 50.0861V56.1419C40.9252 56.1895 40.9305 56.2354 40.9323 56.2827C40.2548 57.8474 39.8772 59.5708 39.8772 61.3815V65.1399C39.8772 72.2447 45.6529 78.025 52.752 78.025H55.6896C57.7243 87.7819 63.7144 96.1035 71.8984 101.234V111.44C69.9564 112.038 67.8847 112.636 65.7302 113.259C47.2643 118.595 21.9747 125.903 21.5702 150.638C21.5698 150.657 21.5698 150.676 21.5698 150.696V178.445C21.5698 180.409 23.1616 182 25.1245 182H35.6635C37.6264 182 39.2182 180.409 39.2182 178.445C39.2182 176.482 37.6264 174.891 35.6635 174.891H28.6789V150.725C28.8285 142.096 32.7927 135.626 41.1537 130.367C46.671 126.897 53.416 124.424 60.0648 122.356L68.6533 139.089C69.6105 140.954 72.0615 141.588 73.8033 140.413L77.6328 137.83L80.9205 150.187L75.2874 174.89H67.5837C65.6208 174.89 64.029 176.482 64.029 178.445C64.029 180.408 65.6208 182 67.5837 182H156.875C158.838 182 160.43 180.408 160.43 178.445V150.696C160.43 150.676 160.43 150.657 160.43 150.638ZM114.296 120.089C114.53 120.156 114.768 120.226 115.004 120.294L108.859 132.278L97.3596 124.524L107.103 117.951C109.367 118.664 111.774 119.36 114.296 120.089ZM91.0024 128.812L98.1303 133.618L94.6854 146.567H87.3144L83.8706 133.622L91.0024 128.812ZM91.0017 120.237L79.0074 112.149V104.665C82.7615 105.993 86.7965 106.721 90.9995 106.721C95.2023 106.721 99.2379 105.996 102.992 104.668V112.149L91.0017 120.237ZM119.96 50.7363C119.911 50.7053 119.863 50.6744 119.814 50.6435C112.52 46.0003 106.22 41.9903 96.3497 44.8145C96.258 44.8408 96.167 44.8706 96.0778 44.9041C93.9851 45.69 92.0823 46.4226 90.2417 47.1311C79.0006 51.4582 72.8631 53.8214 62.0397 53.5171V50.6705C62.0397 34.7014 75.0311 21.7096 90.9995 21.7096C106.968 21.7096 119.959 34.7014 119.959 50.6705V50.7363H119.96ZM133.975 82.2892C133.975 83.8739 132.686 85.1628 131.102 85.1628H124.018C125.018 82.8953 125.793 80.5069 126.311 78.0246H129.248C130.917 78.0246 132.511 77.7019 133.976 77.1207V82.2892H133.975ZM135.013 65.1395C135.013 68.3242 132.427 70.9152 129.248 70.9152H127.066C127.067 70.8271 127.069 55.6154 127.069 55.6154H129.248C132.427 55.6154 135.013 58.2018 135.013 61.3812V65.1395H135.013ZM52.752 70.9156C49.573 70.9156 46.9867 68.3246 46.9867 65.1399V61.3815C46.9867 58.2022 49.5727 55.6158 52.752 55.6158H54.9307C54.9307 55.6158 54.9335 70.8274 54.9342 70.9156H52.752ZM54.9972 48.506H52.7517C51.0898 48.506 49.5027 48.826 48.0431 49.4018C48.4103 26.019 67.5374 7.1094 90.9999 7.1094C114.469 7.1094 133.602 26.0211 133.966 49.4057C132.504 48.8274 130.913 48.506 129.248 48.506H127.002C125.879 29.6206 110.162 14.6002 90.9999 14.6002C71.8379 14.6002 56.1205 29.621 54.9972 48.506ZM62.2537 74.1095C62.2534 74.1059 62.2527 74.1024 62.2523 74.0988C62.1176 72.9674 62.0401 71.8185 62.0401 70.6515V60.6261C74.2018 60.9226 81.4566 58.1315 92.7957 53.7663C94.5816 53.0788 96.4276 52.3682 98.4385 51.6121C105.153 49.7377 109.017 52.1979 115.996 56.641C117.207 57.412 118.536 58.2569 119.96 59.1246V70.6515C119.96 75.9377 118.529 80.8929 116.046 85.1632H90.9999C89.037 85.1632 87.4452 86.7546 87.4452 88.7179C87.4452 90.6811 89.037 92.2726 90.9999 92.2726H110.239C105.12 96.8336 98.3795 99.6123 90.9999 99.6123C76.202 99.612 63.9689 88.4531 62.2537 74.1095ZM73.1489 132.279L66.9971 120.293C67.2325 120.225 67.4699 120.156 67.7038 120.089C70.2255 119.36 72.6328 118.663 74.8971 117.951L84.6448 124.524L73.1489 132.279ZM82.5795 174.891L87.4171 153.676H94.5837L99.4288 174.891H82.5795ZM153.321 174.891H106.721L101.079 150.186L104.368 137.825L108.207 140.413C109.95 141.588 112.401 140.954 113.358 139.088L121.936 122.356C128.585 124.425 135.33 126.897 140.846 130.367C149.207 135.626 153.172 142.096 153.321 150.725V174.891H153.321Z" fill="#F4F4F6" stroke="white" stroke-width="4" mask="url(#path-1-inside-1)"/>
</svg>
