<svg width="16" height="18" viewBox="0 0 16 18" fill="none" xmlns="http://www.w3.org/2000/svg">
<path d="M2.23438 17.6251C1.94657 17.6245 1.66387 17.5491 1.41406 17.4062C0.851564 17.0874 0.501877 16.4687 0.501877 15.797V2.20321C0.501877 1.52961 0.851564 0.912739 1.41406 0.593989C1.66982 0.447006 1.96035 0.37142 2.25531 0.37513C2.55027 0.378841 2.83881 0.461713 3.09078 0.615083L14.7088 7.56946C14.9509 7.72128 15.1505 7.93211 15.2888 8.18218C15.4272 8.43224 15.4998 8.71335 15.4998 8.99914C15.4998 9.28494 15.4272 9.56605 15.2888 9.81611C15.1505 10.0662 14.9509 10.277 14.7088 10.4288L3.08891 17.3851C2.83105 17.541 2.5357 17.6239 2.23438 17.6251Z" fill="white"/>
</svg>
